<svg width="46" height="46" viewBox="0 0 46 46" fill="none" xmlns="http://www.w3.org/2000/svg">
<path fill-rule="evenodd" clip-rule="evenodd" d="M17.5581 0.0379499C17.4836 0.0525104 17.1179 0.113449 16.7454 0.173489C14.0876 0.601676 11.4734 2.2525 9.82607 4.54309C8.77088 6.01029 7.90034 8.38824 7.8951 9.81796C7.89429 10.0237 7.86386 10.2332 7.82738 10.2834C7.7909 10.3338 7.43694 10.4682 7.0409 10.5821C3.78177 11.5197 1.1463 14.2685 0.204791 17.7121C0.0255537 18.3676 0 18.6739 0 20.1687C0 21.6635 0.0255537 21.9698 0.204791 22.6253C1.28735 26.5846 4.56427 29.5413 8.48554 30.0968C9.00619 30.1705 13.4209 30.1915 24.4206 30.1721L39.6354 30.1454L40.4029 29.8891C42.5996 29.1556 44.2138 27.7869 45.1884 25.8311C45.787 24.6303 46 23.7101 46 22.3258C46 20.9807 45.7878 20.0323 45.2359 18.9104C44.1908 16.7859 42.3437 15.2651 40.1212 14.6995L39.6354 14.5759L39.5693 14.0917C39.3172 12.2436 39.1398 11.5746 38.6427 10.5965C37.5392 8.42545 35.6537 6.87457 33.2212 6.13711C32.4884 5.91502 32.275 5.89129 30.967 5.88706C29.8745 5.88356 29.3911 5.91933 28.9844 6.03375C28.6885 6.11698 28.4417 6.17657 28.4358 6.16623C28.4301 6.15589 28.2906 5.90477 28.1258 5.60817C27.5717 4.61068 27.1009 3.995 26.2325 3.13242C24.5609 1.47225 22.5673 0.465598 20.2673 0.120549C19.5189 0.00819963 17.955 -0.0394367 17.5581 0.0379499ZM20.583 3.11714C23.2049 3.83385 25.0776 5.51217 26.0983 8.06C26.4647 8.97471 26.7281 9.27212 27.3099 9.42797C27.6792 9.52702 27.6881 9.52477 29.2063 8.94657C29.6248 8.78722 29.8946 8.75801 30.9219 8.76106C32.0066 8.76421 32.208 8.79 32.7496 8.99502C33.6544 9.33755 34.3211 9.76331 34.9813 10.4206C36.2985 11.7318 36.8483 13.3427 36.6119 15.1994C36.5058 16.0328 36.5096 16.0906 36.6975 16.4768C36.9811 17.06 37.3416 17.2485 38.3507 17.3412C39.3714 17.435 39.7345 17.5354 40.5104 17.9389C44.0037 19.755 43.9988 24.8901 40.5021 26.7191C39.2851 27.3556 40.4409 27.3142 23.9194 27.3142C9.26606 27.3142 8.99653 27.311 8.29466 27.133C5.02993 26.3048 2.80964 23.4811 2.8231 20.1744C2.82815 18.9296 3.04234 18.0506 3.62023 16.9027C4.61475 14.9274 6.67945 13.4304 8.84456 13.1151C9.73713 12.9851 10.3174 12.7152 10.5439 12.3248C10.6839 12.0836 10.7193 11.8095 10.7415 10.7968C10.7733 9.34537 10.9587 8.5218 11.5151 7.36082C12.6034 5.08974 14.6317 3.52951 17.1901 2.99536C17.999 2.82656 19.7497 2.88939 20.583 3.11714ZM4.51885 32.441C3.98403 32.6003 3.72 33.0126 2.17035 36.1096C0.840473 38.7676 0.644712 39.2134 0.65022 39.5724C0.666744 40.6608 1.82713 41.31 2.79474 40.7722C3.13561 40.5828 3.24604 40.3933 4.75868 37.4026C6.17695 34.5984 6.36143 34.1837 6.36143 33.7982C6.36143 33.2392 6.08973 32.8203 5.55147 32.5497C5.12465 32.335 4.94008 32.3156 4.51885 32.441ZM17.5503 32.4334C16.9435 32.6164 16.8591 32.7464 15.2013 36.0531C14.2839 37.883 13.5859 39.3819 13.5871 39.5197C13.59 39.8729 13.8857 40.466 14.1698 40.6885C14.6629 41.0745 15.4473 41.0542 15.9386 40.6426C16.347 40.3006 19.3646 34.2728 19.3626 33.8035C19.3603 33.3036 19.0276 32.7874 18.5544 32.5497C18.1339 32.3384 17.9397 32.3159 17.5503 32.4334ZM30.3828 32.4856C30.2104 32.5622 29.9921 32.694 29.8975 32.7783C29.8029 32.8626 29.0195 34.3392 28.1567 36.0595C27.0268 38.3119 26.5877 39.2748 26.5877 39.5003C26.5877 40.7211 28.0145 41.4188 28.9349 40.6479C29.2719 40.3656 32.2407 34.533 32.3299 33.978C32.4924 32.9663 31.3207 32.0682 30.3828 32.4856ZM43.4278 32.4519C43.2788 32.5059 43.0611 32.6359 42.9441 32.7408C42.8271 32.8458 42.0202 34.3456 41.1512 36.0737C39.6216 39.1151 39.5722 39.2303 39.6093 39.6751C39.677 40.4882 40.3202 41.0326 41.1224 40.9559C41.9261 40.879 41.9751 40.8111 43.7031 37.372C45.0953 34.6013 45.2789 34.185 45.2789 33.7993C45.2789 33.3251 45.0533 32.899 44.6468 32.6054C44.36 32.3981 43.778 32.3249 43.4278 32.4519ZM8.61882 37.5788C8.21619 37.789 8.19768 37.8201 6.59412 40.9788C5.20609 43.7127 4.97548 44.2252 4.97394 44.5775C4.96889 45.8074 6.43764 46.4549 7.34177 45.6212C7.45879 45.5133 8.26134 44.0197 9.12511 42.3022C10.8513 38.8698 10.9056 38.703 10.4925 38.0988C10.0248 37.4149 9.31175 37.2169 8.61882 37.5788ZM21.6576 37.5519C21.4541 37.644 21.2046 37.8352 21.1034 37.9769C20.7742 38.4375 18.0216 44.0118 17.9587 44.345C17.8755 44.7865 18.1258 45.4118 18.4993 45.6954C19.0436 46.1087 19.7657 46.1007 20.2728 45.6759C20.6492 45.3607 23.6982 39.3099 23.6982 38.8783C23.6982 38.3788 23.3435 37.8111 22.889 37.5829C22.402 37.3386 22.1441 37.332 21.6576 37.5519ZM34.7594 37.4891C34.6105 37.541 34.3928 37.6692 34.2757 37.7741C34.1587 37.8791 33.3562 39.3702 32.4924 41.0877C31.1788 43.6997 30.9219 44.2747 30.9219 44.6023C30.9219 45.6463 32.1279 46.3331 33.0438 45.8107C33.3837 45.6168 33.5027 45.4114 35.0613 42.3271C36.6035 39.2754 36.7136 39.0248 36.6601 38.6911C36.5765 38.1705 36.2965 37.779 35.8563 37.5668C35.434 37.3634 35.1738 37.345 34.7594 37.4891Z" fill="white"/>
</svg>
