<svg width="46" height="46" viewBox="0 0 46 46" fill="none" xmlns="http://www.w3.org/2000/svg">
<path fill-rule="evenodd" clip-rule="evenodd" d="M3.70467 0.155879C2.85631 0.44903 2.23928 1.06813 1.95952 1.90661C1.82211 2.31838 1.75525 2.39486 1.36917 2.58107C0.559277 2.97173 0.116226 3.5672 0.0179095 4.39713C-0.0634215 5.08444 0.129167 5.61332 0.658941 6.15748C1.37241 6.89008 1.58333 6.92738 4.8194 6.89296C7.40231 6.86546 7.50871 6.85737 7.91537 6.65705C8.78062 6.23081 9.34068 5.23237 9.19968 4.36729C9.06236 3.5255 8.4287 2.75497 7.66688 2.50351C7.47151 2.43908 7.35944 2.34427 7.35944 2.24361C7.35944 2.15653 7.23372 1.83354 7.07995 1.52592C6.45573 0.276752 5.02987 -0.302 3.70467 0.155879ZM40.4597 0.156329C39.7883 0.388279 39.237 0.877703 38.9101 1.53212C38.758 1.83633 38.6327 2.14952 38.6314 2.22816C38.6301 2.31317 38.4044 2.48024 38.0741 2.64065C36.3559 3.47544 36.3579 5.80995 38.0777 6.65705C38.4844 6.85737 38.5908 6.86546 41.1737 6.89296C44.4098 6.92738 44.6207 6.89008 45.3342 6.15748C45.8639 5.61332 46.0565 5.08444 45.9752 4.39713C45.8769 3.5672 45.4338 2.97173 44.6239 2.58107C44.2379 2.39486 44.171 2.31838 44.0336 1.90661C43.5416 0.431865 41.9367 -0.354124 40.4597 0.156329ZM5.28699 1.51451C5.73876 1.74493 5.99254 2.16974 6.08574 2.85148C6.18253 3.55893 6.36154 3.76401 6.88224 3.76401C7.38721 3.76401 7.69187 3.96729 7.81804 4.38841C7.90027 4.66287 7.89191 4.77449 7.77221 5.00608C7.48975 5.55221 7.36807 5.57198 4.47314 5.54277L1.86246 5.51644L1.59025 5.21161C1.3538 4.94686 1.32451 4.85825 1.36755 4.53778C1.42606 4.10101 1.76199 3.76401 2.13871 3.76401C2.83564 3.76401 3.08287 3.49836 3.16259 2.66366C3.2618 1.62451 4.34939 1.03614 5.28699 1.51451ZM42.0177 1.48503C42.512 1.71959 42.773 2.13901 42.8597 2.83854C42.9506 3.57079 43.1293 3.76401 43.7162 3.76401C44.2369 3.76401 44.5585 4.03766 44.6256 4.53778C44.6686 4.85825 44.6393 4.94686 44.4029 5.21161L44.1306 5.51644L41.52 5.54277C38.625 5.57198 38.5034 5.55221 38.2209 5.00608C37.9423 4.46723 38.3539 3.76401 38.9479 3.76401C39.0748 3.76401 39.3175 3.70604 39.4871 3.63514C39.8068 3.50159 39.8375 3.43626 39.9342 2.68424C40.0674 1.6485 41.1044 1.0516 42.0177 1.48503ZM31.5257 5.14097C30.4283 5.7191 29.2791 8.01317 28.4711 11.2388C27.908 13.4863 27.717 15.3471 27.947 16.3456C28.2299 17.5737 29.2123 18.7842 30.3785 19.3415C30.7422 19.5153 31.1915 19.6853 31.3768 19.7191L31.7138 19.7806L31.7107 20.3322L31.7076 20.8839L31.0437 21.1866L30.3799 21.4894L29.4068 21.3026C27.9807 21.0288 27.2481 20.9448 25.6816 20.8752L24.2776 20.8129L24.6312 20.249C25.7267 18.5018 26.0609 16.0092 25.4715 13.9823C24.1756 9.5261 19.5848 7.08986 15.2141 8.53917C13.7029 9.04028 12.1225 10.143 12.1225 10.6963C12.1225 11.0126 12.4745 11.4028 12.7599 11.4028C12.8678 11.4028 13.2438 11.1845 13.5952 10.9177C15.5486 9.43498 17.8348 9.06822 20.0605 9.88054C23.8223 11.2534 25.5223 15.6627 23.662 19.2214C23.3131 19.8888 22.6478 20.769 22.3393 20.9711C22.2242 21.0465 21.7419 21.1664 21.2675 21.2377C20.4073 21.3668 20.4025 21.3665 19.5214 21.1132C17.5446 20.545 14.2596 19.8741 12.6441 19.7086L12.0485 19.6475L11.8269 19.2323C11.2262 18.1067 10.9469 16.5699 11.1204 15.344C11.1789 14.9311 11.3013 14.3537 11.3926 14.0612C11.5841 13.4472 11.5583 13.2643 11.2455 13.0183C10.6449 12.5459 10.2454 12.9477 9.93885 14.3323C9.60427 15.8432 9.67293 17.2542 10.1504 18.6795C10.2906 19.0982 10.3974 19.4449 10.3877 19.45C10.3779 19.4551 10.182 19.4425 9.95215 19.4219L9.53426 19.3845L9.33484 18.8311C7.59912 14.0151 5.00723 13.8829 3.20815 18.5185L2.83564 19.4783L2.37902 19.5339C0.941757 19.7089 0.577161 19.7946 0.364981 20.0067C0.194231 20.1775 0.16125 20.2808 0.205105 20.5079C0.286796 20.931 0.580935 21.1377 1.00467 21.07C1.19438 21.0396 1.59447 20.9892 1.89364 20.9579C2.40787 20.9042 2.43447 20.9109 2.38082 21.08C2.2009 21.6468 1.85635 23.3745 1.7299 24.3439C1.54657 25.7492 1.63662 26.5067 2.09917 27.4506C2.68736 28.6509 3.66073 29.4816 4.91053 29.8497L5.56207 30.0416V31.8209C5.56207 33.4805 5.57421 33.6125 5.74181 33.7801C6.00944 34.0477 6.49042 34.0197 6.7238 33.723C6.89761 33.5021 6.9101 33.3704 6.9101 31.7566V30.0269L7.33698 29.9195C8.08154 29.732 8.93906 29.2155 9.494 28.6203C10.6759 27.3525 10.9713 26.151 10.6405 23.9564C10.5171 23.1376 10.1012 21.1527 9.99528 20.8766C9.95862 20.781 10.0497 20.7658 10.4291 20.8038C12.0626 20.9675 14.5229 21.3399 16.012 21.6486C16.962 21.8456 17.7696 22.0069 17.8066 22.007C17.8437 22.0072 17.8741 22.0477 17.8741 22.0972C17.8741 22.1466 17.8282 22.187 17.7721 22.187C17.5652 22.187 15.9643 22.9992 15.2456 23.4688C13.7797 24.4267 12.7689 25.6204 12.3893 26.8417C12.159 27.5824 12.134 28.7107 12.3355 29.2652C12.7964 30.5335 13.7509 31.2233 16.3463 32.1641C18.4698 32.9338 19.1717 33.3627 19.5038 34.0938C19.858 34.8734 19.6391 35.6216 18.8462 36.3418C17.9775 37.1308 16.9494 37.6694 13.6952 39.0403C12.4403 39.569 12.1459 39.7277 12.047 39.9291C11.8349 40.3605 12.1676 40.8797 12.656 40.8797C12.9041 40.8797 16.6179 39.2784 17.6943 38.7073C19.277 37.8676 20.3114 36.9767 20.7545 36.0717C20.939 35.6949 20.9742 35.4918 20.9727 34.8136C20.9706 33.8157 20.7688 33.3414 20.0348 32.6085C19.422 31.9965 18.5464 31.5359 16.7956 30.9044C15.1632 30.3156 14.3554 29.8984 13.9655 29.4428C13.1639 28.5063 13.4587 26.8829 14.6571 25.6349C16.8451 23.3564 21.8305 21.9157 26.338 22.2594C27.0951 22.3172 27.9675 22.4097 28.2766 22.4651L28.8385 22.5658L28.1684 23.2782C26.6645 24.8768 26.4754 26.3066 27.6166 27.4479C28.2125 28.0438 28.9151 28.3993 31.1618 29.2414C36.4535 31.225 38.8503 32.6891 39.7283 34.4739C40.006 35.0383 40.0266 35.1428 40.0266 35.9805C40.0266 36.8378 40.0104 36.9146 39.6836 37.5995C39.495 37.9949 39.1012 38.7059 38.8085 39.1796C38.5159 39.6533 38.1453 40.3206 37.9849 40.6625C37.7145 41.2389 37.6932 41.3527 37.6917 42.2277C37.6902 43.0886 37.7129 43.2178 37.9505 43.7017C38.2741 44.3609 39.0654 45.153 39.7815 45.5347C40.4212 45.8756 40.608 45.8907 40.8513 45.6202C41.2806 45.1433 41.1796 44.7895 40.5054 44.409C39.9207 44.0789 39.3374 43.5095 39.1221 43.0584C39.0196 42.8436 38.9631 42.5227 38.966 42.1707C38.9714 41.4924 39.1935 40.9775 40.019 39.7295C41.0975 38.0991 41.4675 37.0076 41.396 35.6673C41.3263 34.3617 40.8591 33.4022 39.7557 32.2988C38.2243 30.7674 35.5258 29.3891 30.5128 27.5777C28.794 26.9566 28.1412 26.3941 28.2444 25.623C28.2726 25.4121 28.3531 25.129 28.4231 24.9939C28.819 24.23 30.223 23.0643 31.4791 22.4565C32.831 21.8024 34.1151 21.4878 35.7738 21.4043L36.8231 21.3514L36.8821 21.7018C37.1902 23.532 38.3516 24.891 40.0894 25.4551L40.7456 25.6681L40.77 27.45C40.7976 29.4637 40.8262 29.5563 41.4196 29.5563C42.0126 29.5563 42.0416 29.4629 42.0692 27.4578L42.0936 25.6836L42.8206 25.4398C43.789 25.115 44.2055 24.7975 44.2055 24.3842C44.2055 24.0178 43.9448 23.7148 43.6295 23.7148C43.5103 23.7148 43.1565 23.8361 42.8431 23.9843C42.5297 24.1326 42.2228 24.2539 42.161 24.2539C42.075 24.254 42.0487 23.8449 42.0487 22.508C42.0487 20.6271 42.0294 20.5458 41.5565 20.4271C41.3441 20.3738 40.9806 20.5136 40.8593 20.6952C40.823 20.7496 40.7927 21.5725 40.7919 22.524C40.791 23.604 40.7571 24.254 40.7016 24.254C40.6527 24.254 40.4078 24.1762 40.1574 24.081C38.2699 23.3638 37.7744 21.2449 38.6766 17.7476C39.5146 14.4995 40.6739 12.1218 41.4196 12.1218C41.957 12.1218 42.7564 13.404 43.4406 15.3636C44.0286 17.0478 44.6548 19.9375 44.6548 20.967C44.6548 21.1971 44.7214 21.3631 44.8755 21.5171C45.148 21.7897 45.4525 21.7981 45.7781 21.542C46.0235 21.349 46.0262 21.3359 45.9706 20.6141C45.7249 17.4175 44.2782 13.0025 43.0283 11.6349C42.4505 11.0026 42.023 10.7737 41.4196 10.7737C40.8158 10.7737 40.3887 11.0026 39.809 11.6369C38.7497 12.7959 37.5348 16.1628 37.0152 19.3787L36.9099 20.0302L36.2216 20.032C35.6278 20.0334 34.3362 20.18 33.3539 20.3573C33.0696 20.4086 33.0618 20.4016 33.0618 20.0932C33.0618 19.7928 33.0807 19.7732 33.4269 19.7147C33.9359 19.6288 34.9342 19.1116 35.4247 18.6797C35.9848 18.1868 36.5269 17.3487 36.7514 16.6287C37.1042 15.497 36.9361 13.5856 36.2561 10.9984C35.6398 8.65348 34.7766 6.64618 34.0085 5.77167C33.2773 4.93913 32.354 4.70457 31.5257 5.14097ZM32.9734 6.64133C34.0993 7.86084 35.5831 12.6915 35.6018 15.1976C35.6072 15.9264 35.5841 16.0294 35.2758 16.6531C34.8413 17.5322 34.1771 18.0976 33.264 18.3654L33.0618 18.4247V16.707C33.0618 15.0032 33.06 14.9876 32.8412 14.7689C32.5601 14.4877 32.2155 14.4877 31.9344 14.7689C31.7156 14.9876 31.7138 15.0032 31.7138 16.707V18.4247L31.5116 18.3654C30.6531 18.1136 29.8576 17.4345 29.4843 16.635C29.293 16.225 29.238 15.9566 29.2129 15.309C29.1216 12.9547 30.6836 7.81258 31.8571 6.6043C32.281 6.16799 32.5444 6.17671 32.9734 6.64133ZM6.60904 16.6087C7.22105 16.9819 7.73815 18.0424 8.43535 20.3539C9.18189 22.8292 9.36459 23.7639 9.37357 25.1527C9.38121 26.3258 9.37268 26.3833 9.11592 26.8905C8.78287 27.5484 8.05179 28.2284 7.42621 28.4619L6.95504 28.6379L6.9101 26.8872C6.86633 25.1814 6.85968 25.132 6.65299 24.9649C6.53634 24.8704 6.36181 24.7932 6.26511 24.7932C6.06228 24.7932 5.72707 24.9547 5.63082 25.0988C5.59452 25.1531 5.56423 25.9789 5.56342 26.9336L5.56207 28.6697L5.35987 28.608C4.19877 28.2533 3.38276 27.402 3.08161 26.2311C2.95032 25.7208 2.94492 25.5276 3.03884 24.7034C3.39058 21.6183 4.62618 17.9428 5.68214 16.8407C6.11791 16.3859 6.20706 16.3637 6.60904 16.6087ZM24.1657 23.9512C23.6942 24.3959 23.449 24.7192 23.1986 25.2258C22.8974 25.8352 22.8637 25.974 22.8688 26.5863C22.8764 27.4882 23.1556 28.1048 23.915 28.8962C24.8215 29.8408 26.3081 30.7338 28.5863 31.7021C29.6127 32.1384 29.836 32.1582 30.0896 31.8358C30.5341 31.2708 30.2834 30.9569 28.9279 30.3807C26.8465 29.496 25.5713 28.7271 24.8176 27.9024C23.8668 26.8621 23.9918 25.9264 25.2352 24.7774C25.841 24.2175 25.91 23.991 25.5962 23.5921C25.4601 23.419 25.3276 23.3553 25.1036 23.3553C24.8494 23.3553 24.6899 23.4567 24.1657 23.9512ZM34.3527 25.5275C34.1614 25.6201 33.9605 25.9534 33.9605 26.1783C33.9605 26.2434 34.0444 26.4033 34.1468 26.5335C34.2819 26.7053 34.4159 26.7703 34.6345 26.7703C34.8532 26.7703 34.9872 26.7053 35.1222 26.5335C35.2247 26.4033 35.3085 26.2434 35.3085 26.1783C35.3085 25.9407 35.1036 25.6195 34.89 25.5221C34.6329 25.405 34.605 25.4052 34.3527 25.5275ZM32.3838 32.4729C32.1687 32.6879 32.1069 32.9896 32.2181 33.2797C32.2484 33.3586 32.6832 33.6331 33.1842 33.8898C34.3974 34.5112 34.9781 35.0762 35.1235 35.7765C35.3027 36.64 35.0743 37.1424 33.7534 38.7908C32.3934 40.4879 32.006 41.1898 31.8483 42.2426C31.7746 42.7348 31.926 43.5431 32.1352 43.7743C32.3291 43.9885 32.8959 43.9885 33.0899 43.7742C33.2039 43.6482 33.2313 43.4477 33.2161 42.8518C33.1983 42.1563 33.2214 42.04 33.4838 41.5075C33.6418 41.1869 34.2346 40.3435 34.801 39.6333C35.9562 38.1847 36.2328 37.7301 36.4321 36.9524C36.5946 36.3178 36.5125 35.4829 36.2232 34.8288C35.8667 34.0228 34.9036 33.1972 33.5803 32.563C32.8093 32.1934 32.6734 32.1832 32.3838 32.4729ZM0.390594 34.0007C0.120989 34.2702 0.109126 34.5772 0.356264 34.8913C0.732364 35.3695 1.42813 35.0857 1.42813 34.4541C1.42813 33.836 0.820704 33.5705 0.390594 34.0007ZM44.9245 33.9598C44.8132 34.0711 44.7447 34.2593 44.7447 34.4541C44.7447 35.0857 45.4405 35.3695 45.8166 34.8913C46.0637 34.5772 46.0519 34.2702 45.7823 34.0007C45.5151 33.7335 45.1674 33.7169 44.9245 33.9598ZM13.1519 34.8095C13.0306 34.9308 12.9313 35.1348 12.9313 35.2629C12.9313 35.5566 13.3036 35.9369 13.5913 35.9369C13.9543 35.9369 14.2254 35.6488 14.2254 35.2629C14.2254 34.6453 13.5861 34.3753 13.1519 34.8095ZM4.32566 39.0854C3.92404 39.2468 3.84091 39.8646 4.17567 40.1994C4.36871 40.3925 4.87009 40.3792 5.05387 40.1761C5.29175 39.9132 5.24637 39.3995 4.9658 39.1787C4.7068 38.9749 4.62879 38.9636 4.32566 39.0854ZM7.80249 41.788C6.20706 42.7001 5.13196 43.4742 4.14665 44.4199C3.60096 44.9435 3.53725 45.2436 3.89546 45.6018C4.24442 45.9509 4.49246 45.8874 5.17582 45.2745C6.024 44.5137 7.41444 43.5409 8.56719 42.9017C9.10199 42.6052 9.5995 42.2718 9.67266 42.1609C9.9171 41.7907 9.57182 41.1493 9.12805 41.1493C9.01329 41.1493 8.41684 41.4367 7.80249 41.788ZM42.6777 41.6885C42.2911 42.0751 42.5738 42.7968 43.1119 42.7968C43.6717 42.7968 43.9532 42.1895 43.6162 41.7085C43.4334 41.4474 42.9296 41.4367 42.6777 41.6885Z" fill="white"/>
</svg>
