<svg width="46" height="46" viewBox="0 0 46 46" fill="none" xmlns="http://www.w3.org/2000/svg">
<path fill-rule="evenodd" clip-rule="evenodd" d="M35.1826 0.111533C34.55 0.250823 33.9213 0.493391 33.2967 0.839326C31.8782 1.62478 31.4207 2.06501 15.625 17.843C-1.39855 34.8474 -0.278483 33.6545 0.22695 34.2421C0.390757 34.4326 0.5287 34.5 0.752499 34.4991C1.14091 34.4974 3.61446 33.7057 5.41167 33.0077C6.93057 32.4179 10.0849 30.9081 11.4125 30.1354L12.2494 29.6484L13.3049 29.9372C13.8854 30.096 14.7615 30.3091 15.252 30.4106C16.6886 30.7081 19.6498 31.0501 20.8135 31.0529C21.8388 31.0553 21.8347 31.0362 21.0357 32.0876C20.3009 33.0544 20.1612 33.3969 20.2682 33.9679C20.3538 34.424 20.6055 34.6785 22.553 36.2784C23.5226 37.0749 24.3727 37.7782 24.4419 37.8411C24.5497 37.9391 24.5381 38.1379 24.3621 39.2169L24.1563 40.4779L23.8769 40.5259C23.7233 40.5522 22.2033 40.7955 20.4992 41.0665C15.8886 41.7998 7.67417 43.2915 3.37207 44.1768C1.95241 44.469 1.69394 44.5901 1.58788 45.0126C1.51397 45.3069 1.72376 45.7084 2.02757 45.854C2.24464 45.958 2.39165 45.9499 3.10445 45.7938C5.33471 45.3055 12.8466 43.9017 17.0865 43.1808C20.9463 42.5245 28.3479 41.3795 28.7309 41.3795C28.7702 41.3795 28.6517 41.5037 28.4676 41.6555C28.05 41.9996 28.0062 42.4286 28.3532 42.7756C29.0051 43.4275 30.3779 42.5207 30.3779 41.4383V41.1494L31.6128 40.9945C32.292 40.9094 32.9274 40.8399 33.0248 40.8401C33.1837 40.8406 33.179 40.8565 32.9799 40.9937C32.4386 41.3668 32.3709 41.8556 32.8096 42.2247C33.1531 42.5138 33.3225 42.5154 33.8755 42.2352C34.4242 41.9571 34.7053 41.5711 34.7579 41.023L34.7986 40.5996L35.822 40.4993L36.8455 40.3991L40.8529 42.7378C43.0569 44.0242 44.9893 45.0976 45.1472 45.1232C45.5749 45.1926 45.954 44.8416 45.9412 44.3881C45.9355 44.1889 45.8639 43.9849 45.7659 43.8895C45.6747 43.8007 44.2342 42.9323 42.5647 41.9596C40.8952 40.9869 39.5419 40.1784 39.5574 40.163C39.581 40.1394 42.1418 39.9492 44.1919 39.8188C44.627 39.7911 44.8103 39.7348 44.9777 39.5775C45.2801 39.2935 45.2772 38.7929 44.9714 38.5056C44.7716 38.3179 44.6701 38.2965 44.0509 38.3109C42.3292 38.3513 35.9029 38.9026 33.9604 39.1766C33.6472 39.2207 33.5312 39.1361 30.5029 36.6525C28.7795 35.2391 27.2537 33.9855 27.1122 33.8666L26.8549 33.6505L27.3816 32.9588C27.6713 32.5784 28.2459 31.8623 28.6587 31.3676C29.0714 30.8728 29.4554 30.4036 29.5118 30.3249C29.5683 30.2461 29.8369 30.1088 30.1085 30.0198C34.2401 28.6659 37.8332 24.2607 38.8249 19.3332C38.9277 18.8223 39.0432 17.724 39.0922 16.7901C39.1398 15.886 39.2383 14.8555 39.3112 14.5C39.4991 13.584 40.1844 12.2601 41.2386 10.7771C41.7339 10.0803 42.226 9.31546 42.3321 9.07748C42.4383 8.83958 42.5538 8.58435 42.589 8.51026C42.6241 8.43617 43.3337 7.85018 44.1659 7.20806C45.7513 5.98471 45.9991 5.69356 46 5.0527C46.0008 4.46635 45.5452 3.83357 44.9715 3.62441C44.8173 3.56819 41.4137 2.85243 41.3006 2.85243C41.2783 2.85243 41.0504 2.58894 40.7941 2.26689C39.4227 0.543503 37.163 -0.324479 35.1826 0.111533ZM37.3061 1.68468C37.9309 1.88099 38.5625 2.21139 38.6142 2.36891C38.6332 2.42666 38.4839 2.495 38.262 2.53012C37.6462 2.62756 35.8538 3.25549 35.0779 3.64561C33.3439 4.51745 31.4484 6.10919 30.4402 7.54017C29.9532 8.23132 29.3932 9.25835 29.1622 9.88412C29.0415 10.211 28.9686 10.3015 28.8598 10.2593C28.3458 10.0599 27.6046 9.92355 26.8081 9.88188C26.3019 9.85547 25.8876 9.80473 25.8876 9.76917C25.8876 9.63805 31.9755 3.68404 32.7129 3.09401C33.1328 2.75805 33.8067 2.31862 34.2104 2.11764C35.4602 1.49536 36.3206 1.37502 37.3061 1.68468ZM40.4911 4.69015C40.9842 5.73128 41.1842 6.61399 41.1328 7.52238C41.0875 8.324 41.0082 8.48556 39.9 10.037C39.4589 10.6544 38.9132 11.5101 38.6871 11.9384C37.9001 13.4296 37.6895 14.309 37.5627 16.6327C37.4711 18.3138 37.3308 19.2403 37.0112 20.2749C36.8218 20.8885 36.3172 22.1552 36.2137 22.2774C36.1561 22.3453 34.7887 21.6127 34.3473 21.2774L34.1408 21.1205L34.382 20.2262C34.8246 18.5856 34.784 16.445 34.2825 14.9702C33.6775 13.1918 32.7459 12.0933 31.1553 11.2833C30.3381 10.8671 30.3424 10.8909 30.8891 9.81246C32.363 6.90496 35.2799 4.73873 38.6851 4.02289C40.09 3.72751 40.0234 3.7029 40.4911 4.69015ZM44.3829 5.08799C44.3765 5.16208 42.7811 6.3549 42.6884 6.3549C42.6478 6.3549 42.5881 6.18893 42.5556 5.98597C42.5232 5.7831 42.417 5.39046 42.3196 5.1135C42.2223 4.83653 42.1426 4.60438 42.1426 4.59756C42.1426 4.59082 42.6478 4.68611 43.2652 4.80932C43.8826 4.93263 44.3856 5.058 44.3829 5.08799ZM38.0345 5.50488C37.6738 5.65647 37.502 6.08206 37.6537 6.44812C37.787 6.76989 37.9857 6.89374 38.3689 6.89374C38.9686 6.89374 39.2912 6.18678 38.9116 5.70434C38.6952 5.42917 38.3832 5.35822 38.0345 5.50488ZM28.3854 11.7303C28.8454 11.8847 29.669 12.2399 30.2157 12.5195C31.7466 13.3026 32.4013 14.075 32.9068 15.6948C33.0916 16.2869 33.1165 16.5421 33.1124 17.8053C33.108 19.1333 33.0885 19.3 32.8548 20.0055C31.7049 23.4775 29.1497 25.3532 24.8964 25.8477C23.7141 25.9851 20.8943 25.9106 19.6011 25.7076C17.6063 25.3946 15.0371 24.7007 13.0945 23.9505C12.5735 23.7492 12.1472 23.5558 12.1472 23.5208C12.1472 23.4858 14.6628 20.949 17.7376 17.8837C23.6062 12.0329 23.7128 11.9384 24.8892 11.5499C25.2978 11.4149 25.5984 11.3895 26.4713 11.4162C27.3856 11.4443 27.6758 11.4919 28.3854 11.7303ZM34.2396 23.0166C34.4125 23.1248 34.7459 23.3217 34.9805 23.4543C35.2152 23.5867 35.4071 23.7165 35.4071 23.7426C35.4071 23.8937 34.4346 25.1109 33.7134 25.8626C31.8737 27.7799 30.1909 28.6264 27.0551 29.2118C24.6354 29.6635 20.7378 29.6605 17.356 29.2042C16.2404 29.0536 14.2068 28.6445 14.1056 28.5503C14.0713 28.5184 14.3946 28.2409 14.824 27.9337C15.2534 27.6265 15.8086 27.2132 16.0577 27.0154L16.5108 26.6557L17.2252 26.8237C19.0551 27.2542 20.9758 27.4729 22.924 27.4727C26.4005 27.4723 29.0852 26.717 31.088 25.1759C31.7335 24.6792 32.7115 23.6427 33.1313 23.0103L33.4587 22.5173L33.692 22.6686C33.8203 22.7518 34.0668 22.9084 34.2396 23.0166ZM11.9767 25.1555C12.4903 25.3701 13.3081 25.6777 13.7941 25.8391C14.28 26.0005 14.6437 26.1626 14.6023 26.1993C13.7674 26.9408 10.5562 28.9293 8.66726 29.8743C7.19936 30.6087 3.86637 32.0396 3.62344 32.0396C3.59488 32.0396 5.20781 30.4029 7.20781 28.4024C9.2078 26.402 10.8889 24.7653 10.9436 24.7653C10.9982 24.7653 11.4632 24.9408 11.9767 25.1555ZM26.3815 31.7477C25.4969 32.8673 25.3488 33.1408 25.3488 33.6561C25.3488 34.3267 25.5397 34.5582 27.2485 35.96C28.5617 37.0372 28.8538 37.3178 28.8187 37.468C28.795 37.5695 28.7263 37.9669 28.666 38.3511C28.6057 38.7353 28.5272 39.0677 28.4916 39.0897C28.4561 39.1116 26.9273 37.896 25.0943 36.3883L21.7617 33.6469L22.4013 32.8208C22.7531 32.3664 23.2145 31.7887 23.4267 31.537L23.8124 31.0792L24.8725 31.0133C25.4555 30.977 26.1144 30.9152 26.3366 30.8761C27.2118 30.7217 27.2106 30.6986 26.3815 31.7477ZM31.3691 39.3629C31.4413 39.4498 31.335 39.4888 30.8977 39.5357C30.5871 39.569 30.2571 39.618 30.1642 39.6445C30.0098 39.6885 30.0008 39.6554 30.0584 39.2564C30.1905 38.3412 30.15 38.3661 30.7465 38.8347C31.0378 39.0635 31.3179 39.3011 31.3691 39.3629ZM26.5412 39.5564C27.1239 40.0294 27.1092 40.0666 26.3009 40.1643L25.7711 40.2283L25.8294 39.8035C25.8614 39.5698 25.8876 39.3238 25.8876 39.2565C25.8876 39.0619 25.9895 39.1086 26.5412 39.5564Z" fill="white"/>
</svg>
