<svg width="46" height="43" viewBox="0 0 46 43" fill="none" xmlns="http://www.w3.org/2000/svg">
<path fill-rule="evenodd" clip-rule="evenodd" d="M33.9945 0.103C32.8927 0.413937 31.8609 1.19222 31.3474 2.0996C31.1031 2.53117 31.0357 2.58348 30.4371 2.80633C28.4822 3.53391 25.3427 5.12096 24.9141 5.59829C24.4623 6.10142 24.7704 6.9331 25.4487 7.04106C25.7397 7.08735 25.8966 7.02676 26.7072 6.55447C28.2672 5.64557 29.7894 4.94001 31.4392 4.36092C31.8674 4.21071 32.2895 4.02392 32.3772 3.94598C32.4648 3.86804 32.6433 3.56637 32.7738 3.27547C33.2207 2.27974 34.1836 1.69751 35.227 1.79207C35.8289 1.84664 36.1912 2.01375 36.7928 2.51382C37.1091 2.77684 37.3112 2.87761 37.5119 2.87267C37.6655 2.86889 38.6406 2.8368 39.6789 2.80138C41.4886 2.73954 41.5881 2.74502 42.0866 2.93442C42.8129 3.21039 43.5761 3.93429 43.9104 4.66449C44.134 5.1526 44.1691 5.33886 44.1699 6.03822C44.1712 7.44917 44.3568 7.21167 39.0206 12.6311C35.063 16.6504 34.2342 17.5376 33.5284 18.5108C33.0712 19.1411 32.6842 19.6569 32.6683 19.6569C32.6524 19.6569 32.5378 19.4836 32.4137 19.2718C32.086 18.7127 31.3535 18.0666 30.7009 17.7611C29.6466 17.2679 28.395 17.3172 27.3732 17.8921C26.7089 18.266 22.2064 22.6418 21.7323 23.3743C21.018 24.4779 20.7778 25.762 21.0608 26.9625C21.2607 27.8104 21.4271 28.1059 22.7635 29.9867L23.9396 31.6418L23.2883 32.2519C22.9301 32.5875 22.3655 33.0417 22.0338 33.2613C21.4924 33.6197 20.223 34.3093 20.1048 34.3093C20.0792 34.3093 20.1553 34.0692 20.2738 33.7758C20.6828 32.7634 20.7568 31.9238 20.532 30.8485C20.3433 29.9458 19.8331 28.9942 19.1852 28.3367C18.1557 27.2919 17.193 26.9016 15.3099 26.7657C13.834 26.6593 12.8921 26.4366 11.8869 25.956C11.2112 25.633 9.85892 24.7867 9.76004 24.6249C9.69811 24.5236 10.5821 22.5247 11.2281 21.3053C13.0898 17.791 15.7044 14.5443 18.7789 11.929C19.6022 11.2287 19.7596 11.0247 19.7646 10.6521C19.7686 10.3432 19.3856 9.88767 19.0618 9.81657C18.6722 9.73099 18.4203 9.87365 17.3709 10.7733C13.7414 13.8851 10.7066 17.9349 8.76053 22.2638L8.21488 23.4773L7.57494 23.1569C7.22292 22.9807 6.69741 22.782 6.40715 22.7151C5.77063 22.5687 4.60769 22.5655 3.99166 22.7087C2.54026 23.0459 1.16869 24.1596 0.536385 25.5143C-0.0456671 26.7611 -0.13493 27.6789 0.176367 29.2163C1.46039 35.5582 6.58415 40.3341 13.0238 41.1915C14.2681 41.3571 15.2212 41.3534 15.8035 41.1804L16.2766 41.0399L17.3437 41.6299C18.5702 42.308 18.8381 42.3543 19.2353 41.9571C19.4374 41.755 19.4981 41.612 19.4981 41.3378C19.4981 40.8595 19.3258 40.6723 18.4241 40.1705C18.0065 39.938 17.6626 39.7073 17.66 39.6579C17.6571 39.6011 18.4154 39.5591 19.7196 39.5438L21.7841 39.5196L22.0344 39.2798C22.513 38.8213 22.3063 37.9943 21.6687 37.8173C21.4884 37.7672 20.5672 37.726 19.6217 37.7258L17.9025 37.7252L17.8485 37.478C17.8188 37.3421 17.7705 37.1473 17.7412 37.0452C17.693 36.8774 17.7466 36.8489 18.3009 36.7479C20.3567 36.3732 22.7906 35.1522 24.3387 33.719C24.696 33.3882 25.0018 33.1329 25.0182 33.1516C25.0347 33.1704 25.5545 33.8941 26.1732 34.76C27.3474 36.4033 28.1907 37.3047 29.1444 37.9357C31.2206 39.3096 34.117 39.8673 35.5346 39.1664L35.885 38.9931L37.1077 39.5815C37.7802 39.905 38.4465 40.2049 38.5883 40.2477C38.968 40.3625 39.4175 40.1453 39.6022 39.7579C39.735 39.4794 39.7377 39.4045 39.6256 39.1013C39.5078 38.7827 39.4165 38.7185 38.3064 38.1747C37.6503 37.8533 37.1043 37.5499 37.0928 37.5005C37.0796 37.4437 37.7949 37.3941 39.0347 37.3656L40.9974 37.3207L41.2696 37.0158C41.5061 36.7511 41.5354 36.6623 41.4923 36.3418C41.4594 36.0961 41.3642 35.9049 41.2076 35.7702C40.9794 35.5739 40.9141 35.5678 39.0542 35.5678C37.5046 35.5678 37.127 35.5439 37.0884 35.4435C37.0576 35.3632 37.1638 35.2638 37.3886 35.1624C37.9155 34.9248 38.1466 34.633 38.1466 34.2051C38.1466 33.9085 38.0929 33.7934 37.855 33.581C37.4782 33.2443 37.167 33.2472 36.4798 33.5942L35.9375 33.8678L35.3811 33.65C35.0751 33.5302 34.5213 33.4063 34.1505 33.3746C33.3715 33.3082 32.7215 33.0313 32.2912 32.5828C31.8474 32.1199 29.0994 27.8318 29.1545 27.688C29.1813 27.6179 30.6869 25.5092 32.5002 23.002L35.797 18.4433L40.3139 13.881C42.7981 11.3716 44.9822 9.09024 45.1674 8.81121C47.0373 5.99399 45.6125 2.12378 42.3414 1.13514C41.7197 0.947267 41.557 0.937469 39.7608 0.978909L37.8438 1.02314L37.4212 0.722717C37.1888 0.557405 36.7724 0.337529 36.496 0.234063C35.8337 -0.01377 34.6315 -0.0767843 33.9945 0.103ZM34.4994 4.76364C33.2581 5.22757 32.5898 6.17297 32.5818 7.4765C32.578 8.08758 32.6152 8.27267 32.8291 8.70829C33.6856 10.4523 35.9074 10.8841 37.3309 9.58321C37.9937 8.97743 38.2354 8.4165 38.2383 7.4765C38.2402 6.86927 38.2017 6.67816 37.9907 6.24848C37.714 5.68503 37.2362 5.20591 36.649 4.90297C36.1678 4.65469 34.9946 4.57864 34.4994 4.76364ZM35.9513 6.5791C37.0332 7.13859 36.2907 8.8291 35.1066 8.50217C34.5264 8.34198 34.2295 7.76271 34.4132 7.14947C34.5976 6.53416 35.3354 6.26061 35.9513 6.5791ZM21.7798 7.57385C20.7292 8.09217 21.5235 9.61332 22.5908 9.12701C22.8003 9.03163 23.0937 8.56932 23.0937 8.33488C23.0937 8.10772 22.8062 7.69664 22.5574 7.56792C22.2309 7.3991 22.1325 7.39982 21.7798 7.57385ZM29.7528 19.31C30.2225 19.4508 30.7247 19.8858 30.924 20.3247C31.1282 20.7743 31.1422 21.5252 30.9547 21.9745C30.8646 22.1904 30.0693 23.0571 28.7074 24.4236C26.6622 26.4757 26.5995 26.5491 26.601 26.8956C26.6021 27.2074 26.8536 27.6412 28.5793 30.3091C29.6667 31.9901 30.7438 33.5571 30.973 33.7914C31.785 34.6214 32.6718 35.034 33.9258 35.1651C34.2718 35.2012 34.668 35.2884 34.8062 35.3587C35.1734 35.5457 35.4083 35.987 35.4086 36.4905C35.4089 36.8489 35.3612 36.9708 35.1168 37.2369C34.7397 37.6474 34.3357 37.7382 33.3726 37.6288C31.7967 37.4497 30.229 36.6928 29.1142 35.5728C28.3252 34.7802 23.2211 27.6221 22.9286 26.8978C22.7522 26.4611 22.7205 26.2551 22.7558 25.7741C22.8342 24.7083 22.9689 24.5264 25.5873 21.9491C28.4195 19.1612 28.6882 18.9911 29.7528 19.31ZM6.46369 24.6355C6.73562 24.7451 7.634 25.3233 8.46011 25.9204C9.28622 26.5175 10.3177 27.1879 10.7524 27.4102C12.1116 28.1053 13.8216 28.5562 15.0988 28.5562C16.3266 28.5562 17.0671 28.8267 17.8397 29.5574C18.6937 30.365 19.0336 31.5467 18.7414 32.6926C18.4459 33.8517 17.6517 34.6826 16.4965 35.0412C15.9414 35.2134 15.7406 35.2281 14.5638 35.1823C12.6052 35.1058 11.1561 34.673 9.69496 33.7282C8.65086 33.053 8.33121 32.7571 6.80439 31.0516C6.01909 30.1745 5.30022 29.4161 5.20691 29.3661C4.64221 29.0639 3.94671 29.5059 3.94671 30.1671C3.94671 30.5044 4.02285 30.6199 4.91306 31.6339C7.21286 34.2535 8.05119 34.9704 9.83465 35.8428C11.3731 36.5953 13.0463 37.0037 14.5989 37.0059C15.0675 37.0065 15.303 37.0524 15.5211 37.1854C16.4246 37.7362 16.366 38.9125 15.4106 39.4093C14.8755 39.6876 12.325 39.3797 10.6886 38.8393C9.67267 38.5039 8.13443 37.7222 7.2311 37.0824C6.20184 36.3534 4.87045 35.0222 4.13944 33.9914C3.10757 32.5364 2.25602 30.5471 1.93061 28.8318C1.75227 27.8917 1.75263 27.4558 1.93205 26.8421C2.50493 24.8829 4.57578 23.8745 6.46369 24.6355Z" fill="white"/>
</svg>
