<svg width="46" height="47" viewBox="0 0 46 47" fill="none" xmlns="http://www.w3.org/2000/svg">
<path fill-rule="evenodd" clip-rule="evenodd" d="M31.7442 0.0929311C31.3704 0.13636 30.6561 0.275182 30.1566 0.401384C24.1985 1.90755 20.0424 7.25343 20.0362 13.4188L20.0354 14.1811L19.6057 13.9969C18.2884 13.4322 16.3506 13.2203 14.8713 13.4791C11.3337 14.0981 8.51425 16.7134 7.69728 20.1339C7.5978 20.5506 7.49647 20.9114 7.47215 20.9357C7.44784 20.96 7.21427 20.934 6.95305 20.8781C5.81129 20.6332 4.46919 20.8353 3.23936 21.4374C1.73783 22.1724 0.517198 23.7007 0.135992 25.3232C-0.0453308 26.095 -0.0453308 27.3353 0.135992 28.1071C0.60025 30.083 2.2084 31.7683 4.26012 32.4295C4.68252 32.5655 5.24626 32.6031 7.53117 32.6472L10.2918 32.7005L7.73996 35.8904C4.98253 39.3373 4.95321 39.3873 5.41589 39.8499L5.64361 40.0777H8.19977C9.60562 40.0777 10.7558 40.1063 10.7558 40.1412C10.7558 40.1761 10.3382 41.3167 9.82787 42.676C9.31749 44.0353 8.89991 45.2404 8.89991 45.3543C8.89991 45.4681 9.00245 45.6636 9.12772 45.7888C9.43775 46.0989 9.84207 46.0885 10.1868 45.7615C10.3347 45.6211 12.0758 43.7316 14.0558 41.5625C16.0358 39.3934 17.8571 37.4019 18.1032 37.137C18.6295 36.5706 18.6897 36.2181 18.3229 35.8513L18.0951 35.6235H15.7661H13.437L14.6715 34.1445L15.906 32.6656L20.569 32.6598L25.232 32.6541V34.1388V35.6235H25.9743H26.7167V34.1388V32.6541L28.503 32.6525C30.6204 32.6505 31.2426 32.5435 32.3619 31.9891C34.1459 31.1054 35.394 29.2704 35.5984 27.2306L35.6715 26.501L36.4603 26.2915C40.4209 25.2398 43.7395 22.5352 45.5882 18.8525C46.0778 17.8774 46.112 17.6136 45.7904 17.2922C45.4967 16.9984 45.3051 17.0051 44.2474 17.3462C42.8917 17.7833 42.2887 17.8607 41.2224 17.7343C38.7602 17.4426 36.6169 16.4096 34.9291 14.7014C32.0052 11.7421 31.1178 7.29045 32.6931 3.4849C33.02 2.69548 33.4853 1.85178 33.9017 1.29427C34.2046 0.888655 34.2084 0.513482 33.9126 0.217742C33.7123 0.0173953 33.6088 -0.0085875 33.0542 0.00199122C32.7074 0.00857973 32.1179 0.0495026 31.7442 0.0929311ZM31.9133 1.61655C31.9133 1.64346 31.7858 1.91823 31.6299 2.22696C30.8148 3.8416 30.3654 6.03168 30.4611 7.92397C30.6186 11.0415 31.7403 13.5684 33.946 15.774C35.7133 17.5413 37.6111 18.5679 40.0329 19.0667C41.0018 19.2663 43.1213 19.3022 43.536 19.1261C43.6763 19.0664 43.7911 19.0411 43.7911 19.0698C43.7911 19.2767 42.6505 20.7149 41.8443 21.5245C40.3521 23.0228 38.7326 24.0236 36.7624 24.6647C35.3342 25.1295 35.4331 25.1445 35.1377 24.4192C34.4481 22.7265 32.8707 21.3891 31.0628 20.9642L30.4035 20.8093L30.246 20.3055C30.0011 19.5223 29.7071 19.0212 29.1489 18.436C27.9652 17.195 26.0469 16.7413 24.4896 17.334C24.2089 17.4408 23.9548 17.5282 23.925 17.5282C23.8953 17.5283 23.7122 17.2979 23.5182 17.0163C23.3242 16.7346 22.8136 16.1711 22.3835 15.764L21.6016 15.0238L21.549 13.8866C21.398 10.6216 22.5797 7.50797 24.867 5.14362C26.5616 3.39201 28.5843 2.25359 30.8925 1.75249C31.7611 1.56393 31.9133 1.5437 31.9133 1.61655ZM18.0487 15.0219C20.0827 15.5337 21.7262 16.7919 22.8239 18.6779C23.2473 19.4051 23.5095 19.5177 24.0572 19.207C25.0974 18.617 25.1566 18.5982 25.9743 18.5982C26.6541 18.5981 26.83 18.6332 27.2472 18.852C28.0061 19.25 28.5628 19.8953 28.7941 20.6451C28.8476 20.8181 28.7968 20.8515 28.3189 20.9575C26.6335 21.3314 25.1409 22.5381 24.3489 24.1672C24.037 24.8086 23.7472 25.9048 23.7472 26.4428V26.7151H24.4691H25.1909L25.292 26.073C25.5705 24.3047 26.8857 22.8555 28.6229 22.403C30.945 21.7982 33.3775 23.2684 33.9983 25.6519C34.6048 27.9805 33.1334 30.4064 30.7354 31.0309C30.28 31.1496 28.7514 31.1693 20.0516 31.1693H9.89904L10.2167 30.8177C10.6804 30.3046 11.1088 29.656 11.361 29.0858L11.5825 28.585L10.8744 28.3469C10.485 28.2159 10.1632 28.1188 10.1595 28.1311C10.1557 28.1434 10.0145 28.4314 9.8455 28.771C9.30617 29.8554 8.22779 30.7058 6.97969 31.0309C4.67213 31.6319 2.23735 30.1549 1.61831 27.7784C0.867688 24.8965 3.30265 22.043 6.30163 22.2901C7.3518 22.3766 7.3724 22.3951 7.49647 23.3625C7.58212 24.03 7.90801 25.3707 8.0125 25.4854C8.04155 25.5173 9.20976 25.0429 9.28872 24.967C9.32399 24.9333 9.26859 24.6133 9.16558 24.256C8.75339 22.8257 8.85565 20.8243 9.41057 19.4584C10.3102 17.2444 12.3946 15.4747 14.6913 14.975C15.5795 14.7817 17.183 14.8041 18.0487 15.0219ZM34.1404 35.2523V38.593H34.8827H35.6251V35.2523V31.9117H34.8827H34.1404V35.2523ZM12.565 34.3698C11.026 36.2058 10.9344 36.3857 11.3043 36.8428C11.4799 37.0599 11.5021 37.0622 13.7836 37.1083L16.0857 37.1547L13.9311 39.4991C12.7461 40.7885 11.7766 41.8053 11.7766 41.7584C11.7766 41.7117 11.9644 41.1786 12.194 40.5739C12.6624 39.3399 12.6863 39.1697 12.4345 38.8585C12.2585 38.641 12.2404 38.639 9.8829 38.593L7.50844 38.5466L9.85135 35.6051L12.1942 32.6635L13.0986 32.6588L14.0029 32.6541L12.565 34.3698ZM29.6862 38.9642V43.7896H30.4285H31.1709V38.9642V34.1388H30.4285H29.6862V38.9642Z" fill="white"/>
</svg>
