<svg width="42" height="46" viewBox="0 0 42 46" fill="none" xmlns="http://www.w3.org/2000/svg">
<path fill-rule="evenodd" clip-rule="evenodd" d="M21.9679 0.0934919C18.9416 0.408966 15.7026 1.72316 13.1623 3.6665C12.3915 4.25612 11.0315 5.58747 10.3963 6.37423C8.15782 9.14701 6.85046 12.4385 6.5464 16.0673C6.2621 19.4614 7.14536 23.19 8.94278 26.1826L9.5288 27.1582L9.24109 28.0203C9.08295 28.4945 8.62515 30.0987 8.22387 31.5852L7.49426 34.2881L6.0399 36.134C5.23993 37.1493 4.54411 38.0888 4.49352 38.2218C4.35722 38.5802 4.38211 39.3216 4.54079 39.6283C4.67485 39.8877 4.67017 39.9096 4.41194 40.2304C4.26458 40.4136 3.23154 41.4728 2.11637 42.5843C-0.0495407 44.743 -0.149547 44.8853 0.0909894 45.4661C0.327842 46.0378 -0.94286 45.9995 17.7493 45.9995H34.7899L35.0954 45.694C35.269 45.5204 35.4011 45.2974 35.4013 45.1773C35.4015 45.0611 35.5223 43.2881 35.67 41.2372C35.8176 39.1863 35.9387 37.316 35.9392 37.0807C35.94 36.6874 35.9007 36.6104 35.4501 36.1202C34.9056 35.5279 34.535 34.87 34.4523 34.3485C34.4061 34.058 34.448 33.9205 34.7195 33.4703C35.3317 32.4552 35.6957 31.1156 35.5204 30.5229C35.4357 30.2368 35.454 30.2089 36.3384 29.2802C37.528 28.0307 38.3661 26.8564 38.3661 26.439C38.3661 26.036 38.2413 25.8155 37.9186 25.6486C37.3348 25.3467 37.0613 25.4903 36.3276 26.4843C35.8239 27.1667 33.9116 29.1969 33.7726 29.1969C33.7332 29.1969 33.6551 29.0439 33.5991 28.8569C33.5124 28.5677 33.5447 28.2563 33.8153 26.7678C34.3037 24.0828 34.8654 22.6163 36.1206 20.7496C37.0775 19.3264 37.3514 18.4598 37.2645 17.1304C37.1776 15.8003 36.4914 14.4168 35.6841 13.9436C35.1423 13.6262 34.4311 13.6075 33.9389 13.8978C33.7548 14.0065 32.8739 14.6874 31.9814 15.4111C31.0889 16.1347 30.3473 16.7123 30.3336 16.6946C30.3197 16.6769 30.2238 15.3483 30.1203 13.7422C29.9136 10.5351 29.8574 10.2407 29.2975 9.42717C28.9046 8.85633 28.1474 8.30409 26.8381 7.6337C26.0218 7.2157 25.9106 7.18291 25.3106 7.183C24.523 7.18308 23.7469 7.50799 23.2892 8.02923C23.1268 8.21424 22.0739 10.2059 20.9406 12.4722C19.2329 15.8871 18.8251 16.6353 18.5232 16.9081C18.3228 17.0891 17.3824 17.6267 16.4249 18.1077C14.7213 18.9634 14.6751 18.9941 13.8811 19.8016C13.1307 20.5647 12.9791 20.7872 11.778 22.8887C10.2914 25.4896 10.5065 25.3834 9.79423 23.8681C9.29348 22.8029 8.89157 21.591 8.623 20.3369C8.37824 19.1938 8.28524 16.7371 8.43916 15.4795C8.87863 11.8883 10.4655 8.71436 13.0827 6.19209C18.6193 0.856255 27.1265 0.369251 33.2585 5.03712C36.1438 7.23349 38.2487 10.6094 38.9953 14.2375C39.246 15.4562 39.3749 17.0439 39.3034 18.0331C39.2608 18.6203 39.2765 18.945 39.3565 19.138C39.4785 19.4329 39.8489 19.6727 40.1811 19.6721C40.4988 19.6717 40.9591 19.347 41.0368 19.0688C41.0752 18.9313 41.104 18.0709 41.1008 17.1566C41.0935 15.0832 40.862 13.6784 40.1974 11.6756C39.8524 10.6356 38.6153 8.22152 37.9414 7.27276C37.1425 6.14816 34.9773 3.98422 33.8937 3.22757C30.3603 0.760112 26.1606 -0.343554 21.9679 0.0934919ZM26.0213 9.25519L26.5023 9.5305L26.2363 10.0574C25.7973 10.9273 25.3816 11.0629 24.4923 10.6267L24.0027 10.3866L24.2624 9.87212C24.7349 8.93594 25.1864 8.77762 26.0213 9.25519ZM28.3071 14.036C28.4109 15.6288 28.5373 17.093 28.588 17.2899C28.7646 17.9755 29.6219 18.6013 30.3692 18.5899C30.8601 18.5823 31.3145 18.2973 33.0149 16.9302C34.4344 15.7889 34.8037 15.5319 34.8754 15.6351C35.256 16.1829 35.4397 16.7781 35.442 17.4711C35.4448 18.3116 35.3167 18.6473 34.5572 19.7886C33.5844 21.2507 32.8407 22.8655 32.4456 24.3739C32.3449 24.7584 32.1356 25.7683 31.9804 26.6182C31.6635 28.3545 31.66 29.0638 31.965 29.7533C32.1952 30.2737 32.8117 30.9529 33.2629 31.1831C33.4615 31.2845 33.6031 31.4219 33.6019 31.5124C33.5988 31.7615 33.2986 32.351 32.9302 32.8314C32.5163 33.3715 32.4577 33.7536 32.6495 34.6625C32.828 35.5083 33.1057 36.1056 33.6607 36.837L34.1057 37.4237L33.8604 40.7906C33.7255 42.6424 33.6126 44.1676 33.6095 44.1799C33.5934 44.2444 28.4822 44.1907 28.4822 44.1261C28.4822 44.0842 29.0888 42.5793 29.83 40.782C31.2699 37.2908 31.341 37.0322 30.9757 36.6118C30.8072 36.4179 30.5921 36.3425 29.6852 36.1594C26.8816 35.5932 24.6565 34.3803 22.7194 32.3621C20.9703 30.5399 19.82 28.347 19.3621 25.9622C19.1624 24.9222 19.0677 24.7109 18.7289 24.5494C18.0926 24.2459 17.4303 24.6539 17.4303 25.3491C17.4303 26.3692 18.1172 28.5952 18.9213 30.1809C20.7612 33.8091 24.2497 36.6468 28.155 37.6919C28.5948 37.8096 28.9682 37.9194 28.9846 37.9359C29.0231 37.9742 26.5225 44.0416 26.4303 44.1338C26.3922 44.1719 21.1386 44.1928 14.7555 44.1803L3.14986 44.1575L4.45048 42.7943L5.7512 41.4311L6.26696 41.7417C7.29937 42.3634 8.19233 42.4627 9.44578 42.0953C11.4681 41.5023 14.0908 40.5837 14.841 40.2054C16.733 39.2513 18.3578 37.7326 19.4051 35.9393C19.912 35.0715 19.8662 34.5515 19.2558 34.2392C18.7586 33.985 18.3257 34.1955 17.905 34.896C16.9358 36.5096 15.555 37.8126 13.971 38.6081C13.4217 38.884 9.77473 40.1228 8.71456 40.3937C7.74324 40.6419 7.12487 40.3575 6.49518 39.3732L6.18977 38.8958L8.16097 36.4014C9.24514 35.0296 10.3807 33.6771 10.6844 33.3959C11.3088 32.8178 12.2442 32.3285 13.1187 32.1224C13.9675 31.9224 14.0159 31.9307 14.0159 32.278C14.0159 32.6783 13.7883 33.5246 13.5607 33.9708C13.2554 34.5692 12.6953 35.1012 12.009 35.4445C11.2234 35.8375 11.0686 35.9737 11.0016 36.3311C10.8912 36.9194 11.3212 37.4168 11.9255 37.3996C12.3531 37.3876 13.4221 36.8406 13.9815 36.3479C14.5927 35.8095 15.2275 34.8634 15.4951 34.0919C15.7142 33.4606 15.9028 32.0614 15.9028 31.0674C15.9028 30.5892 15.8731 30.5011 15.6289 30.2571C15.3594 29.9875 15.3452 29.9842 14.7079 30.0461C12.9365 30.2185 11.9962 30.4649 10.8841 31.0485C10.4711 31.2653 10.1533 31.3904 10.1777 31.3268C10.2021 31.2631 10.3511 30.7275 10.5087 30.1366C11.0858 27.9734 11.6025 26.8288 13.3872 23.7608C14.699 21.5058 14.9478 21.1541 15.565 20.6821C16.0201 20.3341 17.8796 19.3468 17.8796 19.4532C17.8796 19.4818 17.7759 19.9144 17.6491 20.4145C17.3942 21.42 17.3579 21.8851 17.5118 22.1727C17.7904 22.6934 18.7717 22.704 19.0471 22.1894C19.0985 22.0934 19.2848 21.441 19.461 20.7398C19.964 18.7386 20.2134 18.1145 21.7597 14.989L23.2098 12.0576L23.8917 12.3832C24.4937 12.6707 24.6526 12.7082 25.2475 12.7038C26.3409 12.6958 27.035 12.2897 27.645 11.3013C27.9403 10.823 27.9863 10.7831 28.0483 10.9508C28.0869 11.0549 28.2033 12.4433 28.3071 14.036ZM38.8471 22.002C37.9415 22.5542 38.5869 23.9535 39.5938 23.6212C39.9163 23.5147 40.252 23.0914 40.2526 22.7904C40.2533 22.511 39.9909 22.107 39.7169 21.9653C39.3703 21.786 39.1887 21.7937 38.8471 22.002Z" fill="white"/>
</svg>
