<svg width="35" height="46" viewBox="0 0 35 46" fill="none" xmlns="http://www.w3.org/2000/svg">
<path fill-rule="evenodd" clip-rule="evenodd" d="M7.86434 0.162058C7.69215 0.253721 7.45859 0.486205 7.34527 0.678789C7.10829 1.08166 7.11584 1.33868 7.40395 2.67463C7.70249 4.05884 7.80197 5.42382 7.75111 7.43934C7.70213 9.38028 7.58755 10.2468 7.17911 11.7679C6.65159 13.7321 5.93671 15.1675 4.42003 17.3077C1.97315 20.7605 0.758609 23.2649 0.207189 25.994C-0.070138 27.3668 -0.06888 29.9027 0.209885 31.4487C0.701903 34.177 1.83071 36.7876 3.47401 38.9974C4.25755 40.0512 5.93095 41.7111 7.03281 42.5276C11.6502 45.9496 17.573 46.9085 22.978 45.1091C25.6279 44.227 27.8498 42.8478 29.8425 40.8478C32.4552 38.2255 34.0917 35.094 34.7546 31.4487C35.0091 30.0491 35.0298 27.0595 34.7961 25.4725C34.3299 22.3077 33.3405 19.258 31.7289 16.0182C30.3697 13.2858 28.5954 10.5461 27.9826 10.2335C27.0763 9.7711 26.1743 10.3196 25.97 11.4576C25.8619 12.0592 25.3209 13.7783 24.9334 14.7517C24.1694 16.6701 23.0368 18.59 22.1687 19.4377L21.8192 19.7789L21.7543 18.9412C21.6078 17.0528 21.1859 15.0538 20.5358 13.1683C19.3995 9.8731 17.6222 7.05552 15.0575 4.48337C13.4169 2.83801 11.4738 1.37831 9.63677 0.411347C8.75536 -0.0526331 8.36975 -0.106822 7.86434 0.162058ZM12.8855 6.14724C14.6429 7.85614 15.9376 9.58454 16.9045 11.5127C18.4324 14.5592 19.0549 17.1888 19.1456 20.9786C19.1808 22.4503 19.2091 22.7157 19.3505 22.9052C19.8743 23.6067 20.5441 23.6858 21.6153 23.1726C23.0494 22.4855 24.3881 21.2367 25.5048 19.5445C26.1642 18.5454 27.1495 16.576 27.5495 15.4578C27.8962 14.4885 27.8162 14.4589 28.5982 15.8475C29.584 17.5979 30.7218 20.232 31.2612 22.0127C32.932 27.5277 32.5767 32.1242 30.1707 36.1217C29.3173 37.5395 27.8848 39.169 26.6703 40.1035C26.3613 40.3412 26.1086 40.5164 26.1086 40.4929C26.1086 40.4694 26.2475 40.0323 26.4172 39.5216C26.9271 37.9871 27.0363 36.6033 26.781 34.9085C26.4257 32.5498 25.4761 30.1788 23.982 27.9204C23.1802 26.7086 22.6247 26.4422 21.7888 26.8687C21.3767 27.0789 21.2175 27.3743 20.8504 28.609C20.7195 29.049 20.509 29.6353 20.3824 29.912L20.1523 30.4152L20.0277 29.9659C19.0456 26.4216 17.2233 23.9966 14.1992 22.2096C13.1895 21.613 12.6013 21.5968 12.0475 22.1505C11.6476 22.5505 11.5864 22.909 11.7607 23.8316C12.0912 25.5817 12.0216 26.9742 11.5288 28.4697C11.3033 29.1545 11.0786 29.5694 10.3149 30.7116C9.29438 32.2382 8.91676 32.9316 8.54364 33.9649C7.88429 35.7906 7.88492 37.5332 8.5457 39.5216C8.71546 40.0323 8.85431 40.4697 8.85431 40.4936C8.85431 40.5976 7.68164 39.6086 7.00108 38.9308C5.04335 36.9809 3.70182 34.5786 3.06018 31.8735C2.44729 29.2901 2.54713 27.0024 3.37471 24.6638C3.99577 22.9088 4.97936 21.2102 7.32954 17.8339C8.73317 15.8174 9.74623 13.2103 10.2644 10.2813C10.3915 9.56333 10.4231 8.86067 10.4248 6.72598L10.427 4.06549L11.1459 4.61017C11.5413 4.9097 12.3241 5.6014 12.8855 6.14724ZM15.7923 27.1351C16.3658 27.8835 17.0614 29.3151 17.299 30.2355C17.5197 31.0905 17.6594 32.2237 17.6605 33.1653C17.6613 33.958 17.8545 34.3478 18.3819 34.6214C19.4698 35.1854 21.5871 33.6594 22.5666 31.6054C22.6548 31.4203 22.7538 31.2689 22.7866 31.2689C22.9208 31.2689 23.6614 33.2434 23.9327 34.3244C24.2282 35.5018 24.2672 37.3366 24.0161 38.2425C23.0482 41.7332 19.6155 43.8833 16.1523 43.1679C13.5141 42.6231 11.4294 40.5384 10.8846 37.9002C10.5015 36.0456 10.9017 34.6404 12.468 32.3417C12.891 31.7209 13.3598 30.9929 13.5096 30.7242C14.0719 29.7151 14.5005 28.1556 14.6529 26.5637L14.712 25.9474L15.0285 26.2492C15.2025 26.4152 15.5463 26.8138 15.7923 27.1351Z" fill="white"/>
</svg>
