<svg width="46" height="46" viewBox="0 0 46 46" fill="none" xmlns="http://www.w3.org/2000/svg">
<path fill-rule="evenodd" clip-rule="evenodd" d="M9.46211 0.238557C9.32415 0.390978 9.07677 1.28725 8.77719 2.7197C8.26111 5.18821 8.27533 5.45532 8.93598 5.68763C9.20677 5.78295 9.3386 5.7571 9.60767 5.55628C9.90957 5.33083 9.98688 5.0973 10.396 3.1739C10.6456 2.00108 10.8533 0.917347 10.8575 0.765783C10.8758 0.115296 9.90541 -0.2513 9.46211 0.238557ZM12.7934 0.214419C12.5758 0.456529 11.6883 4.50808 11.7466 4.99291C11.7673 5.16493 11.9323 5.41574 12.1133 5.55028C12.4004 5.76359 12.4893 5.77548 12.809 5.64303C13.0107 5.55959 13.2109 5.39981 13.254 5.28795C13.4019 4.90506 14.1735 1.09807 14.1735 0.751571C14.1735 0.561289 14.0726 0.314277 13.9494 0.202779C13.656 -0.0626106 13.0369 -0.0564842 12.7934 0.214419ZM16.939 0.275804C16.7252 0.60209 15.8637 4.58551 15.9148 5.01141C15.9985 5.7087 17.0582 5.95338 17.3812 5.34995C17.5569 5.02158 18.3393 1.29644 18.3393 0.788083C18.3393 0.310234 18.0111 0 17.5054 0C17.2406 0 17.0631 0.0863803 16.939 0.275804ZM20.3715 0.160999C20.2113 0.278133 20.0217 0.936217 19.6748 2.58087C19.4128 3.82328 19.1981 4.91118 19.1977 4.99842C19.1966 5.24041 19.7678 5.75869 20.0356 5.75869C20.6381 5.75869 20.7902 5.42738 21.2919 3.02172C21.7811 0.67585 21.7873 0.383382 21.3534 0.0937318C21.138 -0.0501129 20.6108 -0.0139675 20.3715 0.160999ZM24.5436 0.184523C24.3005 0.427613 24.2914 0.461063 23.8054 2.87261C23.5219 4.27981 23.4208 5.03751 23.4916 5.22387C23.7178 5.81861 24.5373 5.898 24.8829 5.35852C25.0394 5.11433 25.9359 1.12331 25.9359 0.671071C25.9359 0.135145 24.9407 -0.212582 24.5436 0.184523ZM27.8594 0.218095C27.6632 0.434842 26.7936 4.31534 26.7936 4.97416C26.7936 5.28047 27.3181 5.75869 27.6542 5.75869C28.224 5.75869 28.374 5.41501 28.846 3.0276C29.2662 0.902276 29.287 0.699987 29.1157 0.393306C28.8771 -0.0334495 28.1757 -0.131347 27.8594 0.218095ZM32.0287 0.214419C31.8249 0.439621 31.082 4.14663 31.082 4.93802C31.082 5.41709 31.4152 5.75869 31.8825 5.75869C32.1377 5.75869 32.6748 5.3508 32.6748 5.15685C32.6748 5.10061 32.8399 4.17922 33.0419 3.10933C33.4707 0.836481 33.4886 0.476746 33.1858 0.202779C32.8926 -0.0626106 32.2738 -0.0563617 32.0287 0.214419ZM35.4432 0.160018C35.2586 0.295041 35.1242 0.815896 34.8012 2.64655C34.5764 3.9202 34.392 5.00614 34.3914 5.05968C34.3887 5.27227 35.0086 5.75869 35.2821 5.75869C35.8875 5.75869 36.0532 5.36171 36.4581 2.94061C36.8286 0.72535 36.8321 0.666905 36.6124 0.367576C36.3502 0.0102921 35.785 -0.0900561 35.4432 0.160018ZM7.92466 7.59657C7.78988 7.73135 7.67936 7.88304 7.679 7.93352C7.67863 7.984 7.4859 8.93516 7.25077 10.0471C7.01564 11.159 6.82291 12.1832 6.82254 12.3231C6.82181 12.6438 7.30811 13.1102 7.64334 13.1102C8.22999 13.1102 8.38989 12.7774 8.84127 10.6179C9.07836 9.48309 9.27244 8.3751 9.27244 8.15578C9.27244 7.42173 8.44355 7.07768 7.92466 7.59657ZM11.2694 7.63921C11.1146 7.83586 10.8725 8.71033 10.5705 10.1626C10.1376 12.2447 10.1208 12.4039 10.3046 12.6843C10.6524 13.2152 11.4198 13.1952 11.7051 12.6479C11.7657 12.5315 12.0196 11.4491 12.2692 10.2426C12.7215 8.05543 12.7221 8.04795 12.4864 7.73086C12.1556 7.2856 11.5816 7.24235 11.2694 7.63921ZM15.4616 7.59473C15.2093 7.8736 14.2557 12.1777 14.3679 12.5314C14.5605 13.1381 15.4699 13.2504 15.816 12.71C15.9678 12.4732 16.869 8.48108 16.869 8.04563C16.869 7.75622 16.3772 7.35152 16.0255 7.35152C15.8365 7.35152 15.5826 7.46094 15.4616 7.59473ZM18.7882 7.57427C18.5146 7.87679 17.6518 12.0734 17.769 12.5324C17.9254 13.1455 18.9002 13.2971 19.1911 12.7535C19.3359 12.4829 20.1772 8.53058 20.1772 8.12074C20.1772 7.4749 19.2193 7.09802 18.7882 7.57427ZM23.0181 7.57378C22.8224 7.76945 22.2262 10.2268 21.9337 12.0429C21.7998 12.8741 22.6067 13.4044 23.2316 12.8958C23.4418 12.7247 23.5807 12.2649 23.919 10.6214C24.1523 9.48849 24.3431 8.3751 24.3431 8.1472C24.3431 7.44966 23.5049 7.08699 23.0181 7.57378ZM26.5162 7.50468C26.2291 7.72265 26.1447 8.01426 25.6837 10.3799L25.3542 12.0712C25.3031 12.3337 25.3813 12.6048 25.5644 12.7997V12.7997C25.9166 13.1747 26.4253 13.2044 26.7297 12.8681C26.9479 12.6269 27.7738 8.92487 27.7738 8.18739C27.7738 7.53396 27.0179 7.12362 26.5162 7.50468ZM30.8662 7.43312C30.6048 7.53837 30.4657 7.92298 30.2177 9.22408C29.9211 10.7803 29.9186 11.1795 30.2033 11.4371C30.4966 11.7025 31.1158 11.6964 31.3592 11.4255C31.5474 11.2161 32.0615 8.84388 32.0619 8.18335C32.0623 7.61054 31.4223 7.20902 30.8662 7.43312ZM19.6871 23.4537C9.07334 31.2991 0.28937 37.8507 0.167212 38.0126C-0.154907 38.4396 0.00131292 38.9415 0.524496 39.1601C1.11103 39.4051 6.41343 39.4049 6.97901 39.1598C7.19588 39.0659 8.33818 38.2719 9.51749 37.3956V37.3956C10.412 36.7309 11.6832 37.3591 11.6985 38.4734L11.7229 40.2435C11.7901 45.1086 11.7869 45.0893 12.5153 45.0893C13.3317 45.0893 13.3158 45.1983 13.3158 39.6111V38.1124C13.3158 35.8914 14.3698 33.8022 16.1561 32.4824L29.5457 22.5896C41.3053 13.9012 45.8156 10.5035 45.9209 10.2537C46.0454 9.95849 46.0309 9.86158 45.8205 9.57977V9.57977C45.6657 9.3724 45.423 9.24925 45.1642 9.24683L42.2799 9.21991L41.3271 9.21105C39.807 9.19692 38.3236 9.67802 37.1012 10.5816L19.6871 23.4537ZM42.473 10.8741C42.471 10.9246 34.3711 16.9483 24.4733 24.26L7.69422 36.6551C6.90239 37.2401 5.94914 37.566 4.96494 37.5884V37.5884C3.47981 37.6223 3.4569 37.6187 3.69754 37.3924C3.88953 37.2118 28.1446 19.2681 37.7996 12.1639L38.5501 11.6118C39.2824 11.0729 40.1679 10.7822 41.0772 10.7822V10.7822C41.847 10.7822 42.4751 10.8236 42.473 10.8741ZM6.4595 14.9193C6.243 15.0945 6.10136 15.5714 5.71075 17.4389C5.20607 19.8514 5.20631 20.0648 5.71394 20.3364C6.08249 20.5337 6.39089 20.4846 6.66118 20.1861C6.84043 19.9881 7.03623 19.3026 7.35639 17.7529C7.60156 16.5664 7.80213 15.5146 7.80213 15.4158C7.80213 15.1568 7.2792 14.703 6.98072 14.703C6.84092 14.703 6.60641 14.8003 6.4595 14.9193ZM9.78202 14.9175C9.58684 15.083 9.43013 15.6091 9.09453 17.2245C8.59022 19.6521 8.57527 19.8871 8.90486 20.2167C9.29315 20.605 9.99901 20.4887 10.1854 20.0057C10.327 19.6385 11.1103 15.8204 11.1103 15.4969C11.1103 14.8333 10.2986 14.4792 9.78202 14.9175ZM14.0802 14.7846C13.9952 14.819 13.8719 14.9471 13.8064 15.0696C13.6608 15.3416 12.8257 19.2647 12.8257 19.6765C12.8257 20.0546 13.2315 20.4617 13.6085 20.4617C14.2384 20.4617 14.3871 20.16 14.8448 17.9534C15.0821 16.8096 15.2762 15.6962 15.2762 15.4791C15.2762 14.8983 14.6708 14.5467 14.0802 14.7846ZM17.2748 14.9787C17.0956 15.1767 16.8998 15.8621 16.5796 17.4118C16.3344 18.5984 16.1339 19.6501 16.1339 19.749C16.1339 20.0286 16.667 20.4617 17.011 20.4617C17.573 20.4617 17.7335 20.0993 18.2336 17.7015C18.7312 15.3154 18.7303 15.1004 18.2221 14.8284C17.8535 14.6311 17.5451 14.6801 17.2748 14.9787ZM21.5392 14.9175C21.3521 15.0731 21.2139 15.4633 21.0356 16.34C20.7364 17.8105 20.7365 17.7129 21.0349 18.0112C21.3251 18.3015 22.0381 18.34 22.2562 18.0771C22.4101 17.8918 22.8728 15.9553 22.8728 15.4964C22.8728 15.1702 22.389 14.703 22.0513 14.703C21.9115 14.703 21.6811 14.7995 21.5392 14.9175ZM4.88468 22.3044C4.73716 22.4417 4.61623 22.5934 4.61586 22.6413C4.6155 22.6892 4.42276 23.6382 4.18764 24.7501C3.95251 25.862 3.75978 26.8958 3.75941 27.0475C3.75794 27.6866 4.71744 28.0659 5.14382 27.5948C5.34513 27.3723 6.20931 23.5655 6.20931 22.9011C6.20931 22.1692 5.41424 21.811 4.88468 22.3044ZM8.28795 22.2785C8.06164 22.4617 7.92613 22.9013 7.54201 24.6984C7.28385 25.9061 7.07139 26.9805 7.0698 27.0856C7.06515 27.4022 7.54005 27.8133 7.91045 27.8133C8.50898 27.8133 8.67219 27.4663 9.16645 25.1448C9.42057 23.9505 9.63119 22.9021 9.63426 22.8148C9.64283 22.576 9.07162 22.0546 8.80145 22.0546C8.67109 22.0546 8.44 22.1553 8.28795 22.2785ZM12.4086 22.338C12.0726 22.6739 11.8876 23.6359 12.0872 24.0088C12.2264 24.269 12.6584 24.4333 13.0174 24.3628C13.3291 24.3016 13.6539 23.7792 13.7455 23.1923C13.8153 22.7444 13.7848 22.635 13.5151 22.3653C13.1289 21.9791 12.7762 21.9704 12.4086 22.338ZM33.7107 27.869V27.869C33.5181 28.0615 33.4099 28.3227 33.4099 28.595V36.3067C33.4099 44.3531 33.4127 44.4473 33.6639 44.7665C33.9745 45.1615 34.5276 45.1969 34.8802 44.8443C35.12 44.6045 35.1253 44.4359 35.1253 36.9452V34.4943C35.1253 31.6151 37.4492 29.2758 40.3283 29.2567V29.2567C45.9709 29.2194 45.7968 29.2414 45.9677 28.5431C46.021 28.3253 45.9653 28.1316 45.783 27.8999V27.8999C45.6183 27.6905 45.3666 27.5682 45.1002 27.5682H39.7668H34.4367C34.1644 27.5682 33.9032 27.6764 33.7107 27.869V27.869ZM3.39551 29.6231C3.06555 29.8902 2.76365 31.1751 2.92697 31.6167C3.06592 31.9923 3.23696 32.0975 3.71322 32.0998C4.19009 32.1021 4.34398 31.9208 4.56306 31.0977C4.79941 30.2097 4.78544 30.054 4.4382 29.7069C4.08251 29.3511 3.76309 29.3253 3.39551 29.6231ZM36.5956 30.1026C36.4945 30.1415 36.3153 30.2573 36.1974 30.3599C35.9979 30.5338 35.983 31.033 35.983 37.5457C35.983 45.329 35.9581 45.0893 36.7674 45.0893C37.6023 45.0893 37.57 45.3531 37.6053 38.2195L37.6176 35.7393C37.6284 33.5528 39.3944 31.7809 41.5809 31.763V31.763L45.1052 31.7341C45.3705 31.7319 45.6204 31.6093 45.7844 31.4008V31.4008C45.9655 31.1704 46.0209 30.9766 45.9677 30.7591C45.7983 30.0675 45.8973 30.0819 41.1555 30.0561C38.7486 30.0428 36.6967 30.0638 36.5956 30.1026Z" fill="white"/>
</svg>
