<svg width="46" height="46" viewBox="0 0 46 46" fill="none" xmlns="http://www.w3.org/2000/svg">
<path fill-rule="evenodd" clip-rule="evenodd" d="M17.5757 0.0370093C17.5014 0.0515708 17.1362 0.112513 16.7642 0.172556C14.1102 0.60077 11.4998 2.2517 9.85477 4.54242C8.80108 6.00971 7.93178 8.38781 7.92655 9.81762C7.92574 10.0234 7.89536 10.2341 7.85893 10.2859C7.8225 10.3378 7.52892 10.4518 7.20657 10.5394C3.65635 11.504 0.792839 14.6872 0.121007 18.4162C-0.0458912 19.3427 -0.0390386 21.1929 0.134713 22.1059C0.751813 25.3491 3.21039 28.3117 6.25622 29.4827C7.91591 30.1207 7.99896 30.1312 11.6924 30.1697C13.5397 30.189 15.0511 30.2155 15.0511 30.2288C15.0511 30.242 14.58 31.1125 14.0044 32.1634C13.3968 33.2725 12.9405 34.2117 12.9167 34.4022C12.8632 34.8315 13.1879 35.4685 13.5992 35.7409C13.9051 35.9436 13.9106 35.9439 17.7243 35.9439H21.5431V40.4021C21.5431 45.3026 21.5346 45.2218 22.0975 45.6939C22.5822 46.1005 23.3872 46.1023 23.8694 45.6978C24.0344 45.5594 25.6309 42.7337 28.3078 37.8419L32.4885 30.2023L36.055 30.1718L39.6215 30.1413L40.3879 29.8875C43.1422 28.9753 45.1681 26.8261 45.7997 24.1461C46.2051 22.4261 45.9883 20.4929 45.2111 18.8968C44.1306 16.6778 42.3186 15.2624 39.697 14.5897C39.6378 14.5745 39.5665 14.2956 39.5334 13.9503C39.4085 12.6447 39.13 11.6009 38.6506 10.6411C37.2338 7.80508 34.468 5.99956 31.3262 5.8596C30.323 5.81502 29.0562 5.94491 28.5664 6.14265C28.4611 6.18517 28.3883 6.12117 28.2999 5.9085C28.0722 5.36065 27.1647 4.0814 26.5081 3.3829C24.4666 1.21118 21.5441 -0.0337305 18.5676 0.000695647C18.0964 0.00608877 17.6501 0.0224479 17.5757 0.0370093ZM20.5963 3.11639C23.2145 3.83314 25.0845 5.51157 26.1037 8.05955C26.4696 8.97431 26.7326 9.27174 27.3136 9.4276C27.6827 9.52675 27.6595 9.53259 29.2072 8.94798C29.9407 8.67095 31.704 8.67356 32.5885 8.95292C34.2851 9.48882 35.7598 10.8888 36.3293 12.5042C36.6427 13.3931 36.7266 14.2211 36.6023 15.1994C36.4963 16.0328 36.5002 16.0906 36.6877 16.4769C36.9755 17.0696 37.3264 17.2484 38.383 17.3408C40.0755 17.4891 41.3526 18.1948 42.2182 19.4605C44.0831 22.1872 42.965 25.7902 39.8703 27.0264L39.2608 27.2699L31.847 27.2949L24.4333 27.3199L24.4083 22.7847C24.3839 18.3436 24.3794 18.2442 24.1947 17.9957C23.5994 17.1951 22.5722 17.1066 21.936 17.801C21.8298 17.9169 20.5988 20.1049 19.2003 22.6633L16.6576 27.3149H12.8481C9.32468 27.3149 8.9852 27.3013 8.32554 27.1337C6.99928 26.7968 5.87057 26.1628 4.93338 25.2286C3.07117 23.3722 2.38212 20.6013 3.15854 18.0913C3.96193 15.494 6.25586 13.4969 8.87466 13.115C9.76956 12.9845 10.3452 12.7154 10.5738 12.3207C10.7164 12.0746 10.7511 11.8084 10.7729 10.7926C10.804 9.34239 10.9898 8.51302 11.5413 7.36033C12.6281 5.08911 14.6535 3.52879 17.2083 2.9946C18.016 2.82579 19.7642 2.88862 20.5963 3.11639ZM21.7768 29.5332C21.8806 29.6727 22.0996 29.8777 22.2635 29.989C22.5591 30.1895 22.5886 30.1912 25.8393 30.1912C27.9665 30.1912 29.1171 30.2228 29.1171 30.2812C29.1171 30.3307 28.0723 32.2815 26.7953 34.6163L24.4735 38.8614L24.4284 36.4813C24.3767 33.7524 24.348 33.6385 23.6183 33.2698C23.2257 33.0714 23.1571 33.0675 20.0362 33.0675C18.2862 33.0675 16.8544 33.0409 16.8544 33.0084C16.8544 32.9759 17.8993 31.0387 19.1762 28.7037L21.498 24.4581L21.5431 26.8689C21.5854 29.1361 21.5994 29.2948 21.7768 29.5332Z" fill="white"/>
</svg>
