<svg width="47" height="46" viewBox="0 0 47 46" fill="none" xmlns="http://www.w3.org/2000/svg">
<path fill-rule="evenodd" clip-rule="evenodd" d="M0.256081 0.144241C-0.200403 0.503211 -0.0478003 0.864732 0.723526 1.25233C1.46934 1.62708 2.0378 2.4398 2.32618 3.54363C2.48578 4.15452 2.48115 5.47833 2.31248 7.48399C2.16044 9.2915 2.90446 11.4568 4.19256 12.9558C4.64403 13.4812 5.8589 14.5934 5.98127 14.5934C6.14502 14.5934 6.02294 14.8832 5.34402 16.1052C4.90228 16.9005 4.51439 17.7544 4.31379 18.373C3.21042 21.7761 3.19304 25.8277 4.26787 29.0977C4.67068 30.323 5.66916 32.272 6.39107 33.2418C8.16353 35.6231 10.442 37.4424 13.5678 38.9722C16.6261 40.4689 18.603 41.0431 21.2522 41.204L22.2664 41.2656L22.554 41.796C22.9372 42.5029 23.6799 43.0893 25.0432 43.7614C26.349 44.4052 26.7274 44.4475 27.338 44.018C27.9857 43.5625 28.1958 43.0159 28.2429 41.6646L28.2824 40.5305L28.847 40.3516C30.3896 39.8631 33.0115 38.3029 34.781 36.8207C35.9151 35.8706 37.6207 34.1694 38.5451 33.0663C40.5364 30.6899 42.3906 26.9368 42.9565 24.1369C43.1966 22.9488 43.1931 21.8222 42.9478 21.3544C42.4573 20.4195 41.4129 20.057 39.1748 20.0451C34.881 20.0223 30.8184 21.6793 26.7592 25.1091C23.8296 27.5845 20.97 28.6723 17.7254 28.5458C15.25 28.4494 12.956 27.6757 11.1904 26.3418C9.61688 25.1532 8.82468 23.6676 8.72858 21.7255C8.64722 20.0796 8.9615 19.0667 10.124 17.2286L10.6386 16.415L11.3473 16.3494C13.2832 16.1702 14.875 15.527 16.3794 14.3159C17.2651 13.6029 17.8986 12.8493 18.8869 11.3334C19.8446 9.8642 20.6952 8.98412 21.5762 8.55041C22.2911 8.19843 23.1303 8.08164 23.6681 8.25909C23.9603 8.35557 24.0524 8.35028 24.2417 8.2263C24.7943 7.86422 24.6134 7.40839 23.7641 7.02334C20.0951 5.35974 15.7021 5.49997 11.9363 7.40093C11.6154 7.56298 11.3123 7.69555 11.2631 7.69555C11.2138 7.69555 11.1004 7.47236 11.011 7.19947C10.4638 5.52869 9.2959 4.14148 7.33144 2.82881C6.19217 2.0676 4.05073 1.06307 2.439 0.533826C0.531805 -0.0923631 0.55212 -0.0886781 0.256081 0.144241ZM4.2605 2.45416C7.45825 3.89032 9.38869 5.66788 9.99645 7.7359C10.1623 8.3001 10.3389 8.52518 10.7537 8.70074C11.2418 8.90739 11.544 8.85533 12.4679 8.40565C14.1293 7.59709 15.806 7.12955 17.5427 6.99065C18.3416 6.92677 19.9249 7.05339 20.7784 7.24955L21.28 7.36483L20.5538 7.83729C19.6151 8.44798 19.0022 9.1303 17.892 10.8005C16.4906 12.9089 15.2674 14.0133 13.5898 14.685C12.9677 14.9342 11.3572 15.2962 11.2679 15.207C11.2492 15.1882 11.3019 14.9016 11.3851 14.57C11.5782 13.8 11.5766 13.3772 11.3799 13.1598C11.0434 12.788 10.4024 13.0972 10.4024 13.6313C10.4024 14.3159 9.87929 15.5185 8.9117 17.0585C7.85927 18.7335 7.52241 19.9288 7.59573 21.7274C7.64827 23.0146 7.85388 23.8108 8.38879 24.7983C9.91094 27.6082 13.5577 29.5242 17.6782 29.679C21.1995 29.8112 24.3339 28.6253 27.5111 25.9587C30.3732 23.5565 32.934 22.2121 36.0093 21.4975C38.4095 20.9398 41.2477 21.0608 41.8548 21.7467C42.0638 21.9828 42.0738 22.0469 42.0126 22.7491C41.9766 23.1617 41.9271 23.5516 41.9025 23.6156C41.878 23.6797 41.6794 23.7852 41.4612 23.8502C40.497 24.1376 38.2997 25.0671 36.9542 25.7567C34.6451 26.9402 33.8209 27.575 30.6051 30.6475C29.5498 31.6558 28.3408 32.8102 27.9183 33.2129C26.9774 34.11 26.6666 34.6874 26.5317 35.7893C26.4461 36.4884 26.4666 36.7342 26.7458 38.3577C27.2448 41.2597 27.231 42.7482 26.702 43.089C26.5365 43.1957 26.384 43.1481 25.4736 42.7064C24.2624 42.1187 23.7335 41.6969 23.4268 41.0741C23.126 40.4634 23.1427 39.2889 23.4774 37.5155C23.8726 35.4219 23.777 34.1717 23.1467 33.1894C22.842 32.7145 22.6222 32.5892 22.2556 32.6812C21.8725 32.7773 21.856 33.1523 22.2068 33.7904C22.4021 34.1457 22.5307 34.5347 22.5661 34.877L22.6211 35.4102L21.0709 35.3528C17.5216 35.2215 13.8948 33.9773 9.9425 31.5354C8.14368 30.424 5.32304 28.3166 5.12121 27.9332C4.96294 27.6326 4.72671 26.2592 4.62533 25.0501C4.46091 23.0888 4.7459 20.7363 5.39089 18.7309C5.53943 18.2688 5.97853 17.3083 6.3666 16.5964C7.90632 13.7719 8.24649 12.2311 7.33031 12.2311C6.94535 12.2311 6.76809 12.4532 6.67086 13.0574C6.63533 13.278 6.5707 13.4805 6.52714 13.5074C6.42027 13.5734 5.63477 12.8888 5.10666 12.2693C4.49058 11.5465 4.00868 10.6908 3.72833 9.82159C3.451 8.96201 3.4167 8.16555 3.54473 5.56951C3.62477 3.94928 3.53575 3.25969 3.12746 2.3368L2.94339 1.92076L3.15316 1.98586C3.26844 2.02167 3.76678 2.23239 4.2605 2.45416ZM32.2597 3.44782C31.6146 3.57538 30.8048 4.02478 30.2836 4.54457C28.7397 6.08439 28.7811 8.53066 30.3764 10.0393C31.6066 11.2028 33.3123 11.4584 34.853 10.7102C36.3626 9.97703 37.2532 8.2692 36.9685 6.65313C36.5768 4.42967 34.4875 3.0075 32.2597 3.44782ZM34.3498 4.8065C35.3222 5.28226 35.8646 6.16613 35.8618 7.27034C35.8591 8.3928 35.2813 9.27222 34.2305 9.75327C32.1955 10.6849 29.8871 8.88443 30.3372 6.71653C30.7077 4.93198 32.6836 3.99133 34.3498 4.8065ZM23.6333 13.477C23.0702 13.8596 22.8527 14.2741 22.8952 14.883C22.9405 15.5317 23.2232 15.9633 23.7634 16.2087C24.2533 16.4311 24.6152 16.4311 25.105 16.2087C25.6933 15.9415 25.9461 15.522 25.9461 14.8129C25.9461 13.8886 25.4434 13.3574 24.5063 13.2918C24.051 13.26 23.908 13.2903 23.6333 13.477ZM43.5794 14.0696C43.0986 14.2244 42.5632 14.6979 42.3762 15.1337C42.3044 15.3009 42.2464 15.6623 42.2472 15.9368C42.2526 17.6599 44.4164 18.4423 45.5886 17.145C45.7707 16.9433 45.9702 16.6099 46.0319 16.404C46.4564 14.9873 45.0088 13.6094 43.5794 14.0696ZM24.7461 14.5178C25.0893 14.8611 24.6447 15.3994 24.2099 15.1667C23.84 14.9687 24.006 14.4044 24.4342 14.4044C24.5434 14.4044 24.6837 14.4554 24.7461 14.5178ZM44.7733 15.4053C45.4325 16.1431 44.3123 17.141 43.6116 16.4402C43.1964 16.0251 43.3692 15.3497 43.9465 15.1305C44.1909 15.0378 44.5523 15.158 44.7733 15.4053ZM41.2969 25.895C40.9167 26.991 39.871 29.1474 39.1743 30.2723C37.314 33.2764 33.4099 36.9029 30.3968 38.426C29.6882 38.7841 28.1412 39.4484 28.1025 39.4111C28.0932 39.4022 27.9722 38.7576 27.8336 37.9786C27.4261 35.6885 27.5803 35.0635 28.844 33.8836C29.2698 33.486 30.6076 32.22 31.817 31.0703C34.6748 28.353 35.6924 27.5919 37.8991 26.5209C38.7881 26.0895 41.5131 24.9798 41.5628 25.0291C41.577 25.0431 41.4574 25.4328 41.2969 25.895ZM29.0281 27.2202C28.5388 27.5629 28.4546 28.3002 28.8543 28.7406C29.5085 29.4614 30.6234 28.9985 30.6234 28.0063C30.6234 27.5564 30.0972 27.0661 29.6145 27.0661C29.4129 27.0661 29.149 27.1355 29.0281 27.2202ZM8.53365 27.6857C8.22107 27.9045 8.26038 28.2921 8.63069 28.6424C10.6556 30.5579 14.7259 31.9804 18.1791 31.9793C19.1036 31.9791 20.5185 31.8372 21.1018 31.6864C21.6413 31.547 21.8257 31.037 21.4572 30.7035C21.2799 30.543 21.2146 30.5405 20.4414 30.6653C19.1378 30.8755 16.6319 30.8292 15.4104 30.5724C13.3866 30.1468 11.4835 29.3543 10.1311 28.3742C8.83337 27.4335 8.8706 27.4496 8.53365 27.6857ZM29.6785 28.1055C29.6785 28.1575 29.6598 28.2 29.6368 28.2C29.6138 28.2 29.5689 28.1575 29.5367 28.1055C29.5046 28.0535 29.5234 28.011 29.5784 28.011C29.6334 28.011 29.6785 28.0535 29.6785 28.1055ZM23.7256 29.681C23.2526 29.8851 23.0641 30.0824 23.0641 30.3733C23.0641 30.651 23.3196 30.9402 23.5649 30.9402C23.6503 30.9402 23.9551 30.8364 24.2421 30.7094C24.879 30.4277 25.0629 30.1284 24.8234 29.763C24.6396 29.4823 24.2529 29.4534 23.7256 29.681ZM7.94563 31.5882C12.5537 34.7541 17.4022 36.5152 21.5098 36.5152C22.059 36.5152 22.4972 36.5544 22.4972 36.6035C22.4972 36.6521 22.4354 36.9855 22.3599 37.3443C22.2844 37.7032 22.1706 38.4769 22.1069 39.0636L21.9913 40.1304L21.1678 40.0682C18.722 39.8836 16.5546 39.2251 13.804 37.8307C10.8549 36.3356 8.61585 34.4823 7.13103 32.3071C6.61813 31.5557 5.96133 30.3867 5.96133 30.2252C5.96133 30.1927 6.16335 30.3182 6.41016 30.5039C6.65697 30.6896 7.34798 31.1776 7.94563 31.5882ZM3.00699 35.3869C2.17547 35.5892 1.53879 36.1014 1.13456 36.8931C0.968729 37.2182 0.917893 37.4743 0.918933 37.9798C0.920728 38.773 1.08098 39.185 1.61183 39.761C2.83756 41.0908 4.9414 40.8768 5.90095 39.3248C6.45051 38.436 6.32805 37.0721 5.62504 36.2508C5.03825 35.5653 3.86496 35.1781 3.00699 35.3869ZM4.40195 36.6928C5.10165 37.0964 5.34364 38.1203 4.89821 38.7926C4.5846 39.2659 3.90058 39.5772 3.35433 39.4953C2.83284 39.4171 2.24511 38.9305 2.08447 38.444C1.65492 37.1423 3.18132 35.9888 4.40195 36.6928ZM39.8916 37.2386C39.6621 37.3228 39.2922 37.5739 39.0695 37.7967C38.0128 38.8533 38.2424 40.5719 39.5483 41.3792C39.9572 41.632 40.0936 41.6649 40.7339 41.6649C41.3739 41.6649 41.511 41.6319 41.9224 41.3787C43.4433 40.4426 43.4545 38.3584 41.9436 37.4287C41.3867 37.086 40.5248 37.0062 39.8916 37.2386ZM41.3097 38.3624C41.6351 38.5307 41.9614 39.0144 41.9619 39.3293C41.9625 39.7127 41.6979 40.1914 41.3773 40.3868C40.7461 40.7717 39.9107 40.5148 39.6331 39.8505C39.2077 38.8324 40.3161 37.8485 41.3097 38.3624ZM6.85559 42.8768C6.1488 43.1502 5.7732 43.6835 5.77272 44.4148C5.77197 45.4249 6.73199 46.1847 7.72575 45.9605C8.66244 45.7493 9.20122 44.7795 8.89583 43.8542C8.75768 43.4358 8.2548 42.9828 7.78282 42.8517C7.34836 42.7311 7.22391 42.7345 6.85559 42.8768ZM7.64657 44.0363C8.10976 44.3608 7.61529 45.1038 7.14331 44.7925C6.86485 44.6087 6.84812 44.2203 7.11081 44.0363C7.2293 43.9534 7.34987 43.8854 7.37869 43.8854C7.40751 43.8854 7.52808 43.9534 7.64657 44.0363Z" fill="white"/>
</svg>
