<svg width="48" height="42" viewBox="0 0 48 42" fill="none" xmlns="http://www.w3.org/2000/svg">
<path fill-rule="evenodd" clip-rule="evenodd" d="M17.733 1.17017C17.3933 1.37727 17.2055 1.85234 17.3318 2.18457C17.3788 2.30817 17.5408 2.61002 17.6918 2.85542C18.4789 4.13463 18.3905 5.84928 17.4716 7.1284C16.7215 8.17256 16.3522 9.30876 16.3543 10.5667C16.3565 11.9506 16.8033 13.2868 17.5131 14.0331C17.8027 14.3374 17.9085 14.3906 18.2252 14.3906C18.5059 14.3906 18.6667 14.3286 18.8794 14.1384C19.2897 13.772 19.2805 13.3414 18.8475 12.6377C18.4121 11.9302 18.2037 11.1062 18.2677 10.3455C18.3366 9.52575 18.533 9.01464 19.1263 8.11116C19.8201 7.0546 20.0518 6.33899 20.1063 5.08531C20.1537 3.99396 20.0332 3.32922 19.6256 2.43527C19.0337 1.13655 18.4395 0.739419 17.733 1.17017ZM23.4859 1.17017C23.1681 1.36397 22.9553 1.86654 23.0555 2.18664C23.0906 2.29864 23.23 2.55213 23.3655 2.74989C23.7762 3.34981 23.9353 3.92276 23.9395 4.81734C23.9441 5.78473 23.7807 6.3309 23.2675 7.0635C22.4268 8.26362 22.1094 9.22534 22.1072 10.5784C22.105 11.9733 22.5437 13.2687 23.283 14.0493C23.5528 14.3342 23.6658 14.3906 23.9675 14.3906C24.4105 14.3906 24.7513 14.144 24.8904 13.7227C24.9994 13.3924 24.9392 13.2022 24.4878 12.452C23.7629 11.2468 23.8723 9.48414 24.7461 8.29382C26.005 6.57882 26.2462 4.34327 25.3782 2.43527C24.7876 1.13727 24.1925 0.739329 23.4859 1.17017ZM29.2388 1.17017C28.8992 1.37727 28.7114 1.85234 28.8377 2.18457C28.8847 2.30817 29.0467 2.61002 29.1977 2.85542C29.9804 4.12771 29.8852 5.95391 28.9735 7.14773C28.2565 8.08671 27.8581 9.31047 27.8601 10.5667C27.8624 11.9506 28.3091 13.2868 29.019 14.0331C29.3029 14.3315 29.4175 14.3906 29.7126 14.3906C30.149 14.3906 30.4447 14.1928 30.6139 13.788C30.7662 13.4234 30.7249 13.2542 30.3224 12.5928C29.9153 11.9238 29.711 11.0878 29.7735 10.3455C29.8425 9.52575 30.0389 9.01464 30.6321 8.11116C31.3062 7.08454 31.5544 6.33603 31.6125 5.15479C31.6658 4.0683 31.5459 3.35278 31.172 2.52651C30.5422 1.13475 29.9632 0.728542 29.2388 1.17017ZM8.74513 16.466C8.30962 16.5922 7.62574 17.0912 7.30034 17.5202C6.77017 18.219 6.70518 18.6429 6.76037 21.0379C6.81314 23.3243 6.92334 24.1992 7.37135 25.8874C8.31016 29.4254 10.4238 32.7397 13.2339 35.0802L13.7555 35.5146H7.69019H1.62481L1.35136 35.7447C0.98767 36.0508 0.897871 36.5134 1.12161 36.9288C1.3448 37.3431 3.78836 39.7058 4.44374 40.1408C5.14704 40.6076 5.99703 40.9537 6.86959 41.1286C7.51607 41.2583 9.18217 41.2702 23.3643 41.2477L39.1399 41.2226L39.7691 41.0113C41.2127 40.5267 41.7129 40.1828 43.4273 38.4967C44.4901 37.4513 45.0362 36.8491 45.0729 36.6821C45.1041 36.5398 45.0705 36.2952 44.9949 36.1142C44.7347 35.4915 44.9919 35.5146 38.3149 35.5146H32.3123L32.6698 35.226C32.8665 35.0673 33.3308 34.6475 33.7016 34.2932L34.3758 33.6488L35.2747 33.454C38.3357 32.7902 41.9587 31.3362 43.7602 30.0484C46.4194 28.1475 47.3882 26.1268 46.8622 23.578C46.2351 20.5392 43.5605 19.4686 39.5343 20.6447C39.4085 20.6815 39.3837 20.5468 39.3456 19.6213C39.3086 18.725 39.2648 18.4751 39.0697 18.0488C38.7661 17.3857 38.1464 16.7893 37.5159 16.5534C37.0233 16.3691 36.9487 16.3681 23.0238 16.3762C14.9241 16.3809 8.90819 16.4187 8.74513 16.466ZM36.9424 18.4078C37.3806 18.6666 37.412 18.8704 37.3649 21.1537C37.3158 23.528 37.1734 24.4541 36.5788 26.2648C35.3754 29.9294 32.7213 33.2263 29.423 35.1537L28.8055 35.5146H23.0326H17.2597L16.795 35.2405C15.3872 34.4106 14.2912 33.537 13.1169 32.3092C11.9855 31.1262 11.1845 29.9857 10.4213 28.471C9.15548 25.9584 8.6254 23.554 8.62324 20.3142C8.62234 19.0181 8.71196 18.6678 9.10613 18.4275C9.3784 18.2614 9.77913 18.2564 23.0358 18.2562C35.6914 18.2558 36.7039 18.2669 36.9424 18.4078ZM43.5781 22.2608C44.5494 22.5493 45.0495 23.4102 45.0635 24.8177C45.0828 26.7434 43.5133 28.3644 40.189 29.8525C39.2761 30.2613 36.6399 31.1999 36.405 31.1999C36.3531 31.1999 36.4589 30.9681 36.6401 30.6848C37.1575 29.876 38.0593 27.9249 38.4172 26.8403C38.7167 25.9324 39.0989 24.2133 39.2303 23.183L39.284 22.7619L39.8412 22.5773C41.2166 22.1218 42.6896 21.997 43.5781 22.2608ZM41.4277 37.8135C40.8586 38.3965 40.05 38.9035 39.3197 39.1353L38.6905 39.3349H23.0497H7.40892L6.77592 39.1358C6.03379 38.9023 5.23288 38.4009 4.67188 37.8189L4.27196 37.404L23.0499 37.4038L41.8278 37.4035L41.4277 37.8135Z" fill="white" stroke="white" stroke-width="0.5"/>
</svg>
