<svg width="38" height="46" viewBox="0 0 38 46" fill="none" xmlns="http://www.w3.org/2000/svg">
<path fill-rule="evenodd" clip-rule="evenodd" d="M4.20448 8.0373C3.87379 8.13907 3.58126 8.3218 3.34434 8.5748C2.91079 9.03764 2.84712 9.24882 2.79972 10.3824L2.75624 11.4223L1.484 14.3544L0.211822 17.2863V18.4448C0.211822 20.0131 0.40778 20.6579 1.12957 21.4643C2.52139 23.0193 4.92132 23.0462 6.3402 21.5226L6.79608 21.033L7.16522 21.4387C8.59645 23.0119 10.8559 23.0669 12.351 21.5649L12.8697 21.044L13.2338 21.4442C13.9603 22.2427 14.7831 22.6137 15.8515 22.6245C16.9599 22.6357 17.7918 22.2699 18.5479 21.439L18.9203 21.0297L19.2909 21.4371C20.0394 22.2598 20.8484 22.6192 21.9521 22.6192C23.0524 22.6192 23.8649 22.2595 24.6067 21.4442L24.9708 21.044L25.4765 21.5508C26.9881 23.066 29.2712 23.014 30.6745 21.4324L31.0364 21.0245L31.4963 21.5183C32.9193 23.0464 35.3172 23.0216 36.7109 21.4643C37.4327 20.6579 37.6287 20.0131 37.6287 18.4448V17.2863L36.3565 14.3544L35.0843 11.4223L35.0408 10.3824C34.9934 9.24889 34.9298 9.03786 34.4962 8.57457C34.3685 8.43827 34.131 8.25442 33.9683 8.16603L33.6726 8.00544L19.0312 7.99288C10.9784 7.98597 4.30638 8.00596 4.20448 8.0373ZM33.4458 9.15493C33.7702 9.27883 33.9308 9.64206 33.9311 10.2524L33.9314 10.791H18.9126H3.89398L3.92001 10.1673C3.94737 9.51304 4.04942 9.29264 4.38979 9.1527C4.60697 9.06341 33.2119 9.06557 33.4458 9.15493ZM7.68514 12.3694C7.61208 12.6248 7.29101 13.7445 6.97156 14.8578L6.39078 16.882H3.99588C2.10966 16.882 1.60874 16.8622 1.63766 16.7891C1.76181 16.475 3.62578 12.1692 3.68908 12.0505C3.76295 11.9117 3.85738 11.9052 5.79219 11.9052H7.81787L7.68514 12.3694ZM13.0602 12.1466C13.0394 12.2794 12.8797 13.3991 12.7052 14.635L12.3881 16.882H9.9638H7.53961L7.64536 16.5291C7.70355 16.3351 8.02515 15.2153 8.36005 14.0407L8.96885 11.9052H11.0334H13.0979L13.0602 12.1466ZM18.3287 14.3936V16.882H15.9157H13.5028L13.5405 16.6406C13.5613 16.5078 13.721 15.388 13.8955 14.1522L14.2126 11.9052H16.2706H18.3287V14.3936ZM23.9451 14.1522C24.1195 15.388 24.2792 16.5078 24.3 16.6406L24.3377 16.882H21.9248H19.5118V14.3936V11.9052H21.5699H23.6279L23.9451 14.1522ZM29.0891 12.6652C29.317 13.4852 29.5035 13.7622 29.8273 13.7622C29.9346 13.7622 30.1027 13.678 30.2092 13.5711C30.4234 13.3559 30.4203 13.2648 30.169 12.4054L30.022 11.9029L32.0691 11.9226L34.1162 11.9423L35.164 14.3564C35.7403 15.6842 36.2145 16.7957 36.2177 16.8263C36.2211 16.8569 35.1479 16.882 33.8331 16.882H31.4425L31.2352 16.1365C31.014 15.3406 30.8887 15.1735 30.5134 15.1735C30.2508 15.1735 30.0122 15.4123 30.0122 15.6751C30.0122 15.7876 30.0764 16.1051 30.1549 16.3808L30.2976 16.882H27.875H25.4525L25.1353 14.635C24.9609 13.3991 24.8011 12.2794 24.7804 12.1466L24.7426 11.9052H26.8102H28.8777L29.0891 12.6652ZM6.22751 18.8272C6.21819 19.5028 6.18891 19.6817 6.03081 20.0287C5.60103 20.9716 4.77136 21.516 3.7577 21.5203C3.27379 21.5223 3.13411 21.4902 2.70707 21.279C2.1714 21.0141 1.79531 20.6333 1.52474 20.0817C1.38661 19.8001 1.35378 19.592 1.33329 18.8679L1.30859 17.9942L3.77352 18.0137L6.23845 18.0333L6.22751 18.8272ZM12.3248 18.433C12.3815 19.4333 12.0712 20.352 11.5021 20.8685C11.0197 21.3063 10.4717 21.519 9.8213 21.5209C9.33836 21.5224 9.19697 21.4898 8.77149 21.2794C7.78445 20.7913 7.38462 20.0685 7.38462 18.7723V17.9942L9.84334 18.0138L12.3021 18.0333L12.3248 18.433ZM18.3168 18.9061C18.2918 19.7462 18.2731 19.8463 18.0734 20.21C17.6188 21.0382 16.8175 21.5181 15.8849 21.5209C15.402 21.5224 15.2606 21.4898 14.8351 21.2794C13.8483 20.7914 13.4482 20.0685 13.4482 18.7733V17.9962H15.8961H18.3439L18.3168 18.9061ZM24.3923 18.7733C24.3923 20.0685 23.9922 20.7914 23.0054 21.2794C22.5799 21.4898 22.4386 21.5224 21.9556 21.5209C21.023 21.5181 20.2217 21.0382 19.7671 20.21C19.5674 19.8463 19.5487 19.7462 19.5237 18.9061L19.4966 17.9962H21.9444H24.3923V18.7733ZM30.4559 18.7733C30.4559 19.744 30.3039 20.2026 29.8052 20.7357C28.8658 21.7402 27.3624 21.7978 26.3384 20.8685C25.9467 20.513 25.6742 19.9871 25.5802 19.4053C25.4926 18.8627 25.4765 18.1203 25.5508 18.0457C25.5779 18.0185 26.6926 17.9962 28.028 17.9962H30.4559V18.7733ZM36.5072 18.869C36.4867 19.5919 36.4539 19.8002 36.3158 20.0817C36.0452 20.6333 35.6691 21.0141 35.1334 21.279C34.7064 21.4902 34.5667 21.5223 34.0828 21.5203C33.0706 21.516 32.2394 20.9715 31.8113 20.0321C31.6736 19.7299 31.6166 19.4516 31.5856 18.9301C31.5628 18.5464 31.5644 18.1793 31.5893 18.1143C31.6293 18.0096 31.9131 17.9962 34.0831 17.9962H36.5318L36.5072 18.869ZM1.54286 24.8276C0.934426 24.9598 0.546281 25.2426 0.228829 25.7849L0.0269557 26.1299L0.00514147 31.5524C-0.00683785 34.5348 0.00284913 37.0825 0.0265859 37.2141C0.0875917 37.5517 0.393878 37.8855 0.73758 37.9889C1.02752 38.0762 1.03011 38.0803 0.98959 38.3802C0.892276 39.0996 0.359714 44.6728 0.36001 44.9686C0.360528 45.6391 0.793262 46.0001 1.59595 45.9998C2.10906 45.9998 2.48553 45.8293 2.66233 45.5172C2.75358 45.3561 4.27887 38.3444 4.27887 38.0861C4.27887 38.0673 5.44131 38.052 6.86204 38.052C9.2582 38.052 9.44795 38.0614 9.48366 38.182C9.50489 38.2534 9.8426 39.8663 10.2341 41.766C10.6257 43.6657 11.0033 45.334 11.0732 45.4732C11.2528 45.8309 11.6066 46 12.1752 46C12.8424 46 13.2295 45.7642 13.3699 45.2723C13.4149 45.1149 13.3272 43.9613 13.087 41.5508L12.7389 38.0575L12.9461 37.9713C13.0599 37.9239 13.2528 37.771 13.3746 37.6317C13.5674 37.4111 13.5961 37.3211 13.5961 36.938C13.5961 36.1367 13.1506 35.3159 12.4874 34.8954C11.8544 34.4939 11.7604 34.4865 7.30432 34.4865H3.18373L3.21471 34.2079C3.34212 33.0612 3.76391 26.5923 3.72723 26.3467C3.63591 25.7349 2.96692 24.9768 2.42592 24.8721C1.95969 24.7819 1.79228 24.7735 1.54286 24.8276ZM35.5646 24.8375C35.1445 24.9188 34.7276 25.1982 34.4482 25.5857C34.0357 26.1577 34.0362 26.1417 34.3302 30.2525C34.4778 32.3156 34.6126 34.111 34.6296 34.2423L34.6606 34.4808L30.3584 34.5022L26.0561 34.5236L25.6279 34.7414C24.794 35.1656 24.3144 35.8859 24.2604 36.7951C24.2279 37.3406 24.234 37.3664 24.4571 37.6217C24.5837 37.7666 24.7806 37.9239 24.8945 37.9713L25.1016 38.0575L24.7535 41.5508C24.5133 43.9613 24.4256 45.1149 24.4706 45.2723C24.6101 45.7611 24.9983 46 25.653 46C26.1731 46 26.5441 45.8531 26.7252 45.5755C26.7954 45.4679 27.1621 43.8808 27.5776 41.8864C27.9787 39.9613 28.3251 38.3111 28.3475 38.2191L28.3882 38.052H30.9749C32.3977 38.052 33.5616 38.0682 33.5616 38.0882C33.5616 38.3498 35.0855 45.3553 35.1776 45.5172C35.3554 45.8294 35.7317 45.9998 36.2446 45.9998C37.0473 46.0001 37.48 45.6391 37.4805 44.9686C37.4808 44.6739 36.9485 39.1026 36.8514 38.3836L36.811 38.0839L37.1395 37.9957C37.3683 37.9342 37.5202 37.8337 37.6407 37.664L37.8136 37.4206V31.7752V26.1299L37.6117 25.7849C37.1686 25.0279 36.4055 24.6747 35.5646 24.8375ZM2.39243 26.0921C2.67061 26.324 2.67083 26.4716 2.39819 30.2615C2.25304 32.2788 2.11653 34.0631 2.09479 34.2265C2.05797 34.5035 2.03164 34.5317 1.70665 34.6417C1.5149 34.7065 1.29972 34.7853 1.22858 34.8167C1.1062 34.8707 1.09918 34.6467 1.09947 30.6876C1.0997 26.6621 1.10532 26.4922 1.24456 26.2627C1.46521 25.8993 2.05582 25.8115 2.39243 26.0921ZM36.4277 26.0185C36.4387 26.0185 36.5137 26.1272 36.5943 26.2599C36.7366 26.4945 36.7408 26.6484 36.741 31.6919L36.7413 36.8825L36.501 36.6975C36.3688 36.5958 36.1683 36.3324 36.0555 36.1123C35.8514 35.7143 35.8484 35.6868 35.5121 31.1439C35.1791 26.6431 35.1761 26.5717 35.3108 26.3156C35.4738 26.0056 35.8383 25.8545 36.1835 25.9539C36.3068 25.9895 36.4166 26.0185 36.4277 26.0185ZM8.96352 29.5903C8.70183 29.667 8.29682 30.0902 8.23035 30.3562C8.20624 30.4526 8.19744 30.9951 8.21075 31.5619C8.23249 32.4867 8.25194 32.6162 8.39991 32.8246C8.69044 33.2337 8.93624 33.298 10.2103 33.298C11.2549 33.298 11.3633 33.2854 11.5116 33.1465C11.7463 32.927 11.7304 32.5366 11.4787 32.3378C11.3036 32.1995 11.1834 32.1838 10.2955 32.1838H9.30723V31.4038V30.6239H18.9203H28.5333V31.4038V32.1838H21.1052C15.742 32.1838 13.6261 32.2071 13.4937 32.2677C13.1185 32.4394 13.0851 33.0285 13.4398 33.2192C13.5318 33.2687 14.2667 33.298 15.4122 33.298H17.2381L17.199 35.4707C17.1682 37.1835 17.1264 37.8557 17.0015 38.6462C16.7423 40.286 16.6327 41.3117 16.6302 42.1188L16.6279 42.8802H16.3719C15.9967 42.8802 15.366 43.1409 15.0188 43.4393C14.5829 43.8141 14.2616 44.4954 14.2616 45.045C14.2616 45.4181 14.2914 45.5111 14.4774 45.7203L14.6932 45.9629H18.9203H23.1473L23.3631 45.7203C23.5492 45.5111 23.5789 45.4181 23.5789 45.045C23.5789 44.4954 23.2576 43.8141 22.8217 43.4393C22.4746 43.1409 21.8438 42.8802 21.4686 42.8802H21.2126L21.2103 42.1188C21.2079 41.3117 21.0982 40.286 20.839 38.6462C20.7141 37.8557 20.6723 37.1835 20.6415 35.4707L20.6024 33.298H24.6861C29.199 33.298 29.0972 33.3082 29.4406 32.8246C29.5905 32.6135 29.6077 32.4907 29.629 31.4779C29.6513 30.4151 29.6444 30.3517 29.4811 30.1105C29.3868 29.9714 29.2158 29.7877 29.101 29.7022L28.8922 29.5468L19.0443 29.5344C13.2321 29.5271 9.10092 29.5499 8.96352 29.5903ZM19.512 34.9879C19.5123 36.8159 19.588 37.905 19.8075 39.2405C20.0053 40.4436 20.1034 41.4279 20.1034 42.2088V42.8802H18.9203H17.7371V42.1531C17.7371 41.4115 17.8582 40.2524 18.0608 39.0547C18.2508 37.9313 18.3282 36.7557 18.3285 34.9879L18.3287 33.298H18.9203H19.5118L19.512 34.9879ZM11.7191 35.7428C12.0861 35.9102 12.4044 36.3073 12.4632 36.6709L12.5063 36.9378H6.80274C0.504871 36.9378 0.987149 36.9779 1.19915 36.4711C1.33093 36.1562 1.74074 35.7615 2.02122 35.6796C2.14448 35.6436 4.30845 35.6118 6.83002 35.609C11.156 35.6043 11.4319 35.6118 11.7191 35.7428ZM34.7775 35.8637C34.8172 36.0764 34.9809 36.498 35.1729 36.882C35.1882 36.9127 32.9808 36.9378 30.2675 36.9378H25.3342L25.3773 36.6709C25.4361 36.3073 25.7545 35.9102 26.1215 35.7428C26.407 35.6126 26.6825 35.6039 30.5771 35.6023L34.7283 35.6007L34.7775 35.8637ZM3.14002 38.182C3.08826 38.3519 1.7647 44.7442 1.7647 44.8244C1.7647 44.8581 1.69814 44.8858 1.6168 44.8858C1.53546 44.8858 1.46891 44.8531 1.46891 44.8132C1.46891 44.6885 2.05604 38.7005 2.10093 38.3677L2.14352 38.052H2.66159C3.1208 38.052 3.17515 38.0667 3.14002 38.182ZM11.9442 41.246C12.3125 44.9377 12.3108 44.9055 12.1364 44.8718C12.0295 44.8511 11.8928 44.2961 11.3257 41.5794C10.9505 39.7823 10.6424 38.2519 10.6409 38.1785C10.6386 38.0611 10.6974 38.0478 11.1338 38.0671L11.6294 38.0891L11.9442 41.246ZM27.1994 38.182C27.1977 38.2534 26.8886 39.7825 26.5125 41.5798C25.9495 44.2703 25.8062 44.8521 25.702 44.8722C25.612 44.8896 25.5753 44.8469 25.5749 44.7241C25.5743 44.483 26.1731 38.2586 26.2079 38.1448C26.2268 38.0829 26.3973 38.052 26.7193 38.052C27.131 38.052 27.2018 38.0711 27.1994 38.182ZM35.7368 38.4048C35.7913 38.8344 36.3716 44.6831 36.3716 44.8015C36.3716 44.8478 36.3051 44.8858 36.2237 44.8858C36.1424 44.8858 36.0758 44.8578 36.0758 44.8235C36.0758 44.7474 34.7526 38.3642 34.6991 38.182C34.6653 38.0669 34.7202 38.052 35.1766 38.052H35.6922L35.7368 38.4048ZM21.8736 44.1407C22.115 44.2644 22.4697 44.6797 22.4697 44.8388C22.4697 44.8647 20.8724 44.8858 18.9203 44.8858C16.9681 44.8858 15.3708 44.8647 15.3708 44.8388C15.3708 44.6857 15.7213 44.2663 15.9512 44.1443C16.2032 44.0105 16.4001 44.0007 18.9047 43.9977C21.4318 43.9946 21.6049 44.003 21.8736 44.1407Z" fill="white"/>
<path fill-rule="evenodd" clip-rule="evenodd" d="M4.57944 0.00673678C4.46843 0.0329591 4.40661 0.112071 4.09594 0.625564C3.73544 1.22147 3.6895 1.3396 3.7063 1.62788C3.721 1.87982 3.80933 2.08046 3.981 2.25173C4.19015 2.46039 4.31439 2.50716 4.6593 2.50716C5.00422 2.50716 5.12845 2.46039 5.3376 2.25173C5.58534 2.00458 5.68533 1.59192 5.57524 1.27084C5.5072 1.07239 4.92608 0.118864 4.84056 0.0653404C4.74971 0.00848308 4.65853 -0.0119617 4.57944 0.00673678ZM9.37127 0.00673678C9.26026 0.0329591 9.19845 0.112071 8.88777 0.625564C8.52727 1.22147 8.48133 1.3396 8.49813 1.62788C8.51283 1.87982 8.60116 2.08046 8.77283 2.25173C8.98198 2.46039 9.10622 2.50716 9.45113 2.50716C9.79605 2.50716 9.92029 2.46039 10.1294 2.25173C10.3772 2.00458 10.4772 1.59192 10.3671 1.27084C10.299 1.07239 9.71791 0.118864 9.63239 0.0653404C9.54154 0.00848308 9.45037 -0.0119617 9.37127 0.00673678ZM14.1631 0.00673678C14.0521 0.0329591 13.9903 0.112071 13.6796 0.625564C13.3191 1.22147 13.2732 1.3396 13.29 1.62788C13.3047 1.87982 13.393 2.08046 13.5647 2.25173C13.7738 2.46039 13.8981 2.50716 14.243 2.50716C14.5879 2.50716 14.7121 2.46039 14.9213 2.25173C15.169 2.00458 15.269 1.59192 15.1589 1.27084C15.0909 1.07239 14.5097 0.118864 14.4242 0.0653404C14.3334 0.00848308 14.2422 -0.0119617 14.1631 0.00673678ZM4.83197 1.21649C5.01278 1.523 5.02511 1.65665 4.88538 1.7955C4.68534 1.9943 4.33985 1.86033 4.33985 1.58401C4.33985 1.50023 4.38304 1.39211 4.48664 1.21649C4.56736 1.07963 4.64509 0.96766 4.6593 0.96766C4.67352 0.96766 4.75124 1.07963 4.83197 1.21649ZM9.6238 1.21649C9.80461 1.523 9.81694 1.65665 9.67721 1.7955C9.47717 1.9943 9.13168 1.86033 9.13168 1.58401C9.13168 1.50023 9.17487 1.39211 9.27847 1.21649C9.3592 1.07963 9.43692 0.96766 9.45113 0.96766C9.46535 0.96766 9.54307 1.07963 9.6238 1.21649ZM14.4156 1.21649C14.5964 1.523 14.6088 1.65665 14.469 1.7955C14.269 1.9943 13.9235 1.86033 13.9235 1.58401C13.9235 1.50023 13.9667 1.39211 14.0703 1.21649C14.151 1.07963 14.2288 0.96766 14.243 0.96766C14.2572 0.96766 14.3349 1.07963 14.4156 1.21649ZM6.88894 3.15989C6.83102 3.19344 6.26632 4.10754 6.1609 4.3384C6.11787 4.43262 6.09803 4.54611 6.09755 4.70068C6.09698 4.88888 6.11279 4.95751 6.19419 5.11935C6.37264 5.47424 6.65465 5.64707 7.05522 5.64707C7.45578 5.64707 7.7378 5.47424 7.91625 5.11935C7.99764 4.95751 8.01346 4.88888 8.01288 4.70068C8.0124 4.54611 7.99256 4.43262 7.94953 4.3384C7.83638 4.09065 7.27654 3.1909 7.21523 3.1583C7.13914 3.11782 6.96002 3.11871 6.88894 3.15989ZM11.6267 3.2137C11.491 3.34884 10.9563 4.26275 10.8996 4.45627C10.8087 4.76732 10.8964 5.09354 11.1421 5.35853C11.4951 5.7391 12.1156 5.75202 12.4967 5.38675C12.7446 5.1491 12.8554 4.78589 12.7758 4.47183C12.7307 4.2937 12.1263 3.27649 12.0129 3.18789C11.8966 3.09697 11.7329 3.10792 11.6267 3.2137ZM7.22328 4.32983C7.44071 4.6904 7.42087 4.91615 7.16441 5.00027C7.02538 5.04586 6.8576 4.99599 6.7863 4.88783C6.69589 4.75072 6.72266 4.60262 6.88715 4.32983C6.97043 4.19176 7.04605 4.07878 7.05522 4.07878C7.06439 4.07878 7.14 4.19176 7.22328 4.32983ZM12.0236 4.36602C12.1514 4.58259 12.1715 4.63888 12.1557 4.73564C12.1183 4.96478 11.8902 5.0878 11.6917 4.98583C11.569 4.92272 11.4834 4.76688 11.507 4.64945C11.53 4.53529 11.8125 4.07345 11.8466 4.09437C11.8611 4.10329 11.9407 4.22551 12.0236 4.36602Z" fill="white"/>
<path fill-rule="evenodd" clip-rule="evenodd" d="M19.2568 0.00673678C19.1458 0.0329591 19.0839 0.112071 18.7733 0.625564C18.4128 1.22147 18.3668 1.3396 18.3836 1.62788C18.3983 1.87982 18.4867 2.08046 18.6583 2.25173C18.8675 2.46039 18.9917 2.50716 19.3366 2.50716C19.6815 2.50716 19.8058 2.46039 20.0149 2.25173C20.2627 2.00458 20.3627 1.59192 20.2526 1.27083C20.1845 1.07239 19.6034 0.118864 19.5179 0.0653404C19.427 0.00848307 19.3359 -0.0119617 19.2568 0.00673678ZM24.0486 0.00673678C23.9376 0.0329591 23.8758 0.112071 23.5651 0.625564C23.2046 1.22147 23.1587 1.3396 23.1755 1.62788C23.1902 1.87982 23.2785 2.08046 23.4502 2.25173C23.6593 2.46039 23.7835 2.50716 24.1285 2.50716C24.4734 2.50716 24.5976 2.46039 24.8068 2.25173C25.0545 2.00458 25.1545 1.59192 25.0444 1.27083C24.9764 1.07239 24.3952 0.118864 24.3097 0.0653404C24.2189 0.00848307 24.1277 -0.0119617 24.0486 0.00673678ZM19.5093 1.21649C19.6901 1.523 19.7024 1.65665 19.5627 1.7955C19.3627 1.9943 19.0172 1.86033 19.0172 1.58401C19.0172 1.50023 19.0604 1.39211 19.164 1.21649C19.2447 1.07963 19.3224 0.96766 19.3366 0.96766C19.3508 0.96766 19.4286 1.07963 19.5093 1.21649ZM24.3011 1.21649C24.4819 1.523 24.4943 1.65665 24.3545 1.7955C24.1545 1.9943 23.809 1.86033 23.809 1.58401C23.809 1.50023 23.8522 1.39211 23.9558 1.21649C24.0365 1.07963 24.1142 0.96766 24.1285 0.96766C24.1427 0.96766 24.2204 1.07963 24.3011 1.21649ZM16.7744 3.15989C16.7165 3.19344 16.1518 4.10754 16.0464 4.3384C16.0034 4.43262 15.9835 4.54611 15.983 4.70068C15.9825 4.88888 15.9983 4.95751 16.0797 5.11935C16.2581 5.47424 16.5401 5.64707 16.9407 5.64707C17.3413 5.64707 17.6233 5.47424 17.8017 5.11935C17.8831 4.95751 17.8989 4.88888 17.8984 4.70068C17.8979 4.54611 17.8781 4.43262 17.835 4.3384C17.7219 4.09065 17.162 3.1909 17.1007 3.1583C17.0246 3.11782 16.8455 3.11871 16.7744 3.15989ZM21.5122 3.2137C21.3765 3.34884 20.8418 4.26275 20.7851 4.45627C20.6942 4.76732 20.7818 5.09354 21.0276 5.35853C21.3806 5.7391 22.0011 5.75202 22.3822 5.38675C22.6301 5.1491 22.7409 4.78589 22.6613 4.47183C22.6162 4.2937 22.0118 3.27649 21.8984 3.18789C21.7821 3.09697 21.6184 3.10792 21.5122 3.2137ZM17.1088 4.32983C17.3262 4.6904 17.3064 4.91615 17.0499 5.00027C16.9109 5.04586 16.7431 4.99599 16.6718 4.88783C16.5814 4.75072 16.6082 4.60262 16.7726 4.32983C16.8559 4.19176 16.9315 4.07878 16.9407 4.07878C16.9499 4.07878 17.0255 4.19176 17.1088 4.32983ZM21.9091 4.36602C22.0369 4.58259 22.057 4.63888 22.0412 4.73564C22.0038 4.96478 21.7757 5.0878 21.5772 4.98583C21.4545 4.92272 21.3688 4.76688 21.3925 4.64945C21.4155 4.53529 21.698 4.07344 21.7321 4.09437C21.7466 4.10329 21.8262 4.22551 21.9091 4.36602Z" fill="white"/>
<path fill-rule="evenodd" clip-rule="evenodd" d="M28.4178 0.00673678C28.3068 0.0329591 28.2449 0.112071 27.9343 0.625564C27.5738 1.22147 27.5278 1.3396 27.5446 1.62788C27.5593 1.87982 27.6477 2.08046 27.8193 2.25173C28.0285 2.46039 28.1527 2.50716 28.4976 2.50716C28.8426 2.50716 28.9668 2.46039 29.1759 2.25173C29.4237 2.00458 29.5237 1.59192 29.4136 1.27083C29.3455 1.07239 28.7644 0.118864 28.6789 0.0653404C28.588 0.00848307 28.4969 -0.0119617 28.4178 0.00673678ZM33.2096 0.00673678C33.0986 0.0329591 33.0368 0.112071 32.7261 0.625564C32.3656 1.22147 32.3197 1.3396 32.3365 1.62788C32.3512 1.87982 32.4395 2.08046 32.6112 2.25173C32.8203 2.46039 32.9446 2.50716 33.2895 2.50716C33.6344 2.50716 33.7586 2.46039 33.9678 2.25173C34.2155 2.00458 34.3155 1.59192 34.2054 1.27083C34.1374 1.07239 33.5563 0.118864 33.4707 0.0653404C33.3799 0.00848307 33.2887 -0.0119617 33.2096 0.00673678ZM28.6703 1.21649C28.8511 1.523 28.8634 1.65665 28.7237 1.7955C28.5237 1.9943 28.1782 1.86033 28.1782 1.58401C28.1782 1.50023 28.2214 1.39211 28.325 1.21649C28.4057 1.07963 28.4834 0.96766 28.4976 0.96766C28.5119 0.96766 28.5896 1.07963 28.6703 1.21649ZM33.4621 1.21649C33.6429 1.523 33.6553 1.65665 33.5156 1.7955C33.3155 1.9943 32.97 1.86033 32.97 1.58401C32.97 1.50023 33.0132 1.39211 33.1168 1.21649C33.1975 1.07963 33.2753 0.96766 33.2895 0.96766C33.3037 0.96766 33.3814 1.07963 33.4621 1.21649ZM25.9354 3.15989C25.8775 3.19344 25.3128 4.10754 25.2074 4.3384C25.1644 4.43262 25.1445 4.54611 25.1441 4.70068C25.1435 4.88888 25.1593 4.95751 25.2407 5.11935C25.4191 5.47424 25.7012 5.64707 26.1017 5.64707C26.5023 5.64707 26.7843 5.47424 26.9627 5.11935C27.0441 4.95751 27.06 4.88888 27.0594 4.70068C27.0589 4.54611 27.0391 4.43262 26.996 4.3384C26.8829 4.09065 26.323 3.1909 26.2617 3.1583C26.1856 3.11782 26.0065 3.11871 25.9354 3.15989ZM30.6732 3.2137C30.5375 3.34884 30.0028 4.26275 29.9461 4.45627C29.8552 4.76732 29.9429 5.09354 30.1886 5.35853C30.5416 5.7391 31.1622 5.75202 31.5432 5.38675C31.7911 5.1491 31.9019 4.78589 31.8223 4.47183C31.7772 4.2937 31.1728 3.27649 31.0594 3.18789C30.9431 3.09697 30.7794 3.10792 30.6732 3.2137ZM26.2698 4.32983C26.4872 4.6904 26.4674 4.91615 26.2109 5.00027C26.0719 5.04586 25.9041 4.99599 25.8328 4.88783C25.7424 4.75072 25.7692 4.60262 25.9337 4.32983C26.0169 4.19176 26.0926 4.07878 26.1017 4.07878C26.1109 4.07878 26.1865 4.19176 26.2698 4.32983ZM31.0702 4.36602C31.1979 4.58259 31.218 4.63888 31.2022 4.73564C31.1648 4.96478 30.9367 5.0878 30.7382 4.98583C30.6155 4.92272 30.5299 4.76688 30.5535 4.64945C30.5765 4.53529 30.859 4.07344 30.8931 4.09437C30.9076 4.10329 30.9873 4.22551 31.0702 4.36602Z" fill="white"/>
</svg>
