<svg width="46" height="43" viewBox="0 0 46 43" fill="none" xmlns="http://www.w3.org/2000/svg">
<path fill-rule="evenodd" clip-rule="evenodd" d="M14.7893 0.17787L14.5525 0.364039V1.88502C14.5525 3.28614 14.5667 3.4201 14.7322 3.58561C15.003 3.85632 15.4807 3.82524 15.7199 3.52118C15.9012 3.29063 15.9103 3.1953 15.8836 1.80595C15.8563 0.384525 15.8482 0.328907 15.6432 0.163134C15.3684 -0.0591544 15.0844 -0.0543025 14.7893 0.17787ZM7.90364 3.04651C7.7987 3.15145 7.72394 3.34598 7.72394 3.51409C7.72394 3.76189 7.87157 3.94968 8.78381 4.86184C9.94818 6.0262 10.1417 6.11776 10.5583 5.70112C10.979 5.28045 10.8858 5.08215 9.72176 3.92111C8.80861 3.01039 8.62505 2.86681 8.37401 2.86681C8.20311 2.86681 8.00931 2.94084 7.90364 3.04651ZM20.7793 3.78193C20.2584 4.29165 19.781 4.82715 19.7185 4.97199C19.4928 5.4942 19.9136 6.01524 20.4532 5.8819C20.7934 5.79789 22.6052 3.98553 22.6893 3.64518C22.7823 3.26871 22.495 2.92009 22.0615 2.88343C21.7444 2.85665 21.6754 2.90499 20.7793 3.78193ZM11.9534 3.28326C11.7401 3.55434 11.7266 3.66764 11.8694 3.98122C12.0084 4.28626 12.377 4.40585 12.726 4.25912C13.0154 4.13747 13.1149 3.97466 13.1149 3.62316C13.1149 3.06924 12.3076 2.83293 11.9534 3.28326ZM17.4716 3.22738C17.0985 3.63961 17.4055 4.33433 17.9607 4.33433C18.3531 4.33433 18.5958 4.07924 18.5958 3.66665C18.5958 3.41678 18.5427 3.2891 18.396 3.1864C18.115 2.98954 17.669 3.00931 17.4716 3.22738ZM14.4782 4.76138C12.2319 5.0489 10.2612 6.81328 9.7461 8.99817C9.57638 9.71777 9.5762 10.9303 9.74575 11.6492C10.2199 13.66 11.8673 15.3025 13.9236 15.8144C14.7458 16.0191 16.0961 15.9631 16.8886 15.6914C17.907 15.3423 18.3907 15.0361 19.1818 14.2396C20.558 12.8542 21.0983 11.0698 20.7073 9.20123C20.111 6.35137 17.3623 4.39219 14.4782 4.76138ZM16.5693 6.29827C18.5054 6.93719 19.74 8.94318 19.4299 10.9462C19.0683 13.2827 16.8008 14.9553 14.5424 14.5517C12.4316 14.1745 10.9585 12.4398 10.9585 10.3312C10.9585 9.17598 11.3134 8.27973 12.1066 7.43172C13.2686 6.18955 14.9477 5.76312 16.5693 6.29827ZM8.09898 7.11797C7.8226 7.41222 7.84093 7.83605 8.1404 8.07154C8.52675 8.37551 8.90655 8.30461 9.12183 7.88825C9.47566 7.20413 8.62199 6.56135 8.09898 7.11797ZM21.3968 7.11797C21.1204 7.41222 21.1387 7.83605 21.4382 8.07154C21.9188 8.44963 22.4953 8.18368 22.4953 7.58393C22.4953 6.97358 21.8068 6.68157 21.3968 7.11797ZM5.03501 9.93215C4.7925 10.2403 4.79996 10.4373 5.06555 10.7461L5.28245 10.9982H6.78052H8.27859L8.50204 10.7385C8.74545 10.4554 8.73323 10.1483 8.46673 9.85264C8.3422 9.71445 8.13725 9.6954 6.77315 9.6954H5.22117L5.03501 9.93215ZM21.9237 9.89208C21.5697 10.272 21.7777 10.869 22.3106 11.0027C22.429 11.0325 23.1133 11.0436 23.8312 11.0275C24.9635 11.0021 25.1616 10.9756 25.3254 10.8271C25.5719 10.6036 25.5766 10.1172 25.3345 9.8751C25.1689 9.70951 25.0351 9.6954 23.6309 9.6954C22.1789 9.6954 22.0983 9.70465 21.9237 9.89208ZM8.1404 12.5772C7.68387 12.9362 7.92781 13.7386 8.4936 13.7386C9.23648 13.7386 9.49686 12.7932 8.83673 12.4924C8.52487 12.3503 8.41121 12.3641 8.1404 12.5772ZM21.422 12.6115C20.9759 13.0575 21.2459 13.7386 21.8687 13.7386C22.0944 13.7386 22.2265 13.6754 22.3629 13.5019C22.5754 13.2318 22.5897 13.1172 22.4494 12.8093C22.3494 12.59 22.0296 12.3909 21.7771 12.3909C21.7031 12.3909 21.5433 12.4902 21.422 12.6115ZM9.74557 14.8935C9.59731 14.9872 9.08175 15.4676 8.59998 15.9611C7.89699 16.681 7.72394 16.91 7.72394 17.1203C7.72394 17.7151 8.24444 18.0089 8.74751 17.6981C8.90807 17.5988 9.43082 17.1143 9.90909 16.6214C10.6088 15.9003 10.7788 15.6734 10.7788 15.4606C10.7788 14.9009 10.2195 14.5938 9.74557 14.8935ZM19.8895 14.9366C19.7097 15.0913 19.648 15.225 19.6543 15.4462C19.6616 15.7027 19.8037 15.8884 20.6343 16.7265C21.1686 17.2657 21.7041 17.7458 21.8244 17.7934C22.2766 17.9722 22.8375 17.4569 22.6915 16.9969C22.6 16.7089 20.5313 14.727 20.3221 14.727C20.2182 14.727 20.0236 14.8213 19.8895 14.9366ZM11.9534 16.581C11.7404 16.8519 11.7266 16.9655 11.8687 17.2774C12.0764 17.7333 12.789 17.7738 13.0196 17.3429C13.3968 16.638 12.444 15.9573 11.9534 16.581ZM17.5126 16.51C17.0722 16.8666 17.378 17.6321 17.9607 17.6321C18.336 17.6321 18.5958 17.3753 18.5958 17.0042C18.5958 16.4266 17.9688 16.1405 17.5126 16.51ZM14.7479 17.0913C14.5636 17.2875 14.5525 17.3833 14.5525 18.7828C14.5525 20.2174 14.5594 20.2728 14.7604 20.4618C15.0364 20.7209 15.4055 20.7107 15.6797 20.4365C15.8954 20.2209 15.9003 20.1845 15.9003 18.7864C15.9003 17.4762 15.8847 17.3371 15.714 17.1201C15.4706 16.8107 15.0241 16.7974 14.7479 17.0913ZM26.4576 18.8742C26.0041 19.0402 25.68 19.3252 21.9816 22.811C20.0139 24.6656 18.3751 26.1934 18.3397 26.2063C18.3044 26.2192 17.6702 25.6612 16.9306 24.9664C15.2752 23.4112 15.02 23.2484 14.1487 23.1926C12.9911 23.1183 13.186 22.9658 7.09598 28.7096C4.11584 31.5204 1.55215 33.9251 1.39878 34.0534C1.23094 34.1939 0.959504 34.3079 0.71655 34.3398C0.056243 34.4266 -0.201806 34.9359 0.173048 35.4125C0.347896 35.6348 0.364069 35.637 2.27437 35.7013C4.36652 35.7717 4.49995 35.7492 4.6571 35.2981C4.75431 35.0194 4.58594 34.5502 4.35718 34.4625C4.27353 34.4304 3.96247 34.4041 3.66587 34.4041C3.36928 34.4041 3.14007 34.3664 3.1566 34.3204C3.19335 34.2176 13.1214 24.8587 13.4027 24.6617C13.6404 24.4953 14.2461 24.4815 14.5239 24.6361C14.8061 24.7932 17.2308 27.0628 17.2402 27.1785C17.2445 27.2319 16.6516 27.8335 15.9227 28.5154C14.4685 29.8758 14.2929 30.1253 14.5031 30.5319C14.6464 30.809 14.8046 30.9 15.1431 30.9C15.3312 30.9 18.7344 27.7792 23.5965 23.1484L23.9699 22.7926L27.4151 25.8464C31.8223 29.7529 32.4322 30.3891 33.0789 31.7548C33.3565 32.3412 33.3761 32.4446 33.3761 33.3259C33.3761 34.2234 33.3604 34.3022 33.0533 34.9453L32.7305 35.6211L31.6157 35.8328C30.2753 36.0874 27.1223 36.8756 25.6967 37.3126L24.6662 37.6285L23.0213 37.1883C19.9016 36.3536 16.2228 35.6213 12.8508 35.1638C11.9395 35.0402 11.1803 34.9254 11.1637 34.9087C11.147 34.8921 11.6559 34.387 12.2944 33.7863C12.9855 33.1363 13.4792 32.6 13.514 32.4615C13.6286 32.0046 13.0811 31.5286 12.6432 31.7045C12.532 31.7491 11.7335 32.4564 10.8687 33.2762C9.43298 34.6372 9.27287 34.7631 9.02677 34.7241C8.87851 34.7006 8.33268 34.6547 7.81379 34.6221C6.95887 34.5684 6.84997 34.5793 6.6532 34.739C6.35337 34.9823 6.35724 35.4429 6.66129 35.7044C6.85932 35.8748 7.10218 35.9167 8.67536 36.0525C13.2216 36.445 17.5449 37.1826 21.9652 38.3203C23.2006 38.6383 25.1503 39.1403 26.2979 39.4359C31.7594 40.8429 37.5505 41.7436 43.6174 42.1297C45.5509 42.2527 45.5258 42.2542 45.7794 42.0005C46.0568 41.7232 46.0613 41.3757 45.7912 41.1056C45.6047 40.9191 45.4678 40.8903 44.5108 40.8356C39.1338 40.5281 34.2438 39.8629 29.231 38.7567C28.236 38.5371 27.3888 38.3575 27.3486 38.3575C27.3083 38.3575 27.3136 38.3217 27.3606 38.2777C27.4075 38.2339 27.9312 38.0739 28.5242 37.9221C33.3484 36.6874 38.1697 36.0275 43.4985 35.8727C45.5169 35.8141 45.5957 35.805 45.7943 35.6063C45.9075 35.4932 46 35.2959 46 35.1678C46 34.8569 45.6258 34.494 45.3051 34.494C45.094 34.494 44.3258 33.8108 40.7342 30.4283C35.4983 25.4976 35.8156 25.7785 35.4844 25.7785C35.1257 25.7785 34.8586 26.062 34.8586 26.4425C34.8586 26.7279 35.1167 26.9901 38.9459 30.595C41.5047 33.004 42.9915 34.4648 42.9217 34.5013C42.8605 34.5335 42.1836 34.5846 41.4177 34.615C39.8691 34.6764 37.9429 34.8538 35.8573 35.1272C35.0971 35.2269 34.4645 35.297 34.4518 35.283C34.439 35.2691 34.5027 34.9747 34.5935 34.6287C34.9221 33.3754 34.783 32.1517 34.1745 30.9449C33.4555 29.5189 32.4426 28.4714 27.9182 24.4752L24.9762 21.8765L25.3126 21.5262C25.4976 21.3335 25.923 20.9379 26.2578 20.6469C26.8202 20.1583 26.8997 20.118 27.3014 20.118C27.6137 20.118 27.8093 20.1744 27.9954 20.3183C28.138 20.4284 29.3144 21.5201 30.6098 22.7442C32.7541 24.7707 32.9928 24.9699 33.2763 24.9699C33.8284 24.9699 34.1433 24.3441 33.8009 23.9274C33.3578 23.3883 28.7378 19.1443 28.4319 18.9954C28.0138 18.7919 26.8737 18.7219 26.4576 18.8742ZM22.7789 26.6971C22.702 26.8069 22.639 27 22.639 27.1263C22.639 27.5197 22.874 27.7552 23.2665 27.7552C23.5353 27.7552 23.6567 27.7014 23.8005 27.5185C23.9029 27.3883 23.9868 27.2118 23.9868 27.1263C23.9868 27.0407 23.9029 26.8643 23.8005 26.7341C23.5522 26.4183 22.9885 26.3979 22.7789 26.6971ZM20.7032 29.2337C20.5819 29.355 20.4826 29.559 20.4826 29.687C20.4826 29.9797 20.8546 30.3609 21.1403 30.3609C21.4964 30.3609 21.8304 30.0347 21.8304 29.687C21.8304 29.4684 21.7653 29.3344 21.5936 29.1994C21.2796 28.9523 20.9727 28.9642 20.7032 29.2337ZM29.8553 32.6984C29.6187 32.7928 29.4676 33.0524 29.4676 33.3649C29.4676 33.9307 30.2701 34.1746 30.6291 33.7181C30.8686 33.4138 30.8644 33.2102 30.6132 32.9339C30.3724 32.669 30.1233 32.5917 29.8553 32.6984Z" fill="white"/>
</svg>
