<svg width="46" height="46" viewBox="0 0 46 46" fill="none" xmlns="http://www.w3.org/2000/svg">
<path fill-rule="evenodd" clip-rule="evenodd" d="M7.31098 0.203211C6.92656 0.362502 6.62705 0.578997 6.26997 0.955592C5.78527 1.46674 5.74983 1.48617 5.19829 1.54382C4.63641 1.60256 4.01409 1.87941 3.76252 2.18252C3.68732 2.27318 3.49637 2.32265 3.22186 2.32265C2.66619 2.32265 1.78771 2.75645 1.43531 3.205C0.917952 3.86339 0.835743 4.10606 0.835383 4.97599C0.835023 5.70472 0.861557 5.83334 1.10072 6.26516C1.40329 6.8113 1.69795 7.08563 2.35445 7.43191L2.81379 7.67431H7.71573H12.6177L13.184 7.36724C13.7484 7.06125 14.1051 6.69752 14.4264 6.10029C14.5563 5.85888 14.5958 5.59688 14.5961 4.97599C14.5964 4.24727 14.5699 4.11865 14.3307 3.68683C13.8611 2.83902 12.9965 2.31527 12.0592 2.31078L11.5374 2.30835L11.2966 1.79828C10.7662 0.674877 9.81925 0.0524652 8.5702 0.00614413C7.9691 -0.016162 7.76178 0.0163078 7.31098 0.203211ZM9.30351 1.79153C9.75827 2.07252 9.99032 2.52232 9.98825 3.11856C9.98565 3.88066 10.2109 4.20329 10.7492 4.20859C10.9087 4.21021 11.1718 4.1307 11.3338 4.03194C12.0714 3.58222 12.9927 4.00973 13.0842 4.84414C13.1195 5.16542 13.0857 5.30861 12.9152 5.55928C12.7981 5.7317 12.6022 5.92337 12.4801 5.98525C12.3111 6.07079 11.1528 6.09795 7.63766 6.09894L3.01751 6.10029L2.65693 5.73971C2.31028 5.39315 2.29805 5.36113 2.34113 4.9133C2.37891 4.52043 2.43728 4.40035 2.7144 4.14635C3.02777 3.85925 3.07274 3.84603 3.68229 3.86141L4.3217 3.8776L4.67626 3.50487C5.10484 3.05443 5.30694 2.99345 5.79723 3.16659C6.43484 3.39163 6.71169 3.25231 7.05087 2.53519C7.49654 1.5932 8.46523 1.27336 9.30351 1.79153ZM38.691 4.6933C38.4378 4.75743 38.0466 4.9178 37.8215 5.04975C37.4378 5.27461 36.7676 5.95296 36.7676 6.11648C36.7676 6.15705 36.5437 6.19024 36.27 6.19024C35.7193 6.19024 35.2631 6.34773 34.8799 6.67027C34.711 6.8122 34.4578 6.90277 34.1174 6.9428C33.2167 7.04866 32.3949 7.61927 31.9383 8.45592C31.6878 8.91455 31.7079 10.3347 31.9716 10.828C32.2412 11.3323 32.7671 11.822 33.3217 12.0851L33.7883 12.3064L38.6284 12.3055L43.4684 12.3046L43.9631 12.0753C44.5782 11.79 44.9884 11.4046 45.2965 10.8223C45.5 10.438 45.5346 10.2615 45.5348 9.6081C45.535 8.98839 45.4968 8.77163 45.3331 8.46384C44.8393 7.53463 44.055 7.01529 43.0201 6.93218L42.4361 6.88532L42.2143 6.40107C41.6208 5.10461 40.0578 4.34702 38.691 4.6933ZM40.3235 6.50126C40.7365 6.81625 40.905 7.20966 40.905 7.85825C40.905 8.29591 40.9398 8.39755 41.1679 8.62565C41.4907 8.94837 41.6434 8.95232 42.2936 8.6547C42.9145 8.37039 43.2921 8.41131 43.6864 8.80554C44.1842 9.30338 44.1303 10.1319 43.5744 10.5285L43.2885 10.7324L38.7241 10.7573C33.6744 10.7848 33.7935 10.7971 33.4361 10.2108C33.1135 9.68195 33.2622 8.99586 33.7724 8.65893C33.9641 8.53229 34.1701 8.49676 34.6354 8.51007L35.2464 8.52761L35.6392 8.12349C36.0581 7.69248 36.1832 7.65992 36.7941 7.82326C37.4077 7.98741 37.6262 7.8846 37.9273 7.29043C38.3618 6.43335 38.7511 6.17288 39.5269 6.22037C39.8694 6.24141 40.0801 6.31562 40.3235 6.50126ZM15.1234 10.5476C14.929 10.6322 14.8081 10.7698 14.7358 10.9888C14.6337 11.2982 14.69 11.4396 16.7161 15.9664C17.8631 18.529 18.821 20.6764 18.8448 20.7384C18.8791 20.8279 17.7896 20.8511 13.5483 20.8511H8.20862L6.36567 17.1545C5.27897 14.9749 4.43467 13.3878 4.30821 13.2869C4.11339 13.1316 3.9272 13.1159 2.27898 13.1159C0.598921 13.1159 0.450064 13.129 0.274403 13.2927C0.169978 13.3901 0.0579981 13.5534 0.0254384 13.6558C-0.00703134 13.7583 0.298238 15.8329 0.703975 18.2659C1.39933 22.4362 1.43234 22.6951 1.28034 22.7824C0.92101 22.9884 0.406621 23.5129 0.236177 23.847C-0.331279 24.9595 0.164941 26.4315 1.28483 26.9578C1.60926 27.1104 3.06536 27.3394 8.2804 28.058C11.9026 28.5572 14.8779 28.9763 14.8921 28.9891C14.9062 29.002 14.1133 30.1815 13.1299 31.6102C8.67049 38.0891 8.52523 38.3101 8.52523 38.6165C8.52523 39.1732 8.68731 39.2607 10.6117 39.7437C11.9191 40.0718 12.4373 40.167 12.5903 40.1071C12.7043 40.0625 15.2818 37.8163 18.318 35.1156C22.6484 31.2638 23.8894 30.2055 24.0745 30.2064C24.2042 30.2071 25.6056 30.3305 27.1886 30.4805C32.0264 30.9389 34.5607 30.9355 38.3416 30.4652C40.6685 30.1758 41.6911 29.9213 43.4917 29.1838C45.2573 28.4606 45.4864 28.3167 45.7766 27.7482C46.1717 26.9738 46.0335 26.0697 45.4351 25.5136C45.162 25.2599 40.8459 22.7136 39.7807 22.1779C38.9396 21.7548 37.7599 21.3455 36.6956 21.1076C35.8939 20.9284 35.513 20.9096 31.9963 20.8752L28.1692 20.8377L23.7214 15.7745C21.275 12.9896 19.1661 10.6452 19.0348 10.5644C18.8356 10.4419 18.5155 10.4181 17.101 10.4211C15.872 10.4237 15.3282 10.4584 15.1234 10.5476ZM22.1835 16.3767L26.0829 20.8061L23.3617 20.83C21.8649 20.8431 20.6225 20.836 20.6007 20.8142C20.5165 20.7298 16.7108 12.1652 16.7105 12.0591C16.7102 11.9777 16.9272 11.9467 17.4971 11.9469L18.2841 11.9472L22.1835 16.3767ZM5.1982 18.3378C6.21178 20.3689 7.11626 22.0992 7.208 22.1829C7.3627 22.3242 8.39733 22.3387 21.5091 22.384C34.3846 22.4285 35.6993 22.4464 36.2729 22.5853C38.0023 23.0042 39.5668 23.6754 39.7815 24.0907C39.9174 24.3534 39.9168 24.3547 39.5606 24.5365C39.2457 24.697 39.032 24.7187 37.7606 24.7187H36.3179V25.4832V26.2477H37.9236H39.5292L40.5238 25.7596C41.0708 25.4912 41.5524 25.2141 41.5939 25.1438C41.654 25.0426 41.9459 25.1783 43.0098 25.8022C44.3615 26.5951 44.5465 26.7488 44.4503 26.9993C44.3457 27.2722 41.4996 28.3637 40.2096 28.6257C38.0468 29.0651 34.2174 29.3607 31.8323 29.2724C30.4516 29.2213 26.9711 28.9469 25.9009 28.8048L25.5125 28.7533L26.2838 28.0177C26.8983 27.4317 27.055 27.2304 27.0544 27.0278C27.0537 26.761 26.6298 26.2484 26.4085 26.2468C26.3428 26.2464 24.3527 26.0667 21.9859 25.8475C19.1891 25.5885 17.6097 25.4768 17.4743 25.5283C17.3584 25.5723 16.9754 26.029 16.6112 26.5572C16.1375 27.2442 15.9051 27.5069 15.7711 27.5069C15.4278 27.507 2.45743 25.7098 2.11726 25.6151C1.71252 25.5024 1.46805 25.1127 1.55466 24.7183C1.62203 24.4116 1.73536 24.3088 2.39753 23.9542C2.74309 23.7691 2.92874 23.6054 2.98873 23.4329C3.05628 23.2388 2.92595 22.2646 2.41741 19.1606C2.05502 16.9491 1.73797 15.0283 1.71279 14.8923L1.667 14.645H2.51113H3.35525L5.1982 18.3378ZM10.0543 23.9542V24.7187H10.8188H11.5833V23.9542V23.1896H10.8188H10.0543V23.9542ZM13.1124 23.9542V24.7187H13.8769H14.6414V23.9542V23.1896H13.8769H13.1124V23.9542ZM16.2604 23.9542V24.7187H17.0249H17.7894V23.9542V23.1896H17.0249H16.2604V23.9542ZM19.3185 23.9542V24.7187H20.083H20.8475V23.9542V23.1896H20.083H19.3185V23.9542ZM22.3766 23.9542V24.7187H23.1411H23.9056V23.9542V23.1896H23.1411H22.3766V23.9542ZM25.5246 23.9542V24.7187H26.2891H27.0537V23.9542V23.1896H26.2891H25.5246V23.9542ZM28.5827 23.9542V24.7187H29.3472H30.1118V23.9542V23.1896H29.3472H28.5827V23.9542ZM21.2251 27.33C22.8725 27.48 24.257 27.6137 24.3016 27.6269C24.3914 27.6535 12.3746 38.3683 12.1644 38.449C12.0225 38.5034 10.7776 38.2316 10.6536 38.119C10.5717 38.0448 18.0617 27.0572 18.1941 27.0572C18.2138 27.0572 19.5778 27.18 21.2251 27.33ZM22.9404 38.0204C22.3585 38.2372 22.0379 38.4617 21.5956 38.9623C21.2861 39.3125 21.2006 39.3568 20.7274 39.4118C20.1749 39.476 19.8201 39.6208 19.347 39.9748C19.1717 40.1059 18.9375 40.189 18.7432 40.189C17.9334 40.189 16.9281 40.8502 16.5163 41.6538C16.248 42.1771 16.1886 43.1645 16.3891 43.768C16.6003 44.4039 17.1429 44.9858 17.831 45.3142L18.3998 45.5857H23.1762H27.9527L28.5314 45.3122C29.5125 44.8487 30.1092 43.9471 30.1109 42.9258C30.1122 42.1033 29.8939 41.5769 29.3089 40.9919C28.739 40.422 28.199 40.189 27.4474 40.189H26.9738L26.7323 39.6508C26.4465 39.0142 25.8098 38.3784 25.1881 38.1091C24.5604 37.8372 23.5402 37.7969 22.9404 38.0204ZM24.6072 39.5958C25.1548 39.8808 25.4532 40.3871 25.4483 41.0228C25.4439 41.5972 25.6204 41.941 25.9852 42.0681C26.2308 42.1538 26.3391 42.136 26.747 41.943C27.5085 41.5827 27.989 41.6732 28.3776 42.2498C28.7676 42.8285 28.5501 43.5977 27.915 43.8862C27.5744 44.0409 27.2395 44.0527 23.1861 44.0527C19.0928 44.0527 18.8006 44.0421 18.4475 43.8819C17.6134 43.5032 17.5506 42.4456 18.3305 41.9149C18.5981 41.7326 18.7134 41.7094 19.1198 41.7559C19.6629 41.8182 19.8315 41.7508 20.2437 41.3072C20.5684 40.9579 20.7822 40.9182 21.4007 41.0928C21.7696 41.1969 21.8463 41.193 22.0504 41.0592C22.1777 40.9759 22.3866 40.6861 22.5146 40.4156C22.7276 39.9652 23.0174 39.6654 23.366 39.5344C23.6304 39.435 24.3683 39.4715 24.6072 39.5958Z" fill="white"/>
</svg>
