<svg width="34" height="48" viewBox="0 0 34 48" fill="none" xmlns="http://www.w3.org/2000/svg">
<path fill-rule="evenodd" clip-rule="evenodd" d="M1.1318 43.6235C1.30611 43.8107 1.42082 43.8316 2.2723 43.8316L3.219 43.8316L3.219 45.1969C3.219 46.4342 3.23744 46.5856 3.41602 46.8126L3.61295 47.063L6.26726 47.063C8.79479 47.063 8.93051 47.054 9.11157 46.8729C9.28473 46.6997 9.30165 46.5561 9.30165 45.2572L9.30165 43.8316L17 43.8316L24.6983 43.8316L24.6983 45.2572C24.6983 46.5561 24.7153 46.6997 24.8884 46.8729C25.0695 47.054 25.2052 47.063 27.7327 47.063L30.387 47.063L30.584 46.8126C30.7625 46.5856 30.781 46.4342 30.781 45.1969L30.781 43.8316L31.7277 43.8316C33.1408 43.8316 33.062 44.0042 33.062 40.9106L33.062 38.4056L32.8287 38.1723C32.6136 37.9572 32.5247 37.939 31.6882 37.939L30.781 37.939L30.781 35.479L30.781 33.019L31.7429 32.9803C33.141 32.9242 33.062 33.103 33.062 29.9925C33.062 26.9182 33.1477 27.1043 31.7314 27.1043L30.781 27.1043L30.781 24.5857L30.781 22.0671L31.6882 22.0671C32.5247 22.0671 32.6136 22.049 32.8287 21.8338L33.062 21.6006L33.062 19.1379C33.062 16.0378 33.1238 16.1746 31.7245 16.1746L30.781 16.1746L30.781 13.656L30.781 11.1374L31.7149 11.1374C33.1333 11.1374 33.062 11.2925 33.062 8.20439L33.062 5.71136L32.8287 5.47813C32.6136 5.26296 32.5247 5.24481 31.6882 5.24481L30.781 5.24481L30.781 3.40433C30.781 1.68627 30.7679 1.54713 30.584 1.31342L30.387 1.06299L27.7327 1.06299C25.2052 1.06299 25.0695 1.07202 24.8884 1.25307C24.711 1.43051 24.6983 1.56984 24.6983 3.34398L24.6983 5.24481L17 5.24481L9.30165 5.24481L9.30165 3.34398C9.30165 1.56984 9.28901 1.43051 9.11156 1.25307C8.93051 1.07202 8.79479 1.06299 6.26726 1.06299L3.61295 1.06299L3.41602 1.31342C3.23212 1.54713 3.219 1.68627 3.219 3.40433L3.219 5.24481L2.31183 5.24481C1.47528 5.24481 1.38641 5.26296 1.17134 5.47813L0.93801 5.71136L0.93801 8.2177C0.93801 10.7147 0.938865 10.7249 1.15794 10.9307C1.35258 11.1135 1.48412 11.1374 2.29843 11.1374L3.219 11.1374L3.219 13.656L3.219 16.1746L2.27553 16.1746C0.876233 16.1746 0.93801 16.0378 0.93801 19.1379L0.93801 21.6006L1.17134 21.8338C1.38642 22.049 1.47528 22.0671 2.31183 22.0671L3.219 22.0671L3.219 24.5857L3.219 27.1043L2.26859 27.1043C0.852283 27.1043 0.93801 26.9182 0.938011 29.9925C0.938011 33.103 0.859031 32.9242 2.25709 32.9803L3.219 33.019L3.219 35.479L3.219 37.939L2.31183 37.939C1.47528 37.939 1.38642 37.9572 1.17134 38.1723L0.938011 38.4056L0.938011 40.9106C0.938011 43.3001 0.946945 43.4252 1.1318 43.6235ZM2.7438 39.2696L3.219 39.2696L3.219 40.8853L3.219 42.501L2.7438 42.501L2.26859 42.501L2.26859 40.8853L2.26859 39.2696L2.7438 39.2696ZM2.7438 28.3398L3.219 28.3398L3.219 30.0031L3.219 31.6663L2.7438 31.6663L2.26859 31.6663L2.26859 30.0031L2.26859 28.3398L2.7438 28.3398ZM2.7438 17.5051L3.219 17.5051L3.219 19.1208L3.219 20.7365L2.7438 20.7365L2.26859 20.7365L2.26859 19.1208L2.26859 17.5051L2.7438 17.5051ZM2.74379 6.57539L3.219 6.57539L3.219 8.19109L3.219 9.80679L2.74379 9.80679L2.26859 9.80679L2.26859 8.19109L2.26859 6.57539L2.74379 6.57539ZM6.26032 2.39357L7.97107 2.39357L7.97107 24.063L7.97107 45.7324L6.26032 45.7324L4.54958 45.7324L4.54958 24.063L4.54958 2.39357L6.26032 2.39357ZM5.81924 41.3082C6.11016 41.5992 6.47607 41.62 6.73553 41.3605C7.01172 41.0843 6.98159 40.658 6.66834 40.4116C6.25928 40.0898 5.76963 40.279 5.63971 40.8093C5.59076 41.0089 5.63058 41.1196 5.81924 41.3082ZM5.70861 30.2882C5.85954 30.5543 5.97777 30.6177 6.32619 30.6194C6.53319 30.6204 6.67679 30.5536 6.77763 30.4096C7.09431 29.9575 6.84131 29.3843 6.32619 29.3867C5.9695 29.3884 5.85241 29.4541 5.70433 29.7354C5.57099 29.9887 5.57147 30.0463 5.70861 30.2882ZM5.71726 19.4043C5.78293 19.5342 5.95344 19.6815 6.09619 19.7317C6.67974 19.9369 7.18327 19.0934 6.74114 18.6512C6.47901 18.3891 6.11292 18.4042 5.82836 18.6889C5.56481 18.9523 5.54694 19.0677 5.71726 19.4043ZM5.78664 8.5991C5.92426 8.77407 6.07794 8.85638 6.26726 8.85638C6.88836 8.85638 7.15476 8.10004 6.66834 7.7174C6.05741 7.23687 5.30611 7.98817 5.78664 8.5991ZM17 39.2696L24.6983 39.2696L24.6983 40.8853L24.6983 42.501L17 42.501L9.30165 42.501L9.30165 40.8853L9.30165 39.2696L17 39.2696ZM17 32.9969L24.6983 32.9969L24.6983 35.4679L24.6983 37.939L17 37.939L9.30165 37.939L9.30165 35.4679L9.30165 32.9969L17 32.9969ZM17 28.3398L24.6983 28.3398L24.6983 30.0031L24.6983 31.6663L17 31.6663L9.30165 31.6663L9.30165 30.0031L9.30165 28.3398L17 28.3398ZM17 22.0671L24.6983 22.0671L24.6983 24.5857L24.6983 27.1043L17 27.1043L9.30165 27.1043L9.30165 24.5857L9.30165 22.0671L17 22.0671ZM17 17.5051L24.6983 17.5051L24.6983 19.1208L24.6983 20.7365L17 20.7365L9.30165 20.7365L9.30165 19.1208L9.30165 17.5051L17 17.5051ZM17 11.1374L24.6983 11.1374L24.6983 13.656L24.6983 16.1746L17 16.1746L9.30165 16.1746L9.30165 13.656L9.30165 11.1374L17 11.1374ZM17 6.57539L24.6983 6.57539L24.6983 8.19109L24.6983 9.80679L17 9.80679L9.30165 9.80679L9.30165 8.19109L9.30165 6.57539L17 6.57539ZM27.7397 2.39356L29.4504 2.39356L29.4504 24.063L29.4504 45.7324L27.7397 45.7324L26.0289 45.7324L26.0289 24.063L26.0289 2.39357L27.7397 2.39356ZM27.2645 41.3605C27.5406 41.6367 27.967 41.6066 28.2134 41.2933C28.6939 40.6824 27.9426 39.9311 27.3317 40.4116C27.0184 40.658 26.9883 41.0843 27.2645 41.3605ZM27.2224 30.4096C27.3255 30.5569 27.4674 30.6208 27.6907 30.6208C28.2556 30.6208 28.5554 30.1082 28.2393 29.6828C27.7162 28.9789 26.7193 29.6914 27.2224 30.4096ZM27.3248 19.5891C27.6307 19.8298 27.8471 19.8383 28.1053 19.6198C28.4322 19.3431 28.462 18.9791 28.1807 18.6979C27.8898 18.407 27.5239 18.3862 27.2645 18.6456C26.9909 18.9192 27.0184 19.3482 27.3248 19.5891ZM27.2645 8.66629C27.6941 9.09598 28.4982 8.67913 28.3566 8.10013C28.2305 7.58472 27.7353 7.39987 27.3316 7.7174C27.0184 7.96375 26.9883 8.39011 27.2645 8.66629ZM31.2562 39.2696L31.7314 39.2696L31.7314 40.8853L31.7314 42.501L31.2562 42.501L30.781 42.501L30.781 40.8853L30.781 39.2696L31.2562 39.2696ZM31.2562 28.3398L31.7314 28.3398L31.7314 30.0031L31.7314 31.6663L31.2562 31.6663L30.781 31.6663L30.781 30.0031L30.781 28.3398L31.2562 28.3398ZM31.2562 17.5051L31.7314 17.5051L31.7314 19.1208L31.7314 20.7365L31.2562 20.7365L30.781 20.7365L30.781 19.1208L30.781 17.5051L31.2562 17.5051ZM31.2562 6.57538L31.7314 6.57538L31.7314 8.19109L31.7314 9.80679L31.2562 9.80679L30.781 9.80679L30.781 8.19109L30.781 6.57538L31.2562 6.57538Z" fill="white" stroke="white" stroke-width="0.5"/>
</svg>
