<svg width="47" height="46" viewBox="0 0 47 46" fill="none" xmlns="http://www.w3.org/2000/svg">
<path fill-rule="evenodd" clip-rule="evenodd" d="M10.3497 0.065353C9.06185 0.290437 7.91772 0.90215 6.92189 1.89797C6.10705 2.7129 5.63259 3.4813 5.287 4.54579C5.1007 5.11989 5.05552 5.47025 5.01844 6.63076L4.9738 8.02573L4.31682 8.70521C3.61448 9.43158 3.47769 9.74594 3.59405 10.3663C3.67649 10.8054 4.22917 11.3671 4.65818 11.4475C5.30077 11.568 5.60811 11.4367 6.34033 10.7287L7.01981 10.0717L8.41477 10.0269C9.59185 9.98911 9.92223 9.94564 10.5297 9.74873C11.5567 9.41574 12.3136 8.94235 13.1399 8.11599C13.9613 7.29459 14.4342 6.54149 14.7788 5.5058C15.0077 4.81776 15.0186 4.69933 15.0239 2.83548C15.0292 1.00142 15.0185 0.870291 14.844 0.636117C14.398 0.0374537 14.3231 0.0173843 12.4809 0.00136472C11.5562 -0.00673506 10.5972 0.0220642 10.3497 0.065353ZM12.1739 3.65401C12.0916 5.09559 11.4031 6.16494 10.1624 6.77809C9.59428 7.05888 9.39386 7.1091 8.67702 7.14996L7.84833 7.19721L7.89486 6.38084C7.93247 5.72188 7.99421 5.45162 8.21543 4.97904C8.56453 4.23287 9.08309 3.67146 9.75267 3.31453C10.4005 2.9693 10.7973 2.87157 11.5997 2.85987L12.2196 2.85087L12.1739 3.65401ZM35.234 6.55013C34.3054 6.69259 32.7733 7.24509 31.9564 7.73197C31.0691 8.26098 30.1391 9.04396 29.8571 9.49935C29.4579 10.1443 29.6618 11.0083 30.3059 11.4012C31.0042 11.8272 31.5134 11.7244 32.3641 10.9857C33.0761 10.3674 33.869 9.91648 34.769 9.61796C35.3716 9.41808 35.6131 9.3891 36.674 9.38928C37.7465 9.38946 37.9734 9.41745 38.609 9.62777C39.6428 9.96994 40.3968 10.443 41.2191 11.2654C42.0415 12.0878 42.5146 12.8417 42.8567 13.8756C43.0671 14.5111 43.0951 14.738 43.0952 15.8105C43.0954 16.8714 43.0664 17.113 42.8666 17.7155C42.5105 18.789 42.0378 19.5523 41.2268 20.3633C40.4211 21.169 39.6654 21.6388 38.579 22.0098L37.889 22.2453L19.3785 22.2903L0.868116 22.3353L0.619633 22.5209C0.147326 22.8735 0 23.1612 0 23.7303C0 24.2994 0.147416 24.5871 0.619633 24.9397L0.868206 25.1253H19.4685H38.069L38.8668 24.9143C42.9555 23.8334 45.766 20.4611 46.004 16.3504C46.2634 11.8695 43.3089 7.85806 38.9153 6.72562C38.0326 6.4982 36.1561 6.40865 35.234 6.55013ZM17.4145 8.03068C16.0384 8.32623 14.3599 9.49602 14.2167 10.2593C14.1165 10.7937 14.244 11.2212 14.614 11.5912C15.2001 12.1773 15.9443 12.1725 16.6638 11.578C17.2572 11.0876 17.8102 10.8454 18.456 10.793C19.6472 10.6962 20.6786 11.2841 21.2094 12.3623C21.475 12.9021 21.5091 13.0544 21.5067 13.6937C21.5046 14.2732 21.4606 14.5043 21.2839 14.8655C21.004 15.4376 20.465 15.9776 19.8895 16.2627L19.4395 16.4855L11.5938 16.5305C3.84533 16.575 3.74489 16.5778 3.49946 16.7611C3.02725 17.1137 2.87992 17.4013 2.87992 17.9705C2.87992 18.5396 3.02725 18.8272 3.49955 19.1798C3.74543 19.3634 3.82994 19.3657 11.4799 19.3894C20.1804 19.4164 19.9482 19.4312 21.2844 18.7623C24.2031 17.3011 25.2978 13.6027 23.6492 10.772C22.3988 8.62484 19.8553 7.50644 17.4145 8.03068ZM6.56532 28.1755C5.51028 28.6402 5.45151 30.1928 6.46704 30.7747C6.615 30.8595 9.07409 30.8955 17.0545 30.9301L27.4493 30.9751L28.0504 31.2599C29.2696 31.8375 30.0568 32.9389 30.1638 34.2169C30.4211 37.2915 26.9372 39.2471 24.4765 37.4095C24.2449 37.2365 23.9321 37.0039 23.7816 36.8924C23.424 36.628 22.7129 36.6153 22.3018 36.866C21.7589 37.197 21.5027 37.8506 21.665 38.4903C21.8474 39.2087 23.2528 40.2461 24.6893 40.7226C25.2918 40.9224 25.5334 40.9514 26.5943 40.9512C27.6668 40.9511 27.8937 40.9231 28.5292 40.7127C29.5631 40.3706 30.317 39.8975 31.1394 39.0751C31.9618 38.2528 32.4348 37.4988 32.777 36.465C32.9873 35.8294 33.0153 35.6025 33.0155 34.53C33.0157 33.4691 32.9867 33.2276 32.7868 32.625C32.4308 31.5515 31.958 30.7882 31.1471 29.9772C30.3414 29.1715 29.5857 28.7017 28.4993 28.3307L27.8092 28.0952L17.3245 28.0748C8.71104 28.0582 6.79085 28.0761 6.56532 28.1755ZM35.3645 28.8968C34.9959 29.0573 34.6244 29.5154 34.5526 29.8977C34.4369 30.5147 34.5745 30.8301 35.276 31.5556L35.933 32.2351L35.9778 33.63C36.0156 34.8071 36.0591 35.1375 36.256 35.745C36.589 36.7719 37.0623 37.5288 37.8887 38.3552C38.7101 39.1766 39.4632 39.6494 40.4989 39.994C41.1869 40.223 41.3054 40.2339 43.1692 40.2392C45.0033 40.2445 45.1344 40.2338 45.3686 40.0593C45.5056 39.9572 45.7011 39.7617 45.8032 39.6247C45.9777 39.3905 45.9884 39.2594 45.9831 37.4253C45.9778 35.5615 45.9669 35.443 45.7379 34.755C45.3933 33.7193 44.9205 32.9662 44.0991 32.1448C43.2727 31.3184 42.5158 30.8451 41.4889 30.5121C40.8799 30.3147 40.5537 30.2719 39.3739 30.2352L37.979 30.1918L37.349 29.5757C36.5184 28.7636 36.0435 28.6011 35.3645 28.8968ZM41.0257 33.4307C41.8359 33.8098 42.3697 34.33 42.7612 35.1223C43.042 35.6904 43.0922 35.8909 43.133 36.6077L43.1803 37.4364L42.3516 37.3891C41.6348 37.3483 41.4343 37.2981 40.8662 37.0173C39.6207 36.4018 38.937 35.3358 38.854 33.88L38.8075 33.0636L39.6239 33.1101C40.2828 33.1477 40.5531 33.2095 41.0257 33.4307ZM12.3747 34.6299C12.2509 34.6786 11.8662 34.9959 11.5197 35.335L10.8897 35.9516L9.49474 35.9949C8.33143 36.031 7.98521 36.0754 7.40977 36.2621C6.34528 36.6077 5.57688 37.0822 4.76195 37.897C3.95197 38.707 3.47976 39.4689 3.12094 40.5448C2.90332 41.1973 2.89045 41.3408 2.88532 43.1852C2.87938 45.3329 2.88604 45.3617 3.50009 45.8191C3.73427 45.9936 3.86539 46.0043 5.69945 45.999C7.5633 45.9937 7.68174 45.9828 8.36977 45.7539C9.40546 45.4093 10.1586 44.9364 10.98 44.115C11.8063 43.2887 12.2797 42.5318 12.6127 41.5048C12.8096 40.8973 12.8531 40.567 12.8909 39.3899L12.9357 37.9949L13.5927 37.3154C14.2941 36.59 14.4317 36.2745 14.3161 35.6576C14.1622 34.8376 13.175 34.3151 12.3747 34.6299ZM10.0139 39.653C9.93168 41.0946 9.2432 42.164 8.00249 42.7771C7.43434 43.0579 7.23391 43.1081 6.51708 43.149L5.68839 43.1962L5.73491 42.3799C5.77253 41.7209 5.83427 41.4506 6.05549 40.9781C6.40459 40.2319 6.92315 39.6705 7.59273 39.3136C8.24054 38.9683 8.63733 38.8706 9.43975 38.8589L10.0597 38.8499L10.0139 39.653Z" fill="white"/>
</svg>
