<svg width="46" height="43" viewBox="0 0 46 43" fill="none" xmlns="http://www.w3.org/2000/svg">
<path fill-rule="evenodd" clip-rule="evenodd" d="M2.23546 0.0555869C1.44479 0.300177 0.752102 0.904776 0.425263 1.6354C0.143009 2.26661 0.143998 3.17593 0.42778 3.81199C0.660684 4.33425 1.35041 5.03602 1.82611 5.23477L2.132 5.36259L2.1613 7.17009C2.18998 8.9447 2.19438 8.98074 2.40275 9.14929C2.65372 9.35235 3.03081 9.37149 3.2745 9.1936C3.43423 9.07692 3.45275 8.9153 3.49392 7.28344L3.53886 5.50066L10.753 5.47765L17.9671 5.45464L17.9442 14.2419L17.9212 23.0292H10.73H3.53886L3.49392 17.1228C3.44996 11.3486 3.44493 11.2133 3.2692 11.0806C2.87179 10.7803 2.37992 10.9745 2.23205 11.4901C2.18081 11.669 2.14557 14.088 2.14557 17.4329V23.0741L1.85343 23.0761C1.14591 23.0809 0.292765 23.7862 0.0845807 24.5386C0.00925304 24.8109 -0.0125902 26.3038 0.00655634 29.868L0.0331637 34.819L0.30517 35.2589C0.473624 35.5313 0.744731 35.8025 1.0171 35.971C1.43958 36.2323 1.50394 36.2442 2.65516 36.2742C3.71828 36.302 3.85348 36.3231 3.85348 36.4608C3.85348 36.7503 4.29897 37.9275 4.66608 38.6081C5.75645 40.6297 7.59244 42.065 9.88212 42.6862C10.9379 42.9726 12.9014 42.971 13.9661 42.683C14.7676 42.4662 15.9479 41.93 16.5962 41.4883C18.1887 40.4032 19.465 38.5663 19.944 36.6699L20.0406 36.2879H20.9136L21.7865 36.288L21.791 37.2992C21.7949 38.1866 21.8286 38.4045 22.066 39.0784C22.408 40.0492 22.8512 40.7178 23.6323 41.4408C25.8324 43.4778 29.2564 43.4127 31.3852 41.2934C31.742 40.9382 32.1139 40.4959 32.2116 40.3105C32.3094 40.125 32.4115 39.9734 32.4384 39.9734C32.4654 39.9734 32.5674 40.1251 32.6652 40.3105C32.7629 40.4959 33.1349 40.9382 33.4917 41.2934C35.6204 43.4127 39.0444 43.4778 41.2446 41.4408C42.0256 40.7178 42.4689 40.0492 42.8108 39.0784C43.0476 38.4062 43.0819 38.1855 43.0859 37.3093L43.0904 36.3081L43.8264 36.2695C44.7431 36.2213 45.2788 35.9316 45.6948 35.2589L45.9668 34.819L45.9934 29.868C46.0126 26.3038 45.9907 24.8109 45.9154 24.5386C45.7808 24.0518 45.2679 23.4547 44.8033 23.2436C44.5885 23.146 44.2283 23.0773 43.9262 23.0761L43.4138 23.0741L43.3869 19.1864L43.36 15.2986L43.1262 14.8001C42.7949 14.0939 42.3986 13.6825 41.7339 13.3553C41.2453 13.1148 41.0261 13.0644 40.3033 13.0266L39.4498 12.9819V11.0722V9.1625L39.7742 8.91521C40.6853 8.22019 40.765 6.76802 39.9375 5.93923C39.3447 5.34542 39.2003 5.32088 36.3037 5.32088C33.8501 5.32088 33.7266 5.32906 33.3823 5.51486C32.055 6.2311 31.8555 7.93505 32.9857 8.90236L33.3373 9.2034V11.1049V13.0065H31.5845H29.8316V11.1049V9.2034L30.1942 8.89292C30.7035 8.45713 30.9103 8.00921 30.9103 7.3425C30.9103 6.52504 30.5372 5.91847 29.7867 5.51621C29.4518 5.3367 29.2725 5.32124 27.1747 5.29194C24.7062 5.25742 24.0587 5.32609 23.5257 5.67882C22.6956 6.22814 22.419 7.47437 22.9329 8.34882C23.069 8.58037 23.3017 8.85616 23.4498 8.96169L23.7191 9.15342V11.0799V13.0065H21.5168H19.3145V9.19037V5.37428L19.7099 5.19935C20.2193 4.974 20.8089 4.38189 21.0526 3.85109C21.3312 3.24434 21.3247 2.15254 21.0392 1.57293C20.774 1.03431 20.2302 0.490564 19.6916 0.225299L19.2696 0.0173838L10.8649 0.00174301C6.2423 -0.00688641 2.35906 0.0173837 2.23546 0.0555869ZM19.2799 1.55108C19.6744 1.84565 19.8701 2.16827 19.9194 2.60513C19.9781 3.12577 19.7007 3.6492 19.2243 3.91698C18.8862 4.10701 18.8707 4.10737 10.7087 4.10737H2.53174L2.23456 3.90512C1.73981 3.56839 1.56767 3.26339 1.56767 2.72307C1.56767 2.33312 1.61603 2.17887 1.82332 1.90714C2.29191 1.29274 1.78512 1.32429 10.8358 1.34604C18.958 1.36555 19.034 1.36744 19.2799 1.55108ZM29.3729 6.84047C29.6299 7.07328 29.6299 7.61352 29.3729 7.84633C29.2001 8.00292 28.9986 8.02 27.0133 8.04607C24.55 8.07843 24.2528 8.03339 24.0734 7.60031C23.9756 7.36416 23.9779 7.28102 24.0878 7.08515C24.3366 6.64208 24.4855 6.61898 26.9234 6.64505C29.0007 6.66725 29.1992 6.68307 29.3729 6.84047ZM38.7754 6.75318C39.1118 6.89377 39.2403 7.18151 39.1418 7.57406C39.0294 8.02171 38.685 8.07681 36.1952 8.04562C33.9601 8.01766 33.9497 8.01667 33.7787 7.80534C33.4635 7.41576 33.6366 6.77305 34.0797 6.68765C34.1905 6.66626 35.2229 6.64325 36.374 6.63651C38.0101 6.62698 38.5341 6.65242 38.7754 6.75318ZM28.4833 11.2087V13.0065H26.7754H25.0675V11.2087V9.41086H26.7754H28.4833V11.2087ZM38.1015 11.2087V13.0065H36.3936H34.6857V11.2087V9.41086H36.3936H38.1015V11.2087ZM9.92104 10.0693C8.86735 10.3384 7.92045 11.1168 7.46525 12.088C7.25176 12.5433 7.22435 12.7097 7.22435 13.5477C7.22435 14.4297 7.24367 14.5328 7.51154 15.0768C7.87811 15.8214 8.50527 16.4475 9.24687 16.8092C9.78342 17.0708 9.90459 17.0943 10.73 17.0953C11.5567 17.0964 11.6779 17.0732 12.2379 16.808C14.5585 15.7088 15.032 12.7062 13.1608 10.956C12.2814 10.1332 11.0212 9.78831 9.92104 10.0693ZM11.7565 11.5645C12.1617 11.7713 12.6335 12.2874 12.8217 12.7302C13.0168 13.189 12.9979 13.9583 12.7794 14.451C12.1074 15.9663 10.1238 16.2467 9.03922 14.9796C8.03048 13.8011 8.57206 11.9107 10.0559 11.4317C10.5561 11.2701 11.2923 11.3277 11.7565 11.5645ZM41.2656 14.6065C41.8965 14.9989 42.0076 15.3064 42.0426 16.7594L42.0735 18.0403H30.694H19.3145V16.1961V14.3519L30.1238 14.3758L40.933 14.3997L41.2656 14.6065ZM42.0117 21.2314V23.0292L33.757 23.0741C25.7168 23.1179 25.4991 23.1236 25.3748 23.2935C25.1967 23.5371 25.2159 23.9143 25.419 24.1653L25.5909 24.3775L34.9553 24.4225L44.3198 24.4674L44.4917 24.6796C44.6559 24.8825 44.6634 25.0985 44.6634 29.5969C44.6634 32.8536 44.6327 34.3693 44.5637 34.5209C44.4194 34.8376 44.1167 34.9399 43.3333 34.9369L42.6409 34.9343L42.3263 34.3758C41.6572 33.1879 40.2303 32.112 38.8526 31.7562C38.1508 31.5751 36.7754 31.5718 36.0754 31.7498C34.8011 32.0738 33.3802 33.0702 32.734 34.0932C32.5961 34.3113 32.4631 34.4898 32.4384 34.4898C32.4137 34.4898 32.2808 34.3113 32.1429 34.0932C31.4967 33.0702 30.0758 32.0738 28.8015 31.7498C28.1014 31.5718 26.726 31.5751 26.0243 31.7562C24.6465 32.112 23.2197 33.1879 22.5506 34.3758L22.2359 34.9343L21.2371 34.9369L20.2381 34.9396L20.1753 34.1652C20.0449 32.5578 19.3246 30.547 18.8091 30.351C18.5138 30.2387 18.1575 30.401 17.9717 30.7324C17.8461 30.9565 17.8517 31.0073 18.0473 31.4066C18.697 32.7331 18.9617 34.187 18.7893 35.4819C18.4074 38.3504 16.4341 40.6122 13.6463 41.3767C12.847 41.596 11.0376 41.6017 10.2357 41.3876C9.43644 41.1743 8.13628 40.5166 7.53896 40.0235C6.54478 39.2028 5.79501 38.1124 5.35733 36.8507C5.12596 36.1839 5.0776 35.8904 5.04182 34.9362C5.0065 33.9932 5.0305 33.6851 5.18897 33.0486C5.80184 30.587 7.70256 28.6354 10.1458 27.9593C11.0597 27.7064 12.9466 27.7301 13.829 28.0056C14.6154 28.251 15.2068 28.5382 15.9162 29.0192C16.5101 29.4219 16.8087 29.4534 17.1163 29.1457C17.5841 28.6779 17.326 28.2501 16.1571 27.5557C12.8227 25.5747 8.44208 26.212 5.84256 29.0563C5.21801 29.7397 4.90375 30.2097 4.47884 31.096C3.98247 32.131 3.76602 32.9452 3.70175 34.0182L3.64664 34.9396H2.8104C1.88579 34.9396 1.58538 34.8481 1.43634 34.5209C1.36731 34.3693 1.33657 32.8499 1.33657 29.5828V24.8637L1.55724 24.6431L1.77783 24.4225H12.3381C19.4271 24.4225 22.9791 24.3917 23.1441 24.3291C23.6352 24.1424 23.7811 23.6306 23.4459 23.2709C23.2681 23.08 23.2036 23.0741 21.2886 23.0741H19.3145V21.231V19.3879L30.6631 19.4107L42.0117 19.4336V21.2314ZM11.1089 29.8193C10.8229 29.8638 10.2415 30.0629 9.81686 30.2618C8.13745 31.0489 7.00277 32.8263 7.00277 34.6699C7.00277 36.7997 8.52118 38.7824 10.6153 39.3868C11.224 39.5625 12.4308 39.5838 13.0672 39.4301C14.3378 39.1232 15.6727 38.0778 16.2468 36.9402C17.1938 35.0632 16.917 32.8954 15.5391 31.4002C14.3781 30.1403 12.7602 29.5629 11.1089 29.8193ZM12.5909 31.174C13.6754 31.4009 14.692 32.2063 15.1634 33.2121C15.3767 33.6673 15.4043 33.834 15.4043 34.6699C15.4043 35.4992 15.376 35.6737 15.1709 36.1081C14.8318 36.8261 14.193 37.4898 13.5236 37.8193C11.3545 38.8872 8.86537 37.6229 8.41979 35.2269C8.14787 33.7644 8.96893 32.1606 10.3308 31.4943C11.1276 31.1044 11.8017 31.0089 12.5909 31.174ZM28.768 33.1469C29.473 33.3843 30.1345 33.8118 30.6253 34.3469C30.9989 34.7543 31.5529 35.797 31.6665 36.3065L31.7207 36.5498L29.1052 36.5762L26.4896 36.6025L26.3178 36.8148C26.0952 37.0899 26.0988 37.499 26.3259 37.7261C26.4974 37.8977 26.6255 37.9059 29.1142 37.9059H31.7227L31.6635 38.1531C31.3504 39.4583 30.5352 40.5211 29.4029 41.1002C27.3757 42.1369 24.9074 41.4263 23.7179 39.4636C23.145 38.5184 22.957 37.2852 23.2275 36.2467C23.6138 34.7637 24.7086 33.5893 26.128 33.1356C26.8582 32.902 28.0566 32.9072 28.768 33.1469ZM38.7437 33.1385C40.5076 33.6837 41.8008 35.4437 41.7817 37.2731C41.753 40.0406 39.0729 42.1356 36.4349 41.4527C34.9137 41.0589 33.7836 40.0039 33.3381 38.5617C33.2388 38.24 33.1575 37.9609 33.1575 37.9414C33.1575 37.9219 34.189 37.9059 35.4497 37.9059C37.6221 37.9059 37.7514 37.8965 37.9217 37.7261C38.1489 37.499 38.1524 37.0899 37.9298 36.8148C37.7586 36.6031 37.752 36.6024 35.4578 36.5757C34.1926 36.561 33.1575 36.5294 33.1575 36.5054C33.1575 36.4815 33.24 36.2174 33.3406 35.9185C33.7875 34.592 34.7679 33.6044 36.0888 33.1501C36.8056 32.9036 37.967 32.8985 38.7437 33.1385Z" fill="white"/>
</svg>
