<svg width="46" height="41" viewBox="0 0 46 41" fill="none" xmlns="http://www.w3.org/2000/svg">
<path fill-rule="evenodd" clip-rule="evenodd" d="M11.5317 0.0797268C11.3431 0.172992 11.1382 0.509935 11.1412 0.722074C11.142 0.781555 11.6231 1.65904 12.2103 2.67212C12.7976 3.68519 13.2652 4.52764 13.2494 4.54417C13.2337 4.56079 12.6902 4.42934 12.0416 4.25215C11.393 4.07496 10.8089 3.93003 10.7436 3.93003C10.6782 3.93003 10.5182 4.01387 10.388 4.1163C10.1031 4.34039 10.0632 4.83106 10.3099 5.07564C10.4037 5.16854 11.2214 5.4301 12.309 5.71511C13.3214 5.98035 14.1975 6.24317 14.2561 6.29914C14.3727 6.41065 15.8206 8.89369 15.7875 8.92523C15.7762 8.93592 14.6551 8.64453 13.2961 8.27767C10.1916 7.43963 10.2054 7.44196 9.92286 7.70738C9.62869 7.98368 9.62321 8.43778 9.91136 8.66313C10.0302 8.75613 11.5624 9.21167 13.4573 9.71745L16.7939 10.6079L17.9292 12.5762C18.5535 13.6589 19.0418 14.5672 19.0142 14.5948C18.9866 14.6223 17.3956 14.2496 15.4786 13.7665C13.5617 13.2834 11.8825 12.8875 11.7473 12.8867C11.3927 12.8846 11.1396 13.1505 11.1396 13.5253C11.1396 13.7967 11.2441 13.9458 11.9322 14.6569C15.4334 18.2749 16.351 19.2406 16.351 19.3075C16.351 19.3499 15.3298 19.3845 14.0816 19.3845H11.8123L9.34197 16.9064C7.98333 15.5436 6.77331 14.3894 6.65299 14.3416C6.23797 14.1769 5.74855 14.5595 5.74855 15.0489C5.74855 15.1305 6.6583 16.1103 7.77021 17.226C8.88212 18.3418 9.79186 19.2839 9.79186 19.3196C9.79186 19.3553 9.11411 19.3845 8.28568 19.3845H6.77959L5.4329 18.0276C4.69226 17.2813 3.96671 16.6184 3.82061 16.5543C3.37279 16.3582 2.88247 16.6566 2.87619 17.1291C2.87412 17.2842 3.13828 17.6136 3.81675 18.3021C4.33564 18.8287 4.76019 19.2876 4.76019 19.322C4.76019 19.3563 3.77119 19.3845 2.56233 19.3845C0.417045 19.3845 0.360079 19.3891 0.181275 19.5811C-0.153781 19.9407 -0.00786208 20.4523 0.482996 20.6389C0.626668 20.6935 1.57244 20.7322 2.76162 20.7322H4.79478L3.834 21.7072C3.14206 22.4094 2.87412 22.7424 2.87619 22.8977C2.88247 23.3703 3.37279 23.6687 3.82061 23.4725C3.96671 23.4085 4.67204 22.7657 5.38798 22.0441L6.68965 20.7322H8.26061H9.83157L7.79006 22.7808C6.66728 23.9076 5.74855 24.8963 5.74855 24.978C5.74855 25.505 6.28469 25.8658 6.72254 25.6332C6.85399 25.5634 8.03275 24.4321 9.34197 23.1192L11.7224 20.7322H16.7322C19.4876 20.7322 21.7421 20.7559 21.7421 20.785C21.7421 20.8139 21.3733 21.4795 20.9225 22.2641C20.2222 23.4831 20.0622 23.7036 19.8219 23.7804C19.2891 23.9507 14.0816 25.2316 14.0501 25.2002C14.0328 25.1828 14.4019 24.7566 14.8703 24.2531C15.553 23.5192 15.722 23.2841 15.722 23.0682C15.722 22.7114 15.4396 22.4394 15.0691 22.4394C14.8144 22.4394 14.6507 22.5671 13.8315 23.4053C11.2021 26.0955 11.1396 26.1673 11.1396 26.5011C11.1396 26.8148 11.2977 27.0289 11.6113 27.1401C11.6977 27.1707 13.3873 26.7877 15.3661 26.2887C17.3448 25.7899 18.9864 25.4043 19.0141 25.432C19.0418 25.4596 18.5533 26.3682 17.9289 27.4511L16.7933 29.4199L13.4574 30.3099C11.5653 30.8147 10.0308 31.2708 9.91181 31.3637C9.49221 31.6912 9.77587 32.5027 10.3099 32.5027C10.4155 32.5027 11.5653 32.2174 12.8649 31.8687C14.1646 31.5199 15.3612 31.1992 15.5242 31.1559L15.8206 31.0772L15.4853 31.6776C15.3008 32.0079 14.9451 32.6196 14.6947 33.0372L14.2395 33.7962L12.3103 34.3123C11.0255 34.656 10.3427 34.8809 10.2662 34.9856C10.0659 35.2596 10.1243 35.7032 10.388 35.9105C10.5182 36.013 10.6782 36.0968 10.7436 36.0968C10.8089 36.0968 11.393 35.9519 12.0416 35.7747C12.6902 35.5975 13.2337 35.466 13.2494 35.4827C13.2652 35.4992 12.7976 36.3416 12.2103 37.3547C11.6231 38.3678 11.142 39.2453 11.1412 39.3048C11.1377 39.5456 11.3572 39.8644 11.5938 39.9625C12.0857 40.1662 12.2559 39.9802 13.3817 38.0091C13.9523 37.01 14.4416 36.1913 14.4688 36.1896C14.4961 36.188 14.6576 36.7223 14.8276 37.3772C15.1586 38.6519 15.3471 38.972 15.767 38.972C16.0434 38.972 16.4409 38.6054 16.4409 38.3506C16.4409 38.2513 16.2158 37.3371 15.9406 36.3188L15.4403 34.4674L16.1265 33.2691C16.5039 32.61 16.8605 32.006 16.9188 31.9269C17.0051 31.8098 17.1569 32.2806 17.7341 34.4566C18.4983 37.3371 18.5859 37.5344 19.1006 37.5344C19.3987 37.5344 19.7654 37.2062 19.7654 36.9394C19.7654 36.8726 19.3595 35.3028 18.8633 33.4509L17.9613 30.0839L19.1057 28.1035C19.735 27.0145 20.2723 26.1236 20.2996 26.1238C20.327 26.1241 20.8103 27.7433 21.3737 29.722C22.2452 32.7828 22.4313 33.3458 22.6213 33.4952C22.9033 33.717 23.0967 33.717 23.3787 33.4952C23.5687 33.3458 23.7548 32.7828 24.6263 29.722C25.1897 27.7433 25.673 26.1241 25.7004 26.1238C25.7277 26.1236 26.2656 27.0153 26.8955 28.1056L28.041 30.0879L27.1378 33.4509C26.641 35.3006 26.2346 36.8696 26.2346 36.9374C26.2346 37.2059 26.6004 37.5344 26.8994 37.5344C27.4141 37.5344 27.5017 37.3371 28.2659 34.4566C28.868 32.1868 28.9923 31.8063 29.0888 31.9373C29.1513 32.0221 29.5082 32.6255 29.8819 33.2781L30.5613 34.4646L30.0602 36.3237C29.7847 37.3461 29.5591 38.261 29.5591 38.3568C29.5591 38.6064 29.9596 38.972 30.233 38.972C30.6508 38.972 30.8407 38.6509 31.176 37.3772C31.3484 36.7223 31.5099 36.188 31.5351 36.1896C31.5602 36.1913 32.0477 37.01 32.6183 38.0091C33.7441 39.9802 33.9143 40.1662 34.4062 39.9625C34.6428 39.8644 34.8623 39.5456 34.8588 39.3048C34.858 39.2453 34.3769 38.3678 33.7897 37.3547C33.2024 36.3416 32.7348 35.4992 32.7506 35.4827C32.7663 35.466 33.3098 35.5975 33.9584 35.7747C34.607 35.9519 35.1911 36.0968 35.2564 36.0968C35.3218 36.0968 35.4818 36.013 35.612 35.9105C35.8968 35.6865 35.9367 35.1964 35.6901 34.9498C35.5952 34.8549 34.7933 34.5977 33.691 34.3087C32.6786 34.0432 31.8025 33.7811 31.7439 33.726C31.6285 33.6174 30.1788 31.1334 30.2125 31.102C30.2238 31.0914 31.4258 31.4022 32.8836 31.7926C34.3415 32.183 35.6182 32.5024 35.7208 32.5026C36.2255 32.5031 36.4905 31.6788 36.0875 31.3618C35.9656 31.2659 34.4718 30.8217 32.5412 30.3071L29.2056 29.4181L28.0706 27.4501C27.4464 26.3678 26.9596 25.4582 26.9889 25.4289C27.0182 25.3996 28.6091 25.7727 30.5244 26.258C32.4398 26.7432 34.1175 27.1405 34.2527 27.141C34.6076 27.1419 34.8604 26.876 34.8604 26.5016C34.8604 26.2302 34.7559 26.0809 34.0682 25.3699C33.6325 24.9195 32.4543 23.7018 31.4502 22.664L29.6244 20.7772L31.9482 20.7532L34.272 20.7291L36.7451 23.1898C38.1053 24.5432 39.2878 25.6742 39.3729 25.7033C39.7585 25.8353 40.2514 25.4283 40.2514 24.978C40.2514 24.8963 39.3327 23.9076 38.2099 22.7808L36.1684 20.7322H37.7394H39.3103L40.612 22.0441C41.328 22.7657 42.0321 23.4081 42.177 23.4715C42.6407 23.6747 43.1267 23.3444 43.1267 22.8261C43.1267 22.7469 42.6943 22.2433 42.166 21.7072L41.2052 20.7322H43.2384C44.4276 20.7322 45.3733 20.6935 45.517 20.6389C46.0079 20.4523 46.1538 19.9407 45.8187 19.5811C45.6399 19.3891 45.583 19.3845 43.4377 19.3845C42.2288 19.3845 41.2398 19.3563 41.2398 19.322C41.2398 19.2876 41.6644 18.8287 42.1833 18.3021C42.7021 17.7756 43.1267 17.28 43.1267 17.2007C43.1267 16.6824 42.6407 16.3522 42.177 16.5553C42.0321 16.6188 41.3077 17.2813 40.5671 18.0276L39.2204 19.3845H37.7143C36.8859 19.3845 36.2081 19.3553 36.2081 19.3196C36.2081 19.2839 37.1179 18.3418 38.2298 17.226C39.3417 16.1103 40.2514 15.1305 40.2514 15.0489C40.2514 14.5595 39.762 14.1769 39.347 14.3416C39.2267 14.3894 38.0167 15.5436 36.658 16.9064L34.1877 19.3845H29.2228C25.5793 19.3845 24.2579 19.3573 24.2579 19.2825C24.2579 19.2264 24.6274 18.539 25.0791 17.7551C25.8412 16.4322 25.9235 16.3236 26.2247 16.2446C28.2796 15.7057 31.9277 14.8046 31.953 14.8298C31.9708 14.8476 31.6012 15.2694 31.1316 15.7671C30.4323 16.5085 30.278 16.7223 30.278 16.9501C30.278 17.3158 30.5562 17.5874 30.9309 17.5874C31.1856 17.5874 31.3492 17.4598 32.1685 16.6215C34.7979 13.9313 34.8604 13.8595 34.8604 13.5257C34.8604 13.1509 34.6082 12.8852 34.2525 12.8852C34.1171 12.8852 32.4395 13.2827 30.5245 13.7684C28.6095 14.2542 27.0186 14.6275 26.9891 14.5981C26.9597 14.5687 27.446 13.6596 28.0699 12.5779L29.2041 10.6112L32.5423 9.71906C34.4395 9.21203 35.9706 8.75622 36.0893 8.66313C36.505 8.33706 36.2241 7.52409 35.6958 7.52409C35.5933 7.52409 34.3223 7.84378 32.8712 8.23454C31.4202 8.6253 30.2238 8.93619 30.2125 8.92541C30.179 8.89333 31.6281 6.40975 31.7439 6.30085C31.8025 6.24577 32.6786 5.98359 33.691 5.71817C34.7933 5.42911 35.5952 5.17196 35.6901 5.07699C35.9367 4.83043 35.8968 4.3403 35.612 4.1163C35.4818 4.01387 35.3218 3.93003 35.2564 3.93003C35.1911 3.93003 34.607 4.07496 33.9584 4.25215C33.3098 4.42934 32.7663 4.56079 32.7506 4.54417C32.7348 4.52764 33.2024 3.68519 33.7897 2.67212C34.3769 1.65904 34.858 0.781555 34.8588 0.722074C34.8623 0.481272 34.6428 0.16239 34.4062 0.0643624C33.9143 -0.13933 33.7441 0.0466615 32.6183 2.01773C32.0477 3.01679 31.5584 3.83551 31.5312 3.83722C31.5039 3.83884 31.3424 3.3044 31.1724 2.64965C30.8414 1.37493 30.6529 1.05479 30.233 1.05479C29.9566 1.05479 29.5591 1.42139 29.5591 1.6762C29.5591 1.77549 29.7842 2.68973 30.0594 3.70801L30.5597 5.5594L29.8735 6.75774C29.4961 7.4168 29.1395 8.02078 29.0812 8.09994C28.9949 8.21702 28.8431 7.7462 28.2659 5.57027C27.5017 2.68973 27.4141 2.49241 26.8994 2.49241C26.6013 2.49241 26.2346 2.82064 26.2346 3.08741C26.2346 3.15426 26.6405 4.72405 27.1367 6.57598L28.0387 9.94297L26.8943 11.9233C26.265 13.0124 25.7277 13.9033 25.7004 13.903C25.673 13.9027 25.1897 12.2835 24.6263 10.3048C23.7548 7.24402 23.5687 6.68101 23.3787 6.53159C23.0967 6.30984 22.9033 6.30984 22.6213 6.53159C22.4313 6.68101 22.2452 7.24402 21.3737 10.3048C20.8103 12.2835 20.327 13.9027 20.2996 13.903C20.2723 13.9033 19.7344 13.0115 19.1045 11.9212L17.959 9.93893L18.8622 6.57589C19.359 4.72621 19.7654 3.15722 19.7654 3.08939C19.7654 2.82091 19.3996 2.49241 19.1006 2.49241C18.5859 2.49241 18.4983 2.68973 17.7341 5.57027C17.132 7.84 17.0077 8.22052 16.9112 8.08952C16.8487 8.0047 16.4918 7.40135 16.1181 6.74876L15.4387 5.56218L15.9398 3.70316C16.2153 2.68074 16.4409 1.76579 16.4409 1.67001C16.4409 1.4204 16.0404 1.05479 15.767 1.05479C15.3492 1.05479 15.1593 1.37592 14.824 2.64965C14.6516 3.3044 14.4901 3.83902 14.4649 3.83749C14.4398 3.83605 13.9593 3.02811 13.3971 2.04217C12.8349 1.05614 12.3294 0.211539 12.2735 0.165175C12.1015 0.0224017 11.7334 -0.0200081 11.5317 0.0797268ZM23.8806 12.5813C24.3352 14.1767 24.7072 15.5335 24.7072 15.5965C24.7072 15.7288 23.0758 18.5758 23 18.5758C22.9242 18.5758 21.2928 15.7288 21.2928 15.5965C21.2928 15.3993 22.9431 9.68052 23 9.68052C23.0297 9.68052 23.426 10.9859 23.8806 12.5813ZM16.825 15.4793C18.3187 15.8518 19.6674 16.1971 19.8222 16.2465C20.0627 16.3234 20.2232 16.5439 20.9229 17.7585C21.3734 18.5406 21.7421 19.2264 21.7421 19.2825C21.7421 19.3549 21.2543 19.3844 20.0574 19.3842L18.3727 19.3839L16.4792 17.4299C14.4923 15.3794 13.9593 14.802 14.0527 14.802C14.0838 14.802 15.3313 15.1068 16.825 15.4793ZM29.8554 22.9458C31.0298 24.1632 31.975 25.1751 31.9557 25.1944C31.9283 25.2216 28.3659 24.3438 26.2247 23.7822C25.9235 23.7033 25.8412 23.5946 25.0791 22.2717C24.6274 21.4878 24.2579 20.8206 24.2579 20.7893C24.2579 20.7579 25.0368 20.7322 25.9889 20.7322H27.72L29.8554 22.9458ZM23.8788 22.8834C24.3344 23.6712 24.7072 24.3673 24.7072 24.4303C24.7072 24.6275 23.0569 30.3463 23 30.3463C22.9431 30.3463 21.2928 24.6275 21.2928 24.4303C21.2928 24.2981 22.9242 21.451 23 21.451C23.0278 21.451 23.4232 22.0956 23.8788 22.8834Z" fill="white"/>
</svg>
