<svg width="39" height="46" viewBox="0 0 39 46" fill="none" xmlns="http://www.w3.org/2000/svg">
<path fill-rule="evenodd" clip-rule="evenodd" d="M27.6661 0.140959C27.0991 0.420434 25.5782 2.97929 25.3184 4.0909C25.0342 5.30684 25.7662 6.67735 27.0074 7.2531C27.6806 7.56538 28.7359 7.58434 29.373 7.29561C29.9368 7.04012 30.5785 6.43292 30.8696 5.87963C31.0763 5.48684 31.108 5.31861 31.1087 4.61265L31.1095 3.79858L30.5883 2.77045C29.954 1.51901 29.2376 0.471566 28.8272 0.195416C28.4691 -0.0455072 28.0815 -0.0636596 27.6661 0.140959ZM28.6742 2.12424C29.2165 2.96393 29.7177 3.97111 29.7779 4.34198C30.0082 5.76065 28.3025 6.74717 27.237 5.81169C26.6015 5.25373 26.4711 4.71365 26.7846 3.93768C27.0371 3.31259 28.0927 1.51767 28.2078 1.51767C28.2489 1.51767 28.4587 1.79067 28.6742 2.12424ZM13.3803 3.41001C13.2176 3.44487 13.0056 3.54498 12.9091 3.63233C12.6341 3.88116 11.6806 5.39724 11.315 6.16701C10.5261 7.82769 11.0272 9.40775 12.561 10.0961C13.0534 10.3171 13.1964 10.3412 13.8012 10.305C15.6993 10.1916 16.8734 8.45772 16.2369 6.7079C15.8842 5.7381 14.6137 3.67403 14.2882 3.54202C13.9043 3.38628 13.6579 3.35043 13.3803 3.41001ZM14.7644 6.68229C15.1203 7.4145 15.1448 7.8054 14.8653 8.293C14.35 9.19181 13.0016 9.21005 12.4624 8.32562C12.0896 7.7141 12.2953 6.98315 13.2785 5.42645L13.6582 4.82526L14.0589 5.44056C14.2794 5.77889 14.5969 6.33766 14.7644 6.68229ZM19.4722 6.33362C19.0555 6.5138 18.5988 6.965 18.4863 7.30738C18.4365 7.45925 18.3367 8.14401 18.2647 8.82921C18.1927 9.51442 18.1217 10.0806 18.1067 10.0873C17.4707 10.3741 17.1466 10.6215 16.9111 11C16.6742 11.3808 16.636 11.5372 16.5966 12.2896L16.5517 13.1459L15.7814 13.2568C12.6069 13.7136 9.40627 15.2613 7.09355 17.4576C6.65358 17.8755 6.58115 18.2815 6.89136 18.5917C7.23068 18.931 7.51465 18.8302 8.47385 18.0295C10.5268 16.316 12.7531 15.2279 15.2471 14.7192C15.7504 14.6166 16.1782 14.5488 16.198 14.5686C16.2177 14.5884 15.9471 14.9254 15.5965 15.3175C14.8421 16.1614 13.9386 17.3501 13.7391 17.7613C13.5629 18.1245 13.6651 18.4833 13.9979 18.6701C14.4141 18.9037 14.6317 18.7543 15.387 17.7172C15.7746 17.185 16.6245 16.2136 17.2755 15.5588L18.4592 14.3681H18.9613H19.4636L19.4904 17.5213L19.5172 20.6746L19.7293 20.8463C19.9802 21.0494 20.3573 21.0685 20.6008 20.8906C20.7663 20.7696 20.7776 20.5992 20.8202 17.5881L20.8651 14.413L21.3868 14.3859L21.9085 14.3589L23.0577 15.5092C23.6897 16.1419 24.461 16.9976 24.7716 17.4107C26.0294 19.0838 27.1311 21.2798 27.6893 23.2266C28.1545 24.8485 28.2859 25.733 28.3413 27.6142L28.3939 29.4029L28.1792 29.3407C26.2094 28.7707 23.5929 28.7114 21.5794 29.1911C21.2136 29.2782 20.893 29.3284 20.8673 29.3025C20.8414 29.2766 20.8202 27.8296 20.8202 26.0868V22.9182L20.5834 22.732C20.2751 22.4895 20.0782 22.4969 19.7693 22.7624L19.5172 22.9793L19.4915 26.1641L19.4658 29.3491L18.8018 29.1908C17.7481 28.9398 16.2246 28.8044 15.1235 28.864C14.2401 28.9118 12.4452 29.1944 12.0418 29.3492C11.9085 29.4004 11.9003 29.3002 11.9549 28.2802C12.0111 27.2267 12.0031 27.1396 11.8281 26.9171C11.6166 26.6483 11.1756 26.5944 10.8908 26.8027C10.7078 26.9365 10.5889 27.6762 10.5803 28.7343L10.5758 29.3064L10.3286 29.2531C8.27175 28.8096 6.19195 28.7515 4.48805 29.09C3.93234 29.2003 3.41104 29.3162 3.32963 29.3474C3.19591 29.3987 3.18755 29.3221 3.24399 28.5585C3.43072 26.0331 4.12591 23.7715 5.32244 21.7968C6.29988 20.1838 6.23554 20.332 6.07989 20.0535C5.90295 19.7369 5.59113 19.583 5.28981 19.6636C4.81713 19.7899 3.38076 22.3075 2.76969 24.0805C2.2377 25.624 1.85865 27.8473 1.85946 29.4202C1.85973 30.0716 2.07352 30.4773 2.53155 30.6957C2.83349 30.8397 2.88696 30.8359 3.8884 30.6001C6.16086 30.0649 8.00494 30.0779 10.2182 30.6448L11.3283 30.9291L12.4572 30.6487C13.5898 30.3673 14.7835 30.1841 15.4846 30.1841H15.8601L15.8913 31.3747C15.9195 32.4456 15.9453 32.6057 16.1473 32.9659C16.4652 33.5325 17.0052 33.8878 17.6269 33.9394L18.1243 33.9806V39.804V45.6275L18.3611 45.8137C18.6563 46.0459 18.9403 46.0508 19.2151 45.8283L19.4273 45.6565L19.4516 39.8074L19.4761 33.9583H20.193H20.91V35.7596C20.91 37.5524 20.9111 37.5621 21.1306 37.7816C21.4136 38.0646 21.8035 38.0699 22.0626 37.7942C22.2498 37.5949 22.258 37.5107 22.258 35.7837V33.9811L22.7051 33.9382C23.2867 33.8823 23.7956 33.5425 24.1157 32.9964C24.3485 32.5991 24.3682 32.4871 24.4007 31.3768L24.4356 30.1841L24.7621 30.1848C25.483 30.1864 26.7652 30.3809 27.8198 30.6486L28.9335 30.9311L30.0664 30.6463C32.3321 30.0769 34.1262 30.0636 36.4033 30.5999L37.4633 30.8496L37.7911 30.6741C38.35 30.3748 38.4548 30.0459 38.3906 28.7912C38.3066 27.1459 37.9384 25.1033 37.61 24.4596C37.3792 24.0074 36.5276 24.0729 36.4073 24.552C36.3766 24.6744 36.4541 25.1861 36.5818 25.7034C36.8444 26.7671 36.9551 27.4643 37.0424 28.6021C37.0971 29.3147 37.088 29.3955 36.9593 29.3461C36.8797 29.3156 36.3601 29.2005 35.8043 29.0903C35.008 28.9325 34.4798 28.8898 33.3112 28.8891C31.9345 28.8883 31.3716 28.9495 29.9638 29.2531L29.7166 29.3064V27.9994C29.7166 25.9761 29.4281 24.2179 28.7633 22.1908C27.9139 19.6008 26.3927 17.0278 24.6007 15.1504L24.018 14.5398L24.4185 14.5984C26.2182 14.8621 28.3799 15.6818 30.1025 16.7538C30.8112 17.1949 30.9283 17.2214 31.2307 17.0095C31.7342 16.6568 31.6233 16.1432 30.9466 15.6944C29.2202 14.5495 26.8971 13.6443 24.864 13.3244C24.3451 13.2428 23.87 13.1624 23.8081 13.1458C23.7314 13.1252 23.6956 12.9085 23.6953 12.4613C23.695 12.1015 23.6515 11.6511 23.5987 11.4606C23.4785 11.0282 22.878 10.3652 22.4743 10.2191C22.1279 10.0939 22.1382 10.1294 21.9808 8.527C21.875 7.45008 21.7299 7.02629 21.3444 6.66665C20.8573 6.21221 20.0748 6.07302 19.4722 6.33362ZM2.54413 7.71006C1.95589 8.09791 0.282093 10.9783 0.059052 11.9867C-0.225725 13.2737 0.543954 14.738 1.8405 15.3763C2.3769 15.6404 2.51915 15.671 3.20508 15.6692C3.84122 15.6675 4.05707 15.6271 4.48078 15.4301C5.91886 14.7614 6.71037 13.191 6.31075 11.7992C5.99434 10.6972 4.38318 8.01083 3.84976 7.69568C3.49704 7.48737 2.8715 7.49429 2.54413 7.71006ZM20.4469 7.65659C20.5464 7.77646 20.7282 9.1024 20.7296 9.71769L20.7303 10.0547H20.1069H19.4835L19.5231 9.76262C19.5448 9.60204 19.6014 9.09242 19.6487 8.63035C19.696 8.16818 19.7817 7.73351 19.8391 7.66432C19.9708 7.50562 20.3179 7.50121 20.4469 7.65659ZM3.7776 9.76262C4.97835 11.5943 5.26942 12.5534 4.86153 13.3347C4.024 14.9391 1.70418 14.5465 1.36584 12.743C1.28748 12.3255 1.6047 11.4893 2.23644 10.4479C2.87582 9.39382 3.15125 8.97875 3.21209 8.9774C3.23958 8.97686 3.49408 9.3302 3.7776 9.76262ZM22.1616 11.6394C22.3057 11.8226 22.3478 12.0056 22.3478 12.4482V13.0202H20.1462H17.9445V12.4193C17.9445 11.9263 17.9796 11.7813 18.1399 11.6106C18.3317 11.4065 18.3691 11.4026 20.1554 11.4026H21.9754L22.1616 11.6394ZM34.0209 15.6492C33.6609 15.8882 32.6832 17.3132 32.166 18.3525C31.432 19.8276 31.3688 20.5489 31.88 21.6149C32.1909 22.2633 32.6887 22.7437 33.3903 23.0727C33.8118 23.2703 34.0216 23.3095 34.6591 23.3095C35.2976 23.3095 35.5063 23.2704 35.9305 23.0716C36.9664 22.5859 37.6213 21.632 37.6954 20.5007C37.7316 19.9485 37.7009 19.7466 37.4948 19.1816C37.2351 18.4692 36.5287 17.2154 35.8568 16.2738C35.2647 15.4441 34.6466 15.2338 34.0209 15.6492ZM35.2513 17.8039C36.56 19.9195 36.6837 20.7537 35.8035 21.5266C34.6615 22.5293 32.9171 21.7808 32.9171 20.288C32.9171 19.9661 33.0095 19.6754 33.2903 19.1136C33.7382 18.2175 34.5287 16.9742 34.6506 16.9742C34.6987 16.9742 34.9691 17.3475 35.2513 17.8039ZM11.5841 19.2771C11.0102 19.566 9.69069 21.8607 9.60882 22.7121C9.43611 24.5101 11.404 25.8881 13.047 25.1195C13.678 24.8243 14.2153 24.2103 14.4008 23.5724C14.5877 22.9293 14.5279 22.4281 14.1742 21.6722C13.8318 20.9404 12.8796 19.4754 12.6579 19.3392C12.3431 19.1459 11.8962 19.12 11.5841 19.2771ZM12.7786 21.9483C13.0004 22.3857 13.1818 22.8347 13.1818 22.9459C13.1818 23.2124 12.8293 23.7273 12.5501 23.8686C12.1353 24.0784 11.6828 24.0124 11.3352 23.6914C10.755 23.1558 10.8404 22.5789 11.6981 21.2382L12.0326 20.7152L12.204 20.934C12.2983 21.0543 12.5568 21.5107 12.7786 21.9483ZM19.0376 30.6508L20.1757 30.923L21.3292 30.6485C21.9636 30.4975 22.604 30.3615 22.7522 30.3464L23.0218 30.3189L23.0482 31.1276C23.0996 32.6991 23.2726 32.6104 20.157 32.6104C18.109 32.6104 17.5858 32.5858 17.445 32.483C17.293 32.3721 17.2666 32.2207 17.2402 31.3092L17.2099 30.2629L17.5547 30.3207C17.7444 30.3525 18.4117 30.501 19.0376 30.6508ZM21.1306 39.7505L20.91 39.971V42.7649V45.5589L21.1306 45.7794C21.252 45.9007 21.456 46 21.584 46C21.7121 46 21.9161 45.9007 22.0374 45.7794L22.258 45.5589V42.7649V39.971L22.0374 39.7505C21.9161 39.6291 21.7121 39.5298 21.584 39.5298C21.456 39.5298 21.252 39.6291 21.1306 39.7505Z" fill="white"/>
</svg>
