<svg width="48" height="48" viewBox="0 0 48 48" fill="none" xmlns="http://www.w3.org/2000/svg">
<path fill-rule="evenodd" clip-rule="evenodd" d="M23.2133 1.3297C20.6023 2.87284 18.1802 5.56745 16.8449 8.41456C15.8875 10.456 15.2799 13.0875 15.2799 15.1927C15.2799 15.759 15.2622 15.8256 15.1226 15.783C15.036 15.7566 14.5113 15.6905 13.9564 15.636C12.1812 15.4619 10.1373 15.7733 8.39267 16.4839C5.73107 17.568 3.37072 19.8063 2.15413 22.3998C1.69143 23.3864 1.64297 23.6339 1.84542 23.9763C2.10927 24.4226 2.71995 24.5836 3.111 24.3098C3.21384 24.2379 3.52255 23.7213 3.79692 23.1619C5.39162 19.9107 8.41542 17.7997 11.9992 17.4354C12.9579 17.338 14.3737 17.4197 15.0966 17.6142L15.4229 17.702L15.5853 18.5707C16.3267 22.5363 18.6293 26.1939 21.9548 28.6882C22.4863 29.0869 22.9212 29.4537 22.9212 29.5033C22.9212 29.7897 22.4899 31.07 22.1496 31.7934C20.6607 34.9591 17.7223 37.1352 14.3135 37.5961L13.8416 37.6599V35.9219V34.1839L15.9913 32.0376C17.4041 30.6272 18.1563 29.8115 18.1856 29.6584C18.2977 29.0723 17.6787 28.4702 17.1099 28.6117C16.9453 28.6527 16.3128 29.2118 15.3473 30.1697L13.8416 31.6637V28.178V24.6922L13.5245 24.3755C13.2433 24.0945 13.1697 24.0648 12.8727 24.112C12.6584 24.146 12.4491 24.2637 12.2908 24.4391L12.0436 24.7131V26.2594V27.8056L11.0532 26.8192C10.0822 25.8522 10.0547 25.8328 9.65196 25.8328C9.11527 25.8328 8.80728 26.1519 8.80728 26.708C8.80728 27.0691 8.85124 27.1233 10.4254 28.7044L12.0436 30.3296V33.9919V37.6541L11.6166 37.5925C10.0099 37.361 8.12792 36.5895 6.88644 35.6535C5.51622 34.6204 4.4067 33.2461 3.68752 31.6911C3.29206 30.8358 3.08376 30.6378 2.58025 30.6378C2.19045 30.6378 1.84156 30.9163 1.74375 31.3056C1.66616 31.6143 1.9631 32.3982 2.53709 33.4006C4.36858 36.5986 7.48794 38.7534 11.1221 39.3307L12.0436 39.4771V42.3321V45.1872H6.86999C2.56811 45.1872 1.65466 45.2088 1.4487 45.3152C0.850433 45.6243 0.850433 46.5463 1.4487 46.8554C1.82178 47.0482 46.1782 47.0482 46.5513 46.8554C47.1496 46.5463 47.1496 45.6243 46.5513 45.3152C46.3449 45.2086 45.3956 45.1872 40.8603 45.1872H35.417V42.3485C35.417 39.6798 35.4265 39.5138 35.5743 39.5757C36.1722 39.826 37.1519 40.0785 37.8586 40.1643C41.3943 40.5938 44.955 38.5234 46.3364 35.2348C46.8405 34.0351 46.97 33.3497 46.9593 31.94C46.9482 30.4567 46.784 29.7265 46.1747 28.4505C45.5271 27.0941 44.5136 25.9324 43.2854 25.139L42.7484 24.792L42.7738 23.7856C42.8025 22.6495 42.6621 21.769 42.2985 20.8034C41.444 18.5342 39.4047 16.7072 36.9902 16.0478C36.125 15.8115 34.4465 15.7771 33.5067 15.9764L32.7201 16.1433V15.3488C32.7201 10.9081 30.7702 6.44715 27.4944 3.39329C26.2205 2.20572 24.4617 1 24.0032 1C23.8756 1 23.5201 1.14837 23.2133 1.3297ZM24.5919 3.34686C25.9428 4.28925 27.0197 5.344 28.0646 6.74793C29.9815 9.32336 31.042 12.7754 30.9005 15.9792L30.8543 17.026L30.551 17.2471C29.9434 17.69 28.7773 18.9545 28.416 19.562C27.6069 20.9226 27.2758 22.2886 27.3455 23.9783L27.39 25.0614L26.5266 25.9004C26.0516 26.3618 25.4911 26.8722 25.281 27.0346L24.899 27.3298V22.0897V16.8496L26.2985 15.4586C27.0683 14.6935 27.7585 13.9535 27.8325 13.814C28.1156 13.28 27.6406 12.5857 26.9921 12.5857C26.708 12.5857 26.5716 12.684 25.7854 13.4557L24.899 14.3257V12.3286C24.899 10.1572 24.8567 9.9339 24.4071 9.72922C24.109 9.59351 23.891 9.59351 23.5929 9.72922C23.1043 9.95159 23.101 9.98339 23.101 14.4406V18.5499L21.8577 17.3191C20.7063 16.1792 20.5896 16.0883 20.2786 16.0883C19.8441 16.0883 19.6307 16.2079 19.4532 16.5509C19.1701 17.0979 19.2719 17.2492 21.2581 19.2317L23.101 21.0712V24.2005V27.3298L22.7195 27.0304C19.9872 24.8862 18.0192 21.6443 17.3475 18.1808C16.2532 12.5389 18.6534 6.66395 23.4081 3.34686C23.7005 3.14281 23.9669 2.97585 24 2.97585C24.0331 2.97585 24.2994 3.14281 24.5919 3.34686ZM36.9304 17.9111C37.881 18.2429 38.5116 18.6458 39.2803 19.4125C40.7006 20.8291 41.2476 22.6713 40.8814 24.8047C40.7377 25.6418 40.8231 25.7874 41.7802 26.3367C43.1138 27.1021 43.9008 27.9123 44.5309 29.168C45.0285 30.1597 45.1661 30.7931 45.1618 32.0747C45.1576 33.3595 44.969 34.0911 44.3592 35.1882C43.9505 35.9235 42.7895 37.1068 42.0546 37.5372C40.8856 38.2217 39.2869 38.5562 38.0317 38.3788C37.2378 38.2666 36.3287 37.9883 35.8136 37.6997L35.462 37.5027L35.4381 34.8134L35.4143 32.124L37.2534 30.2807C38.4365 29.095 39.1141 28.3486 39.1529 28.1887C39.285 27.6428 38.8225 27.1351 38.1931 27.1351C37.9416 27.1351 37.7403 27.2968 36.6603 28.3659L35.417 29.5967V28.6324C35.417 27.4523 35.2966 27.0984 34.8282 26.903C34.5684 26.7945 34.4406 26.7875 34.1959 26.8681C33.6182 27.0586 33.6191 27.0536 33.6191 30.1638C33.6191 31.7088 33.5907 32.9729 33.556 32.9729C33.5213 32.9729 33.002 32.4879 32.4018 31.8951C31.3276 30.8341 31.3043 30.8174 30.8997 30.8174C30.551 30.8174 30.4533 30.8593 30.2559 31.0937C30.0999 31.2788 30.0231 31.4766 30.0231 31.693C30.0231 31.9925 30.1533 32.1469 31.8243 33.8294L33.6256 35.6429L33.5998 36.5668L33.5741 37.4908L33.0402 37.7859C31.9115 38.4099 30.0884 38.5935 28.8838 38.2045C26.9807 37.5901 25.5676 36.0948 25.0763 34.1755C24.6115 32.36 25.1213 30.4504 26.4405 29.0661C27.1383 28.3336 27.7513 27.9399 28.7242 27.5991C29.8264 27.213 29.9815 26.8655 29.5418 25.7676C28.3456 22.7802 29.7349 19.4079 32.7043 18.0916C33.5248 17.7279 34.1872 17.6142 35.2822 17.6493C36.0533 17.6741 36.4162 17.7317 36.9304 17.9111ZM1.55478 26.728C0.663355 27.1131 0.911833 28.3925 1.87805 28.3925C2.73927 28.3925 3.11577 27.2822 2.4062 26.8349C2.07169 26.624 1.85783 26.5971 1.55478 26.728ZM23.101 39.574V45.1872H18.4713H13.8416V42.3321V39.4771L14.7838 39.3277C17.8176 38.847 20.6475 37.1562 22.4707 34.7352C22.7914 34.3093 23.0644 33.9608 23.0775 33.9608C23.0904 33.9608 23.101 36.4867 23.101 39.574ZM26.696 39.1755C28.0636 39.9871 29.7918 40.3583 31.3026 40.1648C31.759 40.1063 32.4274 39.9595 32.7878 39.8387C33.1482 39.7178 33.4827 39.6189 33.531 39.6189C33.5866 39.6189 33.6191 40.6467 33.6191 42.403V45.1872H29.259H24.899V41.4497V37.7123L25.4805 38.2558C25.8005 38.5547 26.3474 38.9686 26.696 39.1755Z" fill="white" stroke="white" stroke-width="0.5"/>
</svg>
