<svg width="46" height="43" viewBox="0 0 46 43" fill="none" xmlns="http://www.w3.org/2000/svg">
<path fill-rule="evenodd" clip-rule="evenodd" d="M34.3485 0.206998C34.2462 0.31822 33.9365 0.86202 33.6602 1.41552C33.0933 2.55146 33.3106 2.41544 31.6875 2.65073C30.7071 2.79286 30.4508 2.91504 30.2829 3.32022C30.0918 3.78154 30.2305 4.03705 31.17 4.95368L32.0525 5.81471L31.8563 6.97265C31.7483 7.60953 31.6774 8.22169 31.6986 8.33292C31.7199 8.44423 31.8395 8.63729 31.9642 8.76208C32.3314 9.12917 32.6953 9.06951 33.8993 8.44486L34.9478 7.90097L35.9696 8.44486C37.1787 9.08847 37.5144 9.1368 37.9251 8.72624C38.2408 8.41072 38.2443 8.32043 37.9962 6.91749L37.8047 5.83384L38.7152 4.90885C39.5321 4.079 39.6257 3.95035 39.6257 3.65783C39.6257 3.42883 39.5522 3.24978 39.3786 3.05627C39.1467 2.7978 39.0567 2.76977 37.9241 2.60392C37.2599 2.50672 36.7085 2.41787 36.6986 2.40637C36.6886 2.39496 36.4339 1.89212 36.1323 1.28885C35.8307 0.685664 35.5053 0.150039 35.409 0.0984714C35.0938 -0.0700681 34.5525 -0.0147267 34.3485 0.206998ZM35.1897 3.42587C35.4669 3.9349 35.6994 4.09023 36.3242 4.18394C36.5583 4.21897 36.7499 4.26928 36.7499 4.29561C36.7499 4.32193 36.5679 4.5379 36.3455 4.77562C35.9167 5.23398 35.8831 5.36982 36.0219 6.08647L36.0949 6.46317L35.6615 6.24369C35.1139 5.96627 34.7899 5.9669 34.2377 6.24666L33.7984 6.46919L33.8485 5.80671L33.8986 5.14423L33.4797 4.69647L33.0606 4.24862L33.5581 4.18645C34.1461 4.11305 34.4861 3.86491 34.7254 3.33459C34.8158 3.1338 34.9015 2.96957 34.9156 2.96957C34.9298 2.96957 35.0531 3.17486 35.1897 3.42587ZM12.4571 6.31233C12.2594 6.38267 11.7364 7.10346 10.0556 9.62248C8.61886 11.7757 7.87384 12.9737 7.80725 13.2378C7.68521 13.7222 7.81219 14.2838 8.14246 14.7202L8.36651 15.0161L6.60318 17.6966C4.90726 20.2747 4.66551 20.7129 4.66749 21.2064C4.6683 21.4196 4.992 22.1665 5.21506 22.4701C5.29954 22.585 4.97376 23.1339 3.40204 25.5247C1.33954 28.662 1.22352 28.9013 1.41557 29.6191C1.56547 30.1793 1.84029 30.5143 2.36495 30.7756L2.81465 30.9996H6.39172H9.96888V33.4702V35.9408L7.11553 35.9419C4.90034 35.9427 4.15182 35.9723 3.76861 36.0742C2.39343 36.44 1.19907 37.4163 0.556505 38.6997C0.121448 39.5686 -0.0368117 40.3818 0.0070445 41.5227C0.0363419 42.2834 0.0544056 42.3489 0.290492 42.5518L0.542665 42.7686H22.9999H45.4572L45.7094 42.5518C45.9457 42.3487 45.9635 42.2837 45.993 41.5173C46.0358 40.4056 45.8862 39.6337 45.4543 38.7373C44.8196 37.4196 43.6459 36.4505 42.2279 36.0733C41.881 35.981 41.2318 35.9426 40.0077 35.9419L38.2777 35.9408V34.2338V32.5269L41.2659 32.5247C42.9094 32.5235 44.4126 32.4858 44.6066 32.4409C45.4619 32.2425 45.9546 31.4844 45.7918 30.6168C45.7597 30.446 45.1478 29.4229 44.3895 28.2724L43.0442 26.2312L43.2222 25.899C43.3333 25.6919 43.4003 25.3939 43.4003 25.1066C43.4003 24.6664 43.3451 24.5617 42.1405 22.7155L40.8808 20.7845L41.0601 20.3894C41.2724 19.9216 41.2883 19.6018 41.1194 19.1977C41.0513 19.0345 40.3049 17.8667 39.4608 16.6026C38.4267 15.0536 37.8592 14.2827 37.7205 14.2387C37.3827 14.1315 37.0132 14.1775 36.8185 14.351C36.625 14.5233 33.9155 18.5366 33.6628 19.025C33.4575 19.422 33.4725 20.1036 33.6946 20.4678L33.8738 20.7617L32.6953 22.5254C32.0471 23.4956 31.4608 24.4233 31.3924 24.587C31.2193 25.0011 31.237 25.4208 31.4448 25.828C31.542 26.0188 31.5943 26.2194 31.5611 26.2738C31.5277 26.3283 30.9082 27.2016 30.1844 28.2146C29.4606 29.2275 28.8173 30.153 28.755 30.2713C28.5881 30.5878 28.6779 31.3624 28.9209 31.7037C29.032 31.8596 29.3123 32.0985 29.5438 32.2345L29.9648 32.4819L33.2245 32.5095L36.4843 32.5371L36.4598 34.2165L36.4354 35.8959L30.3467 35.9189L24.2581 35.942V31.0918V26.2415L24.4603 26.2047C26.8577 25.7683 28.2625 25.1479 29.7658 23.8614C34.0966 20.1552 34.3508 13.5259 30.3174 9.47658C29.0397 8.19384 27.5437 7.34414 25.7027 6.85541C24.9681 6.66037 24.6385 6.62578 23.4493 6.61868C22.6129 6.61365 21.8408 6.65678 21.5171 6.72676C19.4104 7.18171 17.779 8.03276 16.3893 9.40156C16.0595 9.72642 15.759 9.95857 15.7214 9.91733C15.6839 9.8761 15.1683 9.11461 14.5756 8.2252C13.9829 7.33578 13.4217 6.54277 13.3286 6.4629C13.0959 6.26346 12.7585 6.20515 12.4571 6.31233ZM24.7508 8.49696C26.3245 8.77133 27.7014 9.47909 28.901 10.6304C30.0899 11.7714 30.893 13.1929 31.2293 14.7518C31.41 15.5893 31.4154 17.1944 31.2403 18.0193C30.5635 21.2087 28.0566 23.6792 24.8647 24.302L24.2581 24.4204V22.5252V20.6299L25.696 19.183C27.0286 17.8419 27.1339 17.7117 27.1339 17.4066C27.1339 16.9082 26.7304 16.4945 26.2442 16.4945C25.9 16.4945 25.8215 16.5482 25.0667 17.2992L24.2581 18.1038V16.1488C24.2581 14.0491 24.2041 13.7318 23.7982 13.4477C23.4634 13.2132 23.0269 13.2604 22.7234 13.5637L22.4607 13.8263V19.0889C22.4607 24.2473 22.4572 24.3514 22.2854 24.3514C22.1889 24.3514 21.9157 24.3098 21.6782 24.2588C21.2617 24.1695 21.2278 24.1374 20.7215 23.3531L20.1965 22.5399L20.3745 22.3451C20.8458 21.8294 20.99 20.9431 20.6953 20.3735C20.6141 20.2164 19.7841 18.9442 18.851 17.5462L17.1545 15.0045L17.3813 14.76C17.6895 14.4276 17.8156 14.0005 17.7695 13.4448C17.7394 13.0818 17.6385 12.8369 17.3099 12.3291C17.0783 11.9712 16.8888 11.6394 16.8888 11.5917C16.8888 11.4128 18.1702 10.1652 18.7538 9.77574C19.5175 9.26617 19.9212 9.06556 20.6933 8.81167C22.0534 8.36463 23.3947 8.26051 24.7508 8.49696ZM14.4513 11.256C15.2976 12.5276 15.9901 13.5889 15.9901 13.6143C15.9901 13.6398 15.8541 13.6605 15.6878 13.6605C15.2452 13.6605 14.9117 14.0229 14.9118 14.5037C14.9118 14.8361 15.1204 15.1861 16.9787 17.9728L19.0457 21.0723L15.8646 21.1172C12.33 21.1672 12.4275 21.1492 12.2163 21.7889C12.0969 22.1506 12.203 22.461 12.5355 22.7226C12.7721 22.9084 12.8585 22.914 15.5338 22.914H18.2885L20.3072 25.9814C21.4175 27.6685 22.3394 29.0835 22.3558 29.1258C22.3724 29.1683 18.0703 29.2028 12.7642 29.2028H3.14258L3.8912 28.0573C4.30289 27.4274 5.31302 25.8868 6.13604 24.6341C7.68736 22.2723 7.79467 22.0375 7.53971 21.5615C7.43016 21.3567 6.99789 21.1172 6.73808 21.1172C6.6367 21.1172 6.55384 21.0999 6.55384 21.0786C6.55384 21.0574 7.37983 19.7886 8.38942 18.259L10.225 15.4781L11.1851 15.4427C12.1358 15.4074 12.1478 15.4043 12.4051 15.1164C12.761 14.7181 12.7599 14.2807 12.4023 13.9231L12.1396 13.6605H10.8649C9.79929 13.6605 9.59826 13.6396 9.63924 13.5327C9.77503 13.1791 12.7803 8.79954 12.8413 8.8663C12.8804 8.90897 13.6049 9.98435 14.4513 11.256ZM38.2763 18.0605C38.7714 18.8005 39.1764 19.424 39.1764 19.4461C39.1764 19.4682 39.0551 19.6075 38.9068 19.7558C38.4078 20.2546 38.4648 20.4086 40.0262 22.7804L41.4153 24.8905H40.1175H38.8198L38.5284 25.1508C38.1352 25.502 38.1163 26.0276 38.4838 26.3953C38.7257 26.6374 38.7554 26.6429 39.9646 26.6712L41.1985 26.7001L42.4286 28.5578C43.1052 29.5797 43.6859 30.4864 43.7188 30.5728C43.7757 30.7217 43.4288 30.7301 37.2036 30.7301C31.9679 30.7301 30.6417 30.7072 30.6944 30.6178C30.7308 30.556 31.4384 29.5546 32.2668 28.3924C33.0952 27.2303 33.8118 26.1772 33.8595 26.0521C33.9868 25.7171 33.8869 25.3664 33.5938 25.1199C33.4515 25.0001 33.3349 24.8785 33.3349 24.8498C33.3349 24.821 33.8949 23.9592 34.5792 22.9347C35.2637 21.9101 35.893 20.9376 35.978 20.7735C36.1756 20.3915 36.0947 19.9911 35.7561 19.6747L35.504 19.4394L36.4101 18.0772C36.9085 17.328 37.3298 16.7151 37.3462 16.7151C37.3627 16.7151 37.7812 17.3205 38.2763 18.0605ZM13.7434 33.4732V35.9469L12.7773 35.9214L11.8112 35.8959L11.7873 33.4477L11.7634 30.9996H12.7534H13.7434V33.4732ZM22.4397 33.4477L22.4158 35.8959H19.0007H15.5857L15.5618 33.4477L15.5379 30.9996H19.0007H22.4636L22.4397 33.4477ZM42.0627 37.9129C42.7094 38.1586 43.1726 38.5017 43.5484 39.0136C43.8704 39.4519 44.2091 40.345 44.2091 40.7552V40.9718H22.9999H1.79077V40.7636C1.79077 40.3653 2.0744 39.5766 2.37816 39.1301C2.75812 38.5716 3.20325 38.2143 3.85111 37.9478L4.35205 37.7418L22.9765 37.7397C41.2347 37.7376 41.6101 37.741 42.0627 37.9129Z" fill="white"/>
</svg>
