<svg width="46" height="33" viewBox="0 0 46 33" fill="none" xmlns="http://www.w3.org/2000/svg">
<path fill-rule="evenodd" clip-rule="evenodd" d="M31.6789 0.0568269C28.8537 0.37994 26.3949 1.37812 24.0347 3.16019C23.5906 3.49543 22.4857 4.39226 21.5793 5.15313C19.1426 7.19883 17.8419 7.99718 16.0603 8.54061C14.7896 8.92824 13.619 9.06239 11.948 9.01198C8.76137 8.91593 6.74901 8.09161 3.86121 5.69935C2.6278 4.67763 2.39346 4.54689 1.79548 4.54689C0.77376 4.54689 -0.00571901 5.34659 3.16127e-05 6.38889C0.00263736 6.87859 0.307241 7.36191 0.994979 7.96779C3.97443 10.5928 6.37127 11.8503 9.47706 12.4181C10.1752 12.5458 10.8264 12.5824 12.3973 12.5824C13.9682 12.5824 14.6194 12.5458 15.3175 12.4181C17.1444 12.0842 18.672 11.5237 20.2145 10.6213C21.4515 9.89785 22.2689 9.27956 24.7732 7.17376C27.2732 5.07137 28.8619 4.22522 31.1767 3.76337C32.2397 3.55132 34.9657 3.55132 36.0288 3.76337C38.2374 4.20401 39.9275 5.07586 42.1119 6.90114C43.3215 7.91191 43.3509 7.93113 43.8584 8.04435C45.0107 8.30133 46.1298 7.27422 45.9698 6.10657C45.8853 5.49098 45.6996 5.22807 44.8201 4.47968C41.8159 1.92317 39.4783 0.722192 36.478 0.193584C35.4722 0.0163033 32.7189 -0.0621391 31.6789 0.0568269ZM32.2998 9.8522C28.6733 10.0992 25.9736 11.3011 22.5058 14.2122C20.2744 16.0853 19.9321 16.3578 19.1363 16.8942C17.0776 18.2819 15.1287 18.8465 12.3973 18.8465C8.9577 18.8465 6.87876 18.0305 3.7887 15.4672C2.43048 14.3407 2.06918 14.1976 1.22312 14.4511C0.474098 14.6755 -0.100425 15.5895 0.024292 16.3582C0.128073 16.9977 0.360703 17.2907 1.54201 18.2705C4.87836 21.0374 7.53218 22.1783 11.1998 22.4223C14.2565 22.6259 17.1655 22.0718 19.4957 20.8426C21.0965 19.9982 21.9363 19.3861 24.8321 16.9531C28.0423 14.2559 30.0994 13.4294 33.6027 13.4294C37.0423 13.4294 39.1212 14.2455 42.2113 16.8087C43.5695 17.9353 43.9308 18.0784 44.7769 17.8249C45.5259 17.6004 46.1004 16.6865 45.9757 15.9178C45.8771 15.3104 45.6365 14.9906 44.6704 14.1824C41.13 11.2208 38.5854 10.1105 34.7349 9.84762C34.038 9.8 33.4275 9.76639 33.3781 9.77295C33.3287 9.77951 32.8434 9.81509 32.2998 9.8522ZM31.8955 19.6964C28.4105 20.1077 25.7933 21.2672 22.9551 23.6571C20.5159 25.7111 19.8796 26.2236 19.2141 26.6703C17.8101 27.6129 16.4294 28.1922 14.8233 28.5126C13.7603 28.7247 11.0343 28.7247 9.97125 28.5126C7.76265 28.072 6.07251 27.2001 3.88808 25.3748C2.66059 24.3491 2.63328 24.3316 2.11141 24.2341C0.93936 24.0152 -0.128818 25.0085 0.0302224 26.1694C0.114685 26.785 0.300412 27.0479 1.1799 27.7963C4.19637 30.3631 6.48817 31.5378 9.56691 32.0952C10.2522 32.2192 10.9239 32.2578 12.3973 32.2578C14.9555 32.2578 16.4101 31.9978 18.4157 31.1826C20.15 30.4775 21.5592 29.525 24.4171 27.1258C26.8631 25.0724 28.1783 24.266 29.937 23.7411C31.3162 23.3295 31.6824 23.2839 33.6027 23.2839C35.5231 23.2839 35.8892 23.3295 37.2684 23.7411C38.8655 24.2177 40.2979 25.0516 42.1388 26.5766C43.3722 27.5983 43.6065 27.7291 44.2045 27.7291C45.2262 27.7291 46.0057 26.9294 46 25.8871C45.9974 25.3986 45.6924 24.9139 45.005 24.3055C42.0876 21.7235 39.5701 20.4041 36.5229 19.86C35.7474 19.7214 32.6196 19.6109 31.8955 19.6964Z" fill="white"/>
</svg>
