<svg width="46" height="45" viewBox="0 0 46 45" fill="none" xmlns="http://www.w3.org/2000/svg">
<path fill-rule="evenodd" clip-rule="evenodd" d="M13.1442 0.0596252C12.9995 0.11716 12.8295 0.299879 12.7665 0.465511C12.6054 0.889412 12.638 4.19554 12.8166 5.51722C12.8985 6.12454 12.9491 6.64154 12.9288 6.66607C12.9086 6.69048 11.9262 6.33945 10.7456 5.8858C7.38535 4.59468 4.96585 3.75083 4.44443 3.6883C4.03924 3.6396 3.9373 3.67226 3.77609 3.90252C3.50701 4.28667 3.53397 4.59108 3.9817 6.22392C4.96224 9.79936 6.68017 13.0876 9.19916 16.2106C10.2907 17.5639 12.3699 19.6358 13.677 20.6727C14.145 21.044 14.5048 21.4079 14.4767 21.4816C13.0454 25.2269 12.6807 29.4505 13.4263 33.6456C13.5343 34.2529 13.6265 34.8754 13.6312 35.0289C13.6396 35.2956 13.35 35.4048 7.12836 37.4806C3.54688 38.6755 0.500761 39.7153 0.359073 39.791C-0.120504 40.0477 -0.119457 40.8433 0.360817 41.1003C0.757868 41.3128 3.86373 42.1901 5.80423 42.6379C16.402 45.0836 26.5452 44.3409 34.2135 40.5577L35.9575 39.6974L40.7621 39.6645L45.5666 39.6316L45.7887 39.3571C46.0836 38.9928 46.0693 38.6208 45.7493 38.3316C45.5866 38.1846 44.0169 37.6451 41.594 36.9036C39.4524 36.2481 37.3817 35.6136 36.9924 35.4934C36.3184 35.2854 36.2778 35.2516 36.1396 34.78C35.3803 32.1891 32.6355 30.1667 29.8699 30.1603C29.2183 30.1588 29.1377 30.1343 29.1949 29.9552C29.2306 29.8434 29.447 29.2213 29.6758 28.5729C30.3598 26.6342 30.8932 23.7592 30.8982 21.983C30.9002 21.3143 30.8193 20.9824 30.3886 19.8908C29.4524 17.5177 28.7754 14.9979 28.6175 13.298C28.5302 12.3582 28.2717 11.8867 27.133 10.5897C25.3727 8.58484 20.1454 4.37349 15.3253 1.07724C13.7481 -0.00151275 13.5409 -0.0981028 13.1442 0.0596252ZM15.7027 3.27149C19.6759 6.08583 23.0729 8.80615 25.0451 10.753C26.8111 12.4964 26.8983 12.6379 27.1184 14.1185C27.3165 15.4507 27.789 17.3163 28.3354 18.9241C28.6349 19.8054 28.6563 19.9417 28.4851 19.8788C28.3751 19.8385 27.7968 19.6136 27.1997 19.379C26.1864 18.9811 26.0934 18.9642 25.8049 19.1254C25.5621 19.2611 25.4883 19.3994 25.4608 19.7695C25.4399 20.0535 25.4861 20.2903 25.5771 20.3655C25.6602 20.4341 26.5127 20.803 27.4717 21.1852L29.2152 21.88L29.2515 22.3705C29.3 23.0248 28.9794 25.1795 28.6236 26.5901C28.2963 27.8883 27.7865 29.2399 27.2893 30.1278C26.8882 30.844 26.8653 31.1213 27.1811 31.4371C27.3832 31.6393 27.5692 31.6697 28.6049 31.6705C30.8861 31.6722 32.2026 32.0874 33.2732 33.143C34.4525 34.3055 34.8525 35.34 34.8525 37.2273V38.4917L33.3227 39.2205C26.5573 42.4435 17.6751 43.2705 8.35136 41.5456C6.75269 41.2498 3.58581 40.483 3.58581 40.3916C3.58581 40.3523 6.24022 39.4441 9.48463 38.3733C14.2386 36.8043 15.9474 36.1824 18.2893 35.1683C20.7243 34.1141 21.2119 33.8632 21.299 33.6199C21.4582 33.1746 21.3017 32.7641 20.9109 32.6022C20.5897 32.4691 20.4015 32.5294 18.2214 33.4639C16.9321 34.0166 15.8501 34.4417 15.817 34.4084C15.7249 34.3164 15.9986 31.1435 16.1994 29.9732C16.6011 27.6333 17.2778 25.5262 18.2418 23.6146C18.7505 22.6058 19.9391 20.8009 20.3243 20.4523C20.7099 20.1033 20.6289 19.5269 20.1061 18.9002C17.3804 15.632 15.1 10.3584 14.4699 5.86592C14.2705 4.44556 14.1141 2.2627 14.2115 2.2627C14.2483 2.2627 14.9194 2.71671 15.7027 3.27149ZM7.88643 6.50497C10.6242 7.50004 13.1472 8.51835 13.2994 8.6898C13.3677 8.76686 13.5456 9.27445 13.6947 9.81784C14.0914 11.2644 15.0152 13.589 15.8103 15.1419C16.3605 16.2166 17.7196 18.3857 18.6374 19.654C18.7141 19.76 18.7141 19.8681 18.6374 19.9751C16.7878 22.553 15.686 25.0067 14.9255 28.2407L14.6248 29.5193L14.684 28.1718C14.783 25.9145 15.2112 23.9042 15.9786 22.0939C16.2193 21.5261 16.3533 21.0476 16.3153 20.8918C16.2805 20.7494 15.8998 20.3664 15.4691 20.0406C10.9847 16.6485 7.56586 12.0136 5.90815 7.07939C5.65371 6.32202 5.44554 5.68134 5.44554 5.65554C5.44554 5.62974 5.53701 5.64392 5.64895 5.68716C5.76088 5.73039 6.76769 6.09839 7.88643 6.50497ZM34.3474 7.35707C34.0921 7.63917 34.1028 8.22347 34.3676 8.46314C34.8568 8.90576 35.6661 8.56717 35.6661 7.91987C35.6661 7.26583 34.7745 6.88517 34.3474 7.35707ZM36.372 16.6332C36.0364 17.0596 36.0693 17.309 36.527 17.8085L36.9229 18.2405L36.527 18.6789C36.0573 19.1988 36.0302 19.4912 36.4164 19.8772C36.8024 20.2633 37.0948 20.2363 37.6147 19.7666L38.053 19.3707L38.4851 19.7666C38.9845 20.2243 39.234 20.2572 39.6604 19.9216C40.0758 19.595 40.0568 19.1625 39.6029 18.6119L39.2392 18.1706L39.6029 17.7954C40.0276 17.3572 40.0761 16.9012 39.7342 16.5593C39.4033 16.2284 38.992 16.2713 38.5199 16.6858L38.1112 17.0446L37.6757 16.6858C37.1311 16.2368 36.6974 16.2194 36.372 16.6332ZM4.92912 17.7476C4.3139 18.6258 5.53306 19.4972 6.17281 18.6364C6.5594 18.1162 6.1928 17.4892 5.50191 17.4892C5.22877 17.4892 5.05523 17.5674 4.92912 17.7476ZM5.91047 22.258C5.02989 22.4126 4.35818 23 4.06679 23.8703C3.86733 24.466 3.90743 24.9231 4.21742 25.589C4.60215 26.4152 5.22202 26.8207 6.19512 26.8827C7.29143 26.9524 8.1125 26.458 8.52013 25.4823C9.23485 23.7718 7.74834 21.9352 5.91047 22.258ZM6.84033 23.9982C7.53587 24.6938 6.64646 25.7644 5.87641 25.1587C5.48948 24.8543 5.46483 24.407 5.81446 24.0347C6.12515 23.7042 6.53174 23.6896 6.84033 23.9982ZM5.87641 32.7176C5.45647 33.0479 5.45286 33.5431 5.86805 33.8696C6.25313 34.1726 6.54336 34.175 6.84033 33.878C7.53587 33.1825 6.64646 32.1119 5.87641 32.7176ZM30.4759 33.4676C30.1528 33.694 30.085 34.0009 30.2643 34.427C30.4602 34.8933 30.946 35.022 31.357 34.7165C31.7576 34.4188 31.806 33.9327 31.4703 33.5754C31.1716 33.2575 30.829 33.2203 30.4759 33.4676ZM38.2813 37.5505C39.0485 37.7833 39.6978 37.9937 39.7246 38.0181C39.7512 38.0424 39.032 38.0624 38.1264 38.0624H36.4797V37.5316C36.4797 37.0793 36.5098 37.0101 36.6831 37.064C36.7949 37.0989 37.5142 37.3178 38.2813 37.5505Z" fill="white"/>
</svg>
