<svg width="125" height="23" viewBox="0 0 125 23" fill="none" xmlns="http://www.w3.org/2000/svg">
<path d="M16.4038 19.3293C16.4038 19.9447 15.7114 20.6275 14.3266 21.3776C12.961 22.1277 11.3551 22.5027 9.50869 22.5027C6.81606 22.5027 4.58502 21.4161 2.81558 19.2427C1.04613 17.0501 0.161407 14.3864 0.161407 11.2514C0.161407 8.09714 1.05575 5.43335 2.84443 3.26001C4.6331 1.08667 6.87376 0 9.56639 0C11.1627 0 12.5956 0.298113 13.865 0.89434C15.1344 1.49057 15.7691 2.16372 15.7691 2.91382C15.7691 3.22155 15.6729 3.46196 15.4806 3.63506C15.3075 3.80815 15.0574 3.8947 14.7305 3.8947C14.4228 3.8947 14.0477 3.74084 13.6053 3.43311C13.1822 3.12538 12.6341 2.81765 11.9609 2.50992C11.307 2.18296 10.5088 2.01948 9.56639 2.01948C7.50845 2.01948 5.81594 2.93305 4.48886 4.76019C3.16177 6.5681 2.49823 8.71259 2.49823 11.1937C2.49823 13.6555 3.16177 15.8192 4.48886 17.6848C5.81594 19.5504 7.49884 20.4833 9.53755 20.4833C10.48 20.4833 11.3262 20.3871 12.0763 20.1948C12.8456 19.9832 13.4226 19.762 13.8073 19.5312C14.192 19.3004 14.5478 19.0889 14.8747 18.8965C15.2017 18.685 15.4517 18.5792 15.6248 18.5792C16.1441 18.5792 16.4038 18.8292 16.4038 19.3293Z" fill="white"/>
<path d="M28.4453 15.0884C28.4453 16.5309 28.5511 17.7137 28.7627 18.6369C28.9742 19.5408 29.2243 20.0505 29.5128 20.1659C29.6282 20.2236 29.7628 20.2621 29.9167 20.2813C30.0898 20.3005 30.2052 20.3294 30.2629 20.3679C30.3398 20.4063 30.3783 20.4833 30.3783 20.5987C30.3783 21.1179 30.234 21.5411 29.9455 21.868C29.6763 22.195 29.2627 22.3585 28.705 22.3585C28.1472 22.3585 27.7145 22.0027 27.4068 21.291C27.099 20.5794 26.9452 19.6658 26.9452 18.5503C26.4643 19.6274 25.7527 20.5313 24.8103 21.2622C23.8871 21.9931 22.8389 22.3585 21.6657 22.3585C20.5117 22.3585 19.5116 21.9738 18.6653 21.2045C17.1267 19.8005 16.3573 17.7906 16.3573 15.1749C16.3573 13.0785 16.9632 11.2514 18.1749 9.69348C19.3865 8.1356 20.9444 7.35666 22.8485 7.35666C24.291 7.35666 25.5411 7.84711 26.599 8.82799C26.599 7.84711 26.9644 7.35666 27.6952 7.35666C28.58 7.35666 29.0223 8.03944 29.0223 9.40499C29.0223 10.7513 28.83 12.6458 28.4453 15.0884ZM26.7721 15.348L26.6278 10.9052C25.4738 9.78965 24.2621 9.23189 22.9928 9.23189C21.7426 9.23189 20.6655 9.79927 19.7616 10.934C18.8576 12.0688 18.4057 13.4343 18.4057 15.0307C18.4057 16.6078 18.6942 17.9156 19.2711 18.9542C19.8674 19.9736 20.704 20.4833 21.7811 20.4833C22.8581 20.4833 23.839 20.0024 24.7237 19.0408C25.6085 18.0791 26.2912 16.8482 26.7721 15.348Z" fill="white"/>
<path d="M33.3293 11.2514L33.4735 20.916C33.4735 21.8777 33.1081 22.3585 32.3772 22.3585C31.6464 22.3585 31.2809 21.8777 31.2809 20.916L31.4252 11.2514L31.2809 1.58673C31.2809 0.625076 31.6464 0.144248 32.3772 0.144248C33.1081 0.144248 33.4735 0.625076 33.4735 1.58673L33.3293 11.2514Z" fill="white"/>
<path d="M56.1964 12.9823L56.0522 17.5117C56.0522 18.0503 56.0522 18.4638 56.0522 18.7523C56.0714 19.0215 56.1291 19.31 56.2253 19.6178C56.3407 19.9063 56.4753 20.089 56.6292 20.1659C56.7831 20.2236 56.9369 20.2621 57.0908 20.2813C57.2639 20.3005 57.3793 20.3294 57.437 20.3679C57.5139 20.4063 57.5524 20.4833 57.5524 20.5987C57.5524 21.0987 57.3889 21.5218 57.0619 21.868C56.7542 22.195 56.3888 22.3585 55.9656 22.3585C55.2348 22.3585 54.7251 22.07 54.4366 21.493C54.1674 20.916 54.0327 20.0697 54.0327 18.9542L54.1481 13.6459C54.1481 12.338 53.8885 11.2802 53.3692 10.4724C52.8691 9.66463 52.1575 9.26074 51.2343 9.26074C50.3304 9.26074 49.4456 9.80888 48.5801 10.9052C47.7146 12.0015 47.1088 13.242 46.7626 14.6268L46.8492 20.8871C46.8492 21.868 46.4837 22.3585 45.7529 22.3585C44.8681 22.3585 44.4258 21.6853 44.4258 20.339C44.4258 18.9735 44.6181 17.0694 45.0028 14.6268C45.0028 11.0494 44.0219 9.26074 42.0601 9.26074C41.1562 9.26074 40.2714 9.80888 39.4059 10.9052C38.5405 12.0015 37.9346 13.242 37.5884 14.6268L37.675 20.8871C37.675 21.868 37.3095 22.3585 36.5787 22.3585C35.694 22.3585 35.2516 21.6853 35.2516 20.339C35.2516 18.9735 35.4439 17.0694 35.8286 14.6268C35.8286 13.819 35.742 12.7035 35.5689 11.2802C35.4151 9.85697 35.3381 8.98186 35.3381 8.6549C35.3381 8.3087 35.4343 8.01059 35.6266 7.76056C35.8382 7.49129 36.1171 7.35666 36.4633 7.35666C36.8095 7.35666 37.0787 7.49129 37.2711 7.76056C37.4826 8.01059 37.5884 8.29908 37.5884 8.62605C37.5884 8.95301 37.5788 9.3569 37.5596 9.83773C37.5596 10.2993 37.5596 10.6936 37.5596 11.0206C38.8674 8.57796 40.5022 7.35666 42.464 7.35666C43.5988 7.35666 44.522 7.69324 45.2336 8.3664C45.9644 9.02033 46.4645 9.90505 46.7338 11.0206C48.0416 8.57796 49.6764 7.35666 51.6382 7.35666C53.0807 7.35666 54.1962 7.9048 54.9848 9.00109C55.7926 10.0974 56.1964 11.4245 56.1964 12.9823Z" fill="white"/>
<path d="M67.1814 11.1937L67.0371 1.50018C67.0371 1.07705 67.1525 0.721241 67.3833 0.432744C67.6141 0.144247 67.9026 0 68.2488 0C68.8643 0 69.3258 0.259647 69.6336 0.778941C69.8067 1.0482 71.2203 3.57736 73.8745 8.3664C76.5479 13.1362 78.3077 16.2039 79.154 17.5694V11.1937C79.154 7.94327 79.1251 5.54875 79.0674 4.0101C79.0289 2.47145 79.0097 1.55788 79.0097 1.26939C79.0097 0.98089 79.1251 0.702008 79.3559 0.432744C79.5867 0.144247 79.8656 0 80.1926 0C80.5195 0 80.7984 0.144247 81.0292 0.432744C81.26 0.702008 81.3754 0.98089 81.3754 1.26939C81.3754 1.55788 81.3658 2.16372 81.3465 3.08691C81.2696 5.24102 81.2311 7.94327 81.2311 11.1937L81.2888 20.7429C81.2888 21.1853 81.1638 21.5411 80.9138 21.8103C80.683 22.0796 80.356 22.2142 79.9329 22.2142C79.5098 22.2142 79.1443 21.9546 78.8366 21.4353C78.7405 21.2814 78.3846 20.6564 77.7692 19.5601C75.9036 16.1366 74.5092 13.6555 73.586 12.1169C72.682 10.559 71.8165 9.02994 70.9895 7.52976C70.1625 6.01034 69.5855 4.99099 69.2585 4.4717V11.1937L69.4028 20.7429C69.4028 21.166 69.2874 21.5218 69.0566 21.8103C68.8258 22.0796 68.5469 22.2142 68.2199 22.2142C67.893 22.2142 67.6141 22.0796 67.3833 21.8103C67.1525 21.5218 67.0371 21.166 67.0371 20.7429L67.1814 11.1937Z" fill="white"/>
<path d="M93.0196 18.7811C93.962 17.6464 94.4332 16.2808 94.4332 14.6845C94.4332 13.0881 93.9813 11.7322 93.0773 10.6167C92.1926 9.50115 91.0867 8.94339 89.7596 8.94339C88.4325 8.94339 87.2978 9.51077 86.3553 10.6455C85.4321 11.7803 84.9706 13.1458 84.9706 14.7422C84.9706 16.3385 85.4129 17.6945 86.2976 18.81C87.2016 19.9255 88.3171 20.4833 89.6442 20.4833C90.9713 20.4833 92.0964 19.9159 93.0196 18.7811ZM89.7019 7.06816C91.6829 7.06816 93.3081 7.80864 94.5775 9.28959C95.8469 10.7513 96.4816 12.5496 96.4816 14.6845C96.4816 16.8193 95.8373 18.6369 94.5486 20.1371C93.26 21.618 91.6348 22.3585 89.673 22.3585C87.7113 22.3585 86.0957 21.6276 84.8263 20.1659C83.5569 18.685 82.9222 16.877 82.9222 14.7422C82.9222 12.6073 83.5569 10.7994 84.8263 9.31844C86.1149 7.81826 87.7401 7.06816 89.7019 7.06816Z" fill="white"/>
<path d="M99.6701 14.7133L99.8144 20.7718C99.8144 21.7334 99.4489 22.2142 98.7181 22.2142C97.9872 22.2142 97.6218 21.7334 97.6218 20.7718L97.766 14.7133L97.6218 8.6549C97.6218 7.69324 97.9872 7.21241 98.7181 7.21241C99.4489 7.21241 99.8144 7.69324 99.8144 8.6549L99.6701 14.7133Z" fill="white"/>
<path d="M111.632 17.7714C111.632 19.0792 111.094 20.1467 110.017 20.9737C108.959 21.8007 107.68 22.2142 106.18 22.2142C104.699 22.2142 103.41 21.8777 102.314 21.2045C101.217 20.5121 100.669 19.8293 100.669 19.1562C100.669 18.8677 100.756 18.6369 100.929 18.4638C101.102 18.2714 101.294 18.1753 101.506 18.1753C101.737 18.1753 101.919 18.2234 102.054 18.3195C102.189 18.3965 102.371 18.5599 102.602 18.81C102.833 19.06 103.035 19.2716 103.208 19.4447C103.4 19.6178 103.775 19.8101 104.333 20.0217C104.91 20.2332 105.439 20.339 105.92 20.339C106.978 20.339 107.843 20.1274 108.516 19.7043C109.209 19.262 109.555 18.6273 109.555 17.8002C109.555 16.8001 108.593 15.9635 106.67 15.2903C105.881 15.0211 105.083 14.7326 104.275 14.4248C103.487 14.0979 102.814 13.6555 102.256 13.0977C101.698 12.54 101.419 11.8764 101.419 11.1071C101.419 10.0685 101.891 9.16457 102.833 8.39525C103.775 7.60669 104.929 7.21241 106.295 7.21241C107.661 7.21241 108.738 7.45283 109.526 7.93365C110.334 8.39525 110.738 8.8857 110.738 9.40499C110.738 10.0397 110.401 10.357 109.728 10.357C109.44 10.357 109.151 10.2512 108.863 10.0397C107.959 9.40499 107.093 9.08764 106.266 9.08764C105.439 9.08764 104.766 9.27997 104.247 9.66464C103.727 10.0301 103.468 10.4628 103.468 10.9629C103.468 11.4437 103.747 11.8572 104.304 12.2034C104.862 12.5496 105.535 12.8669 106.324 13.1554C107.132 13.4439 107.939 13.7709 108.747 14.1363C109.555 14.4825 110.238 14.973 110.796 15.6077C111.353 16.2231 111.632 16.9444 111.632 17.7714Z" fill="white"/>
<path d="M118.241 14.1652C119.549 14.1652 120.587 13.944 121.357 13.5016C122.145 13.0593 122.54 12.463 122.54 11.713C122.54 10.9629 122.28 10.3186 121.761 9.78003C121.261 9.22227 120.539 8.94339 119.597 8.94339C118.328 8.94339 117.26 9.42422 116.395 10.3859C115.529 11.3283 114.971 12.4342 114.721 13.7036C115.779 14.0113 116.952 14.1652 118.241 14.1652ZM119.337 7.06816C120.895 7.06816 122.155 7.50091 123.117 8.3664C124.097 9.23189 124.588 10.357 124.588 11.7418C124.588 13.1266 123.982 14.1844 122.77 14.9153C121.578 15.6269 120.107 15.9827 118.356 15.9827C117.356 15.9827 116.135 15.8385 114.692 15.55C114.808 16.8963 115.308 18.0599 116.193 19.0408C117.097 20.0024 118.097 20.4833 119.193 20.4833C119.847 20.4833 120.453 20.3967 121.011 20.2236C121.568 20.0313 121.991 19.8293 122.28 19.6178C123.049 19.0215 123.549 18.7234 123.78 18.7234C124.03 18.7234 124.222 18.8004 124.357 18.9542C124.511 19.0889 124.588 19.262 124.588 19.4735C124.588 20.012 124.03 20.6275 122.915 21.3199C121.818 22.0123 120.626 22.3585 119.337 22.3585C117.337 22.3585 115.75 21.6565 114.577 20.2525C113.404 18.8484 112.769 17.1559 112.673 15.1749C111.654 14.8672 111.144 14.3671 111.144 13.6747C111.144 13.3862 111.221 13.1651 111.375 13.0112C111.548 12.8381 111.75 12.7515 111.981 12.7515C112.211 12.7515 112.5 12.8381 112.846 13.0112C113.269 11.2802 114.067 9.85697 115.241 8.74145C116.433 7.62593 117.799 7.06816 119.337 7.06816Z" fill="white"/>
<path d="M99.7567 0.692378C99.5643 0.423114 99.2662 0.288483 98.8623 0.288483C98.4584 0.288483 98.1122 0.461581 97.8237 0.807777C97.5545 1.13474 97.4198 1.5194 97.4198 1.96176C97.4198 2.40412 97.516 2.75994 97.7083 3.0292C97.9199 3.29846 98.2276 3.43309 98.6315 3.43309C99.0354 3.43309 99.372 3.24076 99.6413 2.8561C99.9105 2.45221 100.045 2.05793 100.045 1.67327C100.045 1.26937 99.949 0.942408 99.7567 0.692378Z" fill="white"/>
</svg>
